<svg xmlns="http://www.w3.org/2000/svg" xmlns:xlink="http://www.w3.org/1999/xlink" width="454" zoomAndPan="magnify" viewBox="0 0 340.5 256.499992" height="342" preserveAspectRatio="xMidYMid meet" version="1.0"><defs><g/><clipPath id="5428223651"><path d="M 0.0820312 24 L 295 24 L 295 256 L 0.0820312 256 Z M 0.0820312 24 " clip-rule="nonzero"/></clipPath><clipPath id="12b17f089e"><path d="M 25 0 L 318.960938 0 L 318.960938 232 L 25 232 Z M 25 0 " clip-rule="nonzero"/></clipPath><clipPath id="77625bf3a6"><path d="M 25 0 L 318.960938 0 L 318.960938 31 L 25 31 Z M 25 0 " clip-rule="nonzero"/></clipPath></defs><path fill="#d2eddd" d="M 1.464844 25.324219 L 293.402344 25.324219 L 293.402344 254.828125 L 1.464844 254.828125 Z M 1.464844 25.324219 " fill-opacity="1" fill-rule="nonzero"/><g clip-path="url(#5428223651)"><path fill="#000000" d="M 294.28125 255.707031 L 0.585938 255.707031 L 0.585938 24.445312 L 294.28125 24.445312 Z M 2.34375 253.949219 L 292.523438 253.949219 L 292.523438 26.203125 L 2.34375 26.203125 Z M 2.34375 253.949219 " fill-opacity="1" fill-rule="nonzero"/></g><path fill="#d2eddd" d="M 14.300781 12.488281 L 306.238281 12.488281 L 306.238281 241.992188 L 14.300781 241.992188 Z M 14.300781 12.488281 " fill-opacity="1" fill-rule="nonzero"/><path fill="#000000" d="M 307.117188 242.871094 L 13.421875 242.871094 L 13.421875 11.605469 L 307.117188 11.605469 Z M 15.183594 241.113281 L 305.359375 241.113281 L 305.359375 13.367188 L 15.183594 13.367188 Z M 15.183594 241.113281 " fill-opacity="1" fill-rule="nonzero"/><path fill="#fffbfc" d="M 25.910156 0.878906 L 317.847656 0.878906 L 317.847656 230.382812 L 25.910156 230.382812 Z M 25.910156 0.878906 " fill-opacity="1" fill-rule="nonzero"/><g clip-path="url(#12b17f089e)"><path fill="#000000" d="M 318.726562 231.261719 L 25.03125 231.261719 L 25.03125 0 L 318.726562 0 Z M 26.789062 229.503906 L 316.96875 229.503906 L 316.96875 1.757812 L 26.789062 1.757812 Z M 26.789062 229.503906 " fill-opacity="1" fill-rule="nonzero"/></g><path fill="#d2eddd" d="M 25.910156 0.878906 L 317.847656 0.878906 L 317.847656 29.898438 L 25.910156 29.898438 Z M 25.910156 0.878906 " fill-opacity="1" fill-rule="nonzero"/><g clip-path="url(#77625bf3a6)"><path fill="#000000" d="M 318.726562 30.777344 L 25.03125 30.777344 L 25.03125 0 L 318.726562 0 Z M 26.789062 29.019531 L 316.96875 29.019531 L 316.96875 1.757812 L 26.789062 1.757812 Z M 26.789062 29.019531 " fill-opacity="1" fill-rule="nonzero"/></g><path fill="#fffbfc" d="M 44.902344 15.476562 C 44.902344 15.753906 44.875 16.027344 44.820312 16.300781 C 44.769531 16.570312 44.6875 16.835938 44.582031 17.089844 C 44.476562 17.347656 44.347656 17.589844 44.191406 17.820312 C 44.039062 18.050781 43.863281 18.265625 43.667969 18.460938 C 43.472656 18.65625 43.257812 18.832031 43.027344 18.984375 C 42.796875 19.140625 42.554688 19.269531 42.296875 19.375 C 42.042969 19.480469 41.777344 19.5625 41.503906 19.617188 C 41.234375 19.667969 40.960938 19.695312 40.683594 19.695312 C 40.40625 19.695312 40.128906 19.667969 39.859375 19.617188 C 39.585938 19.5625 39.324219 19.480469 39.066406 19.375 C 38.8125 19.269531 38.566406 19.140625 38.335938 18.984375 C 38.105469 18.832031 37.894531 18.65625 37.699219 18.460938 C 37.5 18.265625 37.328125 18.050781 37.171875 17.820312 C 37.019531 17.589844 36.890625 17.347656 36.78125 17.089844 C 36.675781 16.835938 36.597656 16.570312 36.542969 16.300781 C 36.488281 16.027344 36.460938 15.753906 36.460938 15.476562 C 36.460938 15.199219 36.488281 14.925781 36.542969 14.652344 C 36.597656 14.382812 36.675781 14.117188 36.78125 13.859375 C 36.890625 13.605469 37.019531 13.363281 37.171875 13.132812 C 37.328125 12.902344 37.5 12.6875 37.699219 12.492188 C 37.894531 12.296875 38.105469 12.121094 38.335938 11.964844 C 38.566406 11.8125 38.8125 11.683594 39.066406 11.578125 C 39.324219 11.46875 39.585938 11.390625 39.859375 11.335938 C 40.128906 11.28125 40.40625 11.253906 40.683594 11.253906 C 40.960938 11.253906 41.234375 11.28125 41.503906 11.335938 C 41.777344 11.390625 42.042969 11.46875 42.296875 11.578125 C 42.554688 11.683594 42.796875 11.8125 43.027344 11.964844 C 43.257812 12.121094 43.472656 12.296875 43.667969 12.492188 C 43.863281 12.6875 44.039062 12.902344 44.191406 13.132812 C 44.347656 13.363281 44.476562 13.605469 44.582031 13.859375 C 44.6875 14.117188 44.769531 14.382812 44.820312 14.652344 C 44.875 14.925781 44.902344 15.199219 44.902344 15.476562 Z M 44.902344 15.476562 " fill-opacity="1" fill-rule="nonzero"/><path fill="#000000" d="M 40.683594 20.402344 C 37.867188 20.402344 35.582031 18.113281 35.582031 15.300781 C 35.582031 12.488281 37.867188 10.199219 40.683594 10.199219 C 43.496094 10.199219 45.78125 12.488281 45.78125 15.300781 C 45.78125 18.113281 43.496094 20.402344 40.683594 20.402344 Z M 40.683594 12.132812 C 38.921875 12.132812 37.339844 13.542969 37.339844 15.476562 C 37.339844 17.410156 38.746094 18.816406 40.683594 18.816406 C 42.617188 18.816406 44.023438 17.410156 44.023438 15.476562 C 44.023438 13.542969 42.617188 12.132812 40.683594 12.132812 Z M 40.683594 12.132812 " fill-opacity="1" fill-rule="nonzero"/><path fill="#fffbfc" d="M 59.5 15.476562 C 59.5 15.753906 59.472656 16.027344 59.417969 16.300781 C 59.363281 16.570312 59.285156 16.835938 59.179688 17.089844 C 59.074219 17.347656 58.941406 17.589844 58.789062 17.820312 C 58.632812 18.050781 58.460938 18.265625 58.265625 18.460938 C 58.066406 18.65625 57.855469 18.832031 57.625 18.984375 C 57.394531 19.140625 57.152344 19.269531 56.894531 19.375 C 56.636719 19.480469 56.375 19.5625 56.101562 19.617188 C 55.832031 19.667969 55.554688 19.695312 55.277344 19.695312 C 55.003906 19.695312 54.726562 19.667969 54.457031 19.617188 C 54.183594 19.5625 53.921875 19.480469 53.664062 19.375 C 53.40625 19.269531 53.164062 19.140625 52.933594 18.984375 C 52.703125 18.832031 52.492188 18.65625 52.292969 18.460938 C 52.097656 18.265625 51.921875 18.050781 51.769531 17.820312 C 51.617188 17.589844 51.484375 17.347656 51.378906 17.089844 C 51.273438 16.835938 51.195312 16.570312 51.140625 16.300781 C 51.085938 16.027344 51.058594 15.753906 51.058594 15.476562 C 51.058594 15.199219 51.085938 14.925781 51.140625 14.652344 C 51.195312 14.382812 51.273438 14.117188 51.378906 13.859375 C 51.484375 13.605469 51.617188 13.363281 51.769531 13.132812 C 51.921875 12.902344 52.097656 12.6875 52.292969 12.492188 C 52.492188 12.296875 52.703125 12.121094 52.933594 11.964844 C 53.164062 11.8125 53.40625 11.683594 53.664062 11.578125 C 53.921875 11.46875 54.183594 11.390625 54.457031 11.335938 C 54.726562 11.28125 55.003906 11.253906 55.277344 11.253906 C 55.554688 11.253906 55.832031 11.28125 56.101562 11.335938 C 56.375 11.390625 56.636719 11.46875 56.894531 11.578125 C 57.152344 11.683594 57.394531 11.8125 57.625 11.964844 C 57.855469 12.121094 58.066406 12.296875 58.265625 12.492188 C 58.460938 12.6875 58.632812 12.902344 58.789062 13.132812 C 58.941406 13.363281 59.074219 13.605469 59.179688 13.859375 C 59.285156 14.117188 59.363281 14.382812 59.417969 14.652344 C 59.472656 14.925781 59.5 15.199219 59.5 15.476562 Z M 59.5 15.476562 " fill-opacity="1" fill-rule="nonzero"/><path fill="#000000" d="M 55.277344 20.402344 C 52.464844 20.402344 50.179688 18.113281 50.179688 15.300781 C 50.179688 12.488281 52.464844 10.199219 55.277344 10.199219 C 58.09375 10.199219 60.378906 12.664062 60.378906 15.476562 C 60.378906 18.289062 58.09375 20.402344 55.277344 20.402344 Z M 55.277344 12.132812 C 53.519531 12.132812 51.9375 13.542969 51.9375 15.476562 C 51.9375 17.410156 53.34375 18.816406 55.277344 18.816406 C 57.039062 18.816406 58.621094 17.410156 58.621094 15.476562 C 58.621094 13.542969 57.039062 12.132812 55.277344 12.132812 Z M 55.277344 12.132812 " fill-opacity="1" fill-rule="nonzero"/><path fill="#fffbfc" d="M 74.800781 15.476562 C 74.800781 15.753906 74.773438 16.027344 74.71875 16.300781 C 74.664062 16.570312 74.585938 16.835938 74.480469 17.089844 C 74.371094 17.347656 74.242188 17.589844 74.089844 17.820312 C 73.933594 18.050781 73.761719 18.265625 73.5625 18.460938 C 73.367188 18.65625 73.15625 18.832031 72.925781 18.984375 C 72.695312 19.140625 72.449219 19.269531 72.195312 19.375 C 71.9375 19.480469 71.675781 19.5625 71.402344 19.617188 C 71.132812 19.667969 70.855469 19.695312 70.578125 19.695312 C 70.300781 19.695312 70.027344 19.667969 69.757812 19.617188 C 69.484375 19.5625 69.21875 19.480469 68.964844 19.375 C 68.707031 19.269531 68.464844 19.140625 68.234375 18.984375 C 68.003906 18.832031 67.789062 18.65625 67.59375 18.460938 C 67.398438 18.265625 67.222656 18.050781 67.070312 17.820312 C 66.917969 17.589844 66.785156 17.347656 66.679688 17.089844 C 66.574219 16.835938 66.492188 16.570312 66.441406 16.300781 C 66.386719 16.027344 66.359375 15.753906 66.359375 15.476562 C 66.359375 15.199219 66.386719 14.925781 66.441406 14.652344 C 66.492188 14.382812 66.574219 14.117188 66.679688 13.859375 C 66.785156 13.605469 66.917969 13.363281 67.070312 13.132812 C 67.222656 12.902344 67.398438 12.6875 67.59375 12.492188 C 67.789062 12.296875 68.003906 12.121094 68.234375 11.964844 C 68.464844 11.8125 68.707031 11.683594 68.964844 11.578125 C 69.21875 11.46875 69.484375 11.390625 69.757812 11.335938 C 70.027344 11.28125 70.300781 11.253906 70.578125 11.253906 C 70.855469 11.253906 71.132812 11.28125 71.402344 11.335938 C 71.675781 11.390625 71.9375 11.46875 72.195312 11.578125 C 72.449219 11.683594 72.695312 11.8125 72.925781 11.964844 C 73.15625 12.121094 73.367188 12.296875 73.5625 12.492188 C 73.761719 12.6875 73.933594 12.902344 74.089844 13.132812 C 74.242188 13.363281 74.371094 13.605469 74.480469 13.859375 C 74.585938 14.117188 74.664062 14.382812 74.71875 14.652344 C 74.773438 14.925781 74.800781 15.199219 74.800781 15.476562 Z M 74.800781 15.476562 " fill-opacity="1" fill-rule="nonzero"/><path fill="#000000" d="M 70.578125 20.402344 C 67.765625 20.402344 65.480469 18.113281 65.480469 15.300781 C 65.480469 12.488281 67.765625 10.199219 70.578125 10.199219 C 73.394531 10.199219 75.679688 12.488281 75.679688 15.300781 C 75.679688 18.113281 73.394531 20.402344 70.578125 20.402344 Z M 70.578125 12.132812 C 68.820312 12.132812 67.238281 13.542969 67.238281 15.476562 C 67.238281 17.410156 68.644531 18.816406 70.578125 18.816406 C 72.515625 18.816406 73.921875 17.410156 73.921875 15.476562 C 73.921875 13.542969 72.339844 12.132812 70.578125 12.132812 Z M 70.578125 12.132812 " fill-opacity="1" fill-rule="nonzero"/><g fill="#156669" fill-opacity="1"><g transform="translate(38.396875, 111.055626)"><g><path d="M 8.828125 -2.984375 L 2.609375 -2.984375 L 1.265625 0 L 0.03125 0 L 5.140625 -11.171875 L 6.3125 -11.171875 L 11.421875 0 L 10.171875 0 Z M 8.40625 -3.9375 L 5.71875 -9.953125 L 3.03125 -3.9375 Z M 8.40625 -3.9375 "/></g></g></g><g fill="#156669" fill-opacity="1"><g transform="translate(49.205049, 111.055626)"><g/></g></g><g fill="#156669" fill-opacity="1"><g transform="translate(52.749136, 111.055626)"><g><path d="M 5.90625 -8.46875 C 6.695312 -8.46875 7.410156 -8.285156 8.046875 -7.921875 C 8.679688 -7.566406 9.179688 -7.066406 9.546875 -6.421875 C 9.910156 -5.773438 10.09375 -5.035156 10.09375 -4.203125 C 10.09375 -3.367188 9.910156 -2.625 9.546875 -1.96875 C 9.179688 -1.320312 8.679688 -0.816406 8.046875 -0.453125 C 7.410156 -0.0976562 6.695312 0.078125 5.90625 0.078125 C 5.207031 0.078125 4.578125 -0.0664062 4.015625 -0.359375 C 3.453125 -0.660156 3.003906 -1.09375 2.671875 -1.65625 L 2.671875 0 L 1.578125 0 L 1.578125 -11.84375 L 2.71875 -11.84375 L 2.71875 -6.796875 C 3.0625 -7.335938 3.507812 -7.75 4.0625 -8.03125 C 4.613281 -8.320312 5.226562 -8.46875 5.90625 -8.46875 Z M 5.828125 -0.921875 C 6.410156 -0.921875 6.941406 -1.054688 7.421875 -1.328125 C 7.898438 -1.597656 8.273438 -1.984375 8.546875 -2.484375 C 8.816406 -2.984375 8.953125 -3.554688 8.953125 -4.203125 C 8.953125 -4.835938 8.816406 -5.40625 8.546875 -5.90625 C 8.273438 -6.40625 7.898438 -6.789062 7.421875 -7.0625 C 6.941406 -7.332031 6.410156 -7.46875 5.828125 -7.46875 C 5.234375 -7.46875 4.695312 -7.332031 4.21875 -7.0625 C 3.75 -6.789062 3.378906 -6.40625 3.109375 -5.90625 C 2.835938 -5.40625 2.703125 -4.835938 2.703125 -4.203125 C 2.703125 -3.554688 2.835938 -2.984375 3.109375 -2.484375 C 3.378906 -1.984375 3.75 -1.597656 4.21875 -1.328125 C 4.695312 -1.054688 5.234375 -0.921875 5.828125 -0.921875 Z M 5.828125 -0.921875 "/></g></g></g><g fill="#156669" fill-opacity="1"><g transform="translate(62.934672, 111.055626)"><g><path d="M 5.015625 0.078125 C 4.203125 0.078125 3.472656 -0.101562 2.828125 -0.46875 C 2.179688 -0.832031 1.671875 -1.335938 1.296875 -1.984375 C 0.921875 -2.640625 0.734375 -3.378906 0.734375 -4.203125 C 0.734375 -5.015625 0.921875 -5.742188 1.296875 -6.390625 C 1.671875 -7.046875 2.179688 -7.554688 2.828125 -7.921875 C 3.472656 -8.285156 4.203125 -8.46875 5.015625 -8.46875 C 5.828125 -8.46875 6.554688 -8.285156 7.203125 -7.921875 C 7.847656 -7.554688 8.351562 -7.046875 8.71875 -6.390625 C 9.09375 -5.742188 9.28125 -5.015625 9.28125 -4.203125 C 9.28125 -3.378906 9.09375 -2.640625 8.71875 -1.984375 C 8.351562 -1.335938 7.847656 -0.832031 7.203125 -0.46875 C 6.554688 -0.101562 5.828125 0.078125 5.015625 0.078125 Z M 5.015625 -0.921875 C 5.609375 -0.921875 6.140625 -1.054688 6.609375 -1.328125 C 7.085938 -1.597656 7.457031 -1.984375 7.71875 -2.484375 C 7.988281 -2.984375 8.125 -3.554688 8.125 -4.203125 C 8.125 -4.835938 7.988281 -5.40625 7.71875 -5.90625 C 7.457031 -6.40625 7.085938 -6.789062 6.609375 -7.0625 C 6.140625 -7.332031 5.609375 -7.46875 5.015625 -7.46875 C 4.421875 -7.46875 3.882812 -7.332031 3.40625 -7.0625 C 2.9375 -6.789062 2.566406 -6.40625 2.296875 -5.90625 C 2.023438 -5.40625 1.890625 -4.835938 1.890625 -4.203125 C 1.890625 -3.554688 2.023438 -2.984375 2.296875 -2.484375 C 2.566406 -1.984375 2.9375 -1.597656 3.40625 -1.328125 C 3.882812 -1.054688 4.421875 -0.921875 5.015625 -0.921875 Z M 5.015625 -0.921875 "/></g></g></g><g fill="#156669" fill-opacity="1"><g transform="translate(72.305992, 111.055626)"><g><path d="M 1.578125 -11.84375 L 2.71875 -11.84375 L 2.71875 0 L 1.578125 0 Z M 1.578125 -11.84375 "/></g></g></g><g fill="#156669" fill-opacity="1"><g transform="translate(75.96183, 111.055626)"><g><path d="M 9.25 -11.84375 L 9.25 0 L 8.15625 0 L 8.15625 -1.65625 C 7.820312 -1.09375 7.375 -0.660156 6.8125 -0.359375 C 6.25 -0.0664062 5.617188 0.078125 4.921875 0.078125 C 4.128906 0.078125 3.414062 -0.0976562 2.78125 -0.453125 C 2.144531 -0.816406 1.644531 -1.320312 1.28125 -1.96875 C 0.914062 -2.625 0.734375 -3.367188 0.734375 -4.203125 C 0.734375 -5.035156 0.914062 -5.773438 1.28125 -6.421875 C 1.644531 -7.066406 2.144531 -7.566406 2.78125 -7.921875 C 3.414062 -8.285156 4.128906 -8.46875 4.921875 -8.46875 C 5.597656 -8.46875 6.207031 -8.320312 6.75 -8.03125 C 7.300781 -7.75 7.753906 -7.335938 8.109375 -6.796875 L 8.109375 -11.84375 Z M 5.015625 -0.921875 C 5.597656 -0.921875 6.125 -1.054688 6.59375 -1.328125 C 7.070312 -1.597656 7.445312 -1.984375 7.71875 -2.484375 C 7.988281 -2.984375 8.125 -3.554688 8.125 -4.203125 C 8.125 -4.835938 7.988281 -5.40625 7.71875 -5.90625 C 7.445312 -6.40625 7.070312 -6.789062 6.59375 -7.0625 C 6.125 -7.332031 5.597656 -7.46875 5.015625 -7.46875 C 4.421875 -7.46875 3.882812 -7.332031 3.40625 -7.0625 C 2.9375 -6.789062 2.566406 -6.40625 2.296875 -5.90625 C 2.023438 -5.40625 1.890625 -4.835938 1.890625 -4.203125 C 1.890625 -3.554688 2.023438 -2.984375 2.296875 -2.484375 C 2.566406 -1.984375 2.9375 -1.597656 3.40625 -1.328125 C 3.882812 -1.054688 4.421875 -0.921875 5.015625 -0.921875 Z M 5.015625 -0.921875 "/></g></g></g><g fill="#156669" fill-opacity="1"><g transform="translate(86.147367, 111.055626)"><g><path d="M 1.703125 -1.65625 C 1.953125 -1.65625 2.15625 -1.570312 2.3125 -1.40625 C 2.476562 -1.25 2.5625 -1.046875 2.5625 -0.796875 C 2.5625 -0.671875 2.539062 -0.53125 2.5 -0.375 C 2.457031 -0.226562 2.398438 -0.0625 2.328125 0.125 L 1.65625 2.328125 L 0.890625 2.328125 L 1.4375 0.015625 C 1.269531 -0.0351562 1.128906 -0.132812 1.015625 -0.28125 C 0.910156 -0.425781 0.859375 -0.597656 0.859375 -0.796875 C 0.859375 -1.046875 0.9375 -1.25 1.09375 -1.40625 C 1.257812 -1.570312 1.460938 -1.65625 1.703125 -1.65625 Z M 1.703125 -1.65625 "/></g></g></g><g fill="#156669" fill-opacity="1"><g transform="translate(88.893197, 111.055626)"><g/></g></g><g fill="#156669" fill-opacity="1"><g transform="translate(92.437287, 111.055626)"><g><path d="M 3.828125 0.078125 C 3.148438 0.078125 2.5 -0.0195312 1.875 -0.21875 C 1.25 -0.414062 0.765625 -0.660156 0.421875 -0.953125 L 0.921875 -1.859375 C 1.273438 -1.578125 1.71875 -1.347656 2.25 -1.171875 C 2.78125 -0.992188 3.332031 -0.90625 3.90625 -0.90625 C 4.675781 -0.90625 5.242188 -1.023438 5.609375 -1.265625 C 5.972656 -1.503906 6.15625 -1.84375 6.15625 -2.28125 C 6.15625 -2.59375 6.054688 -2.835938 5.859375 -3.015625 C 5.660156 -3.191406 5.40625 -3.320312 5.09375 -3.40625 C 4.78125 -3.5 4.367188 -3.585938 3.859375 -3.671875 C 3.179688 -3.796875 2.632812 -3.925781 2.21875 -4.0625 C 1.800781 -4.195312 1.445312 -4.421875 1.15625 -4.734375 C 0.863281 -5.054688 0.71875 -5.5 0.71875 -6.0625 C 0.71875 -6.769531 1.007812 -7.347656 1.59375 -7.796875 C 2.175781 -8.242188 2.992188 -8.46875 4.046875 -8.46875 C 4.585938 -8.46875 5.128906 -8.394531 5.671875 -8.25 C 6.210938 -8.101562 6.660156 -7.914062 7.015625 -7.6875 L 6.515625 -6.765625 C 5.828125 -7.242188 5.003906 -7.484375 4.046875 -7.484375 C 3.316406 -7.484375 2.769531 -7.351562 2.40625 -7.09375 C 2.039062 -6.84375 1.859375 -6.507812 1.859375 -6.09375 C 1.859375 -5.78125 1.957031 -5.523438 2.15625 -5.328125 C 2.363281 -5.140625 2.625 -5 2.9375 -4.90625 C 3.25 -4.820312 3.675781 -4.726562 4.21875 -4.625 C 4.882812 -4.5 5.421875 -4.375 5.828125 -4.25 C 6.234375 -4.125 6.578125 -3.90625 6.859375 -3.59375 C 7.148438 -3.28125 7.296875 -2.851562 7.296875 -2.3125 C 7.296875 -1.582031 6.988281 -1 6.375 -0.5625 C 5.769531 -0.132812 4.921875 0.078125 3.828125 0.078125 Z M 3.828125 0.078125 "/></g></g></g><g fill="#156669" fill-opacity="1"><g transform="translate(99.605425, 111.055626)"><g><path d="M 6 -0.515625 C 5.789062 -0.316406 5.53125 -0.164062 5.21875 -0.0625 C 4.90625 0.03125 4.578125 0.078125 4.234375 0.078125 C 3.441406 0.078125 2.832031 -0.132812 2.40625 -0.5625 C 1.976562 -0.988281 1.765625 -1.585938 1.765625 -2.359375 L 1.765625 -7.4375 L 0.265625 -7.4375 L 0.265625 -8.40625 L 1.765625 -8.40625 L 1.765625 -10.234375 L 2.90625 -10.234375 L 2.90625 -8.40625 L 5.46875 -8.40625 L 5.46875 -7.4375 L 2.90625 -7.4375 L 2.90625 -2.421875 C 2.90625 -1.921875 3.03125 -1.539062 3.28125 -1.28125 C 3.53125 -1.019531 3.890625 -0.890625 4.359375 -0.890625 C 4.585938 -0.890625 4.8125 -0.925781 5.03125 -1 C 5.25 -1.082031 5.441406 -1.191406 5.609375 -1.328125 Z M 6 -0.515625 "/></g></g></g><g fill="#156669" fill-opacity="1"><g transform="translate(105.448477, 111.055626)"><g><path d="M 2.671875 -6.75 C 2.929688 -7.3125 3.320312 -7.738281 3.84375 -8.03125 C 4.375 -8.320312 5.03125 -8.46875 5.8125 -8.46875 L 5.8125 -7.359375 L 5.546875 -7.375 C 4.660156 -7.375 3.96875 -7.101562 3.46875 -6.5625 C 2.96875 -6.019531 2.71875 -5.257812 2.71875 -4.28125 L 2.71875 0 L 1.578125 0 L 1.578125 -8.40625 L 2.671875 -8.40625 Z M 2.671875 -6.75 "/></g></g></g><g fill="#156669" fill-opacity="1"><g transform="translate(111.211702, 111.055626)"><g><path d="M 5.015625 0.078125 C 4.203125 0.078125 3.472656 -0.101562 2.828125 -0.46875 C 2.179688 -0.832031 1.671875 -1.335938 1.296875 -1.984375 C 0.921875 -2.640625 0.734375 -3.378906 0.734375 -4.203125 C 0.734375 -5.015625 0.921875 -5.742188 1.296875 -6.390625 C 1.671875 -7.046875 2.179688 -7.554688 2.828125 -7.921875 C 3.472656 -8.285156 4.203125 -8.46875 5.015625 -8.46875 C 5.828125 -8.46875 6.554688 -8.285156 7.203125 -7.921875 C 7.847656 -7.554688 8.351562 -7.046875 8.71875 -6.390625 C 9.09375 -5.742188 9.28125 -5.015625 9.28125 -4.203125 C 9.28125 -3.378906 9.09375 -2.640625 8.71875 -1.984375 C 8.351562 -1.335938 7.847656 -0.832031 7.203125 -0.46875 C 6.554688 -0.101562 5.828125 0.078125 5.015625 0.078125 Z M 5.015625 -0.921875 C 5.609375 -0.921875 6.140625 -1.054688 6.609375 -1.328125 C 7.085938 -1.597656 7.457031 -1.984375 7.71875 -2.484375 C 7.988281 -2.984375 8.125 -3.554688 8.125 -4.203125 C 8.125 -4.835938 7.988281 -5.40625 7.71875 -5.90625 C 7.457031 -6.40625 7.085938 -6.789062 6.609375 -7.0625 C 6.140625 -7.332031 5.609375 -7.46875 5.015625 -7.46875 C 4.421875 -7.46875 3.882812 -7.332031 3.40625 -7.0625 C 2.9375 -6.789062 2.566406 -6.40625 2.296875 -5.90625 C 2.023438 -5.40625 1.890625 -4.835938 1.890625 -4.203125 C 1.890625 -3.554688 2.023438 -2.984375 2.296875 -2.484375 C 2.566406 -1.984375 2.9375 -1.597656 3.40625 -1.328125 C 3.882812 -1.054688 4.421875 -0.921875 5.015625 -0.921875 Z M 5.015625 -0.921875 "/></g></g></g><g fill="#156669" fill-opacity="1"><g transform="translate(120.583025, 111.055626)"><g><path d="M 5.859375 -8.46875 C 6.910156 -8.46875 7.75 -8.160156 8.375 -7.546875 C 9 -6.929688 9.3125 -6.039062 9.3125 -4.875 L 9.3125 0 L 8.171875 0 L 8.171875 -4.765625 C 8.171875 -5.628906 7.953125 -6.289062 7.515625 -6.75 C 7.078125 -7.207031 6.457031 -7.4375 5.65625 -7.4375 C 4.75 -7.4375 4.03125 -7.164062 3.5 -6.625 C 2.976562 -6.09375 2.71875 -5.351562 2.71875 -4.40625 L 2.71875 0 L 1.578125 0 L 1.578125 -8.40625 L 2.671875 -8.40625 L 2.671875 -6.84375 C 2.972656 -7.351562 3.398438 -7.75 3.953125 -8.03125 C 4.503906 -8.320312 5.140625 -8.46875 5.859375 -8.46875 Z M 5.859375 -8.46875 "/></g></g></g><g fill="#156669" fill-opacity="1"><g transform="translate(130.752596, 111.055626)"><g><path d="M 9.359375 -8.40625 L 9.359375 -1.015625 C 9.359375 0.410156 9.007812 1.460938 8.3125 2.140625 C 7.613281 2.828125 6.5625 3.171875 5.15625 3.171875 C 4.382812 3.171875 3.648438 3.054688 2.953125 2.828125 C 2.253906 2.597656 1.6875 2.285156 1.25 1.890625 L 1.828125 1.015625 C 2.222656 1.378906 2.710938 1.660156 3.296875 1.859375 C 3.878906 2.066406 4.488281 2.171875 5.125 2.171875 C 6.1875 2.171875 6.96875 1.921875 7.46875 1.421875 C 7.96875 0.929688 8.21875 0.164062 8.21875 -0.875 L 8.21875 -1.953125 C 7.875 -1.421875 7.414062 -1.015625 6.84375 -0.734375 C 6.269531 -0.453125 5.640625 -0.3125 4.953125 -0.3125 C 4.160156 -0.3125 3.441406 -0.484375 2.796875 -0.828125 C 2.160156 -1.179688 1.65625 -1.664062 1.28125 -2.28125 C 0.914062 -2.90625 0.734375 -3.613281 0.734375 -4.40625 C 0.734375 -5.195312 0.914062 -5.898438 1.28125 -6.515625 C 1.65625 -7.128906 2.160156 -7.609375 2.796875 -7.953125 C 3.429688 -8.296875 4.148438 -8.46875 4.953125 -8.46875 C 5.660156 -8.46875 6.300781 -8.320312 6.875 -8.03125 C 7.457031 -7.738281 7.921875 -7.320312 8.265625 -6.78125 L 8.265625 -8.40625 Z M 5.0625 -1.328125 C 5.664062 -1.328125 6.210938 -1.457031 6.703125 -1.71875 C 7.191406 -1.976562 7.570312 -2.34375 7.84375 -2.8125 C 8.113281 -3.28125 8.25 -3.8125 8.25 -4.40625 C 8.25 -5 8.113281 -5.523438 7.84375 -5.984375 C 7.570312 -6.453125 7.191406 -6.816406 6.703125 -7.078125 C 6.222656 -7.335938 5.675781 -7.46875 5.0625 -7.46875 C 4.457031 -7.46875 3.910156 -7.335938 3.421875 -7.078125 C 2.941406 -6.828125 2.566406 -6.46875 2.296875 -6 C 2.023438 -5.53125 1.890625 -5 1.890625 -4.40625 C 1.890625 -3.8125 2.023438 -3.28125 2.296875 -2.8125 C 2.566406 -2.34375 2.941406 -1.976562 3.421875 -1.71875 C 3.910156 -1.457031 4.457031 -1.328125 5.0625 -1.328125 Z M 5.0625 -1.328125 "/></g></g></g><g fill="#156669" fill-opacity="1"><g transform="translate(141.065854, 111.055626)"><g/></g></g><g fill="#156669" fill-opacity="1"><g transform="translate(144.609944, 111.055626)"><g><path d="M 4.515625 -8.46875 C 5.609375 -8.46875 6.445312 -8.191406 7.03125 -7.640625 C 7.625 -7.085938 7.921875 -6.273438 7.921875 -5.203125 L 7.921875 0 L 6.828125 0 L 6.828125 -1.3125 C 6.578125 -0.875 6.203125 -0.53125 5.703125 -0.28125 C 5.210938 -0.0390625 4.625 0.078125 3.9375 0.078125 C 3 0.078125 2.253906 -0.144531 1.703125 -0.59375 C 1.148438 -1.039062 0.875 -1.628906 0.875 -2.359375 C 0.875 -3.078125 1.128906 -3.65625 1.640625 -4.09375 C 2.160156 -4.53125 2.988281 -4.75 4.125 -4.75 L 6.78125 -4.75 L 6.78125 -5.25 C 6.78125 -5.976562 6.578125 -6.53125 6.171875 -6.90625 C 5.773438 -7.28125 5.1875 -7.46875 4.40625 -7.46875 C 3.875 -7.46875 3.363281 -7.378906 2.875 -7.203125 C 2.382812 -7.035156 1.960938 -6.796875 1.609375 -6.484375 L 1.109375 -7.328125 C 1.523438 -7.691406 2.03125 -7.972656 2.625 -8.171875 C 3.226562 -8.367188 3.859375 -8.46875 4.515625 -8.46875 Z M 4.125 -0.8125 C 4.757812 -0.8125 5.304688 -0.957031 5.765625 -1.25 C 6.222656 -1.539062 6.5625 -1.960938 6.78125 -2.515625 L 6.78125 -3.890625 L 4.15625 -3.890625 C 2.71875 -3.890625 2 -3.390625 2 -2.390625 C 2 -1.898438 2.179688 -1.515625 2.546875 -1.234375 C 2.921875 -0.953125 3.445312 -0.8125 4.125 -0.8125 Z M 4.125 -0.8125 "/></g></g></g><g fill="#156669" fill-opacity="1"><g transform="translate(153.390565, 111.055626)"><g><path d="M 5.0625 0.078125 C 4.226562 0.078125 3.484375 -0.0976562 2.828125 -0.453125 C 2.179688 -0.816406 1.671875 -1.328125 1.296875 -1.984375 C 0.921875 -2.640625 0.734375 -3.378906 0.734375 -4.203125 C 0.734375 -5.015625 0.921875 -5.742188 1.296875 -6.390625 C 1.671875 -7.046875 2.179688 -7.554688 2.828125 -7.921875 C 3.484375 -8.285156 4.226562 -8.46875 5.0625 -8.46875 C 5.78125 -8.46875 6.425781 -8.320312 7 -8.03125 C 7.570312 -7.75 8.023438 -7.335938 8.359375 -6.796875 L 7.5 -6.234375 C 7.226562 -6.640625 6.878906 -6.945312 6.453125 -7.15625 C 6.023438 -7.363281 5.5625 -7.46875 5.0625 -7.46875 C 4.457031 -7.46875 3.910156 -7.332031 3.421875 -7.0625 C 2.941406 -6.789062 2.566406 -6.40625 2.296875 -5.90625 C 2.023438 -5.40625 1.890625 -4.835938 1.890625 -4.203125 C 1.890625 -3.546875 2.023438 -2.96875 2.296875 -2.46875 C 2.566406 -1.976562 2.941406 -1.597656 3.421875 -1.328125 C 3.910156 -1.054688 4.457031 -0.921875 5.0625 -0.921875 C 5.5625 -0.921875 6.023438 -1.019531 6.453125 -1.21875 C 6.878906 -1.425781 7.226562 -1.738281 7.5 -2.15625 L 8.359375 -1.578125 C 8.023438 -1.035156 7.566406 -0.625 6.984375 -0.34375 C 6.410156 -0.0625 5.769531 0.078125 5.0625 0.078125 Z M 5.0625 0.078125 "/></g></g></g><g fill="#156669" fill-opacity="1"><g transform="translate(161.740125, 111.055626)"><g><path d="M 5.0625 0.078125 C 4.226562 0.078125 3.484375 -0.0976562 2.828125 -0.453125 C 2.179688 -0.816406 1.671875 -1.328125 1.296875 -1.984375 C 0.921875 -2.640625 0.734375 -3.378906 0.734375 -4.203125 C 0.734375 -5.015625 0.921875 -5.742188 1.296875 -6.390625 C 1.671875 -7.046875 2.179688 -7.554688 2.828125 -7.921875 C 3.484375 -8.285156 4.226562 -8.46875 5.0625 -8.46875 C 5.78125 -8.46875 6.425781 -8.320312 7 -8.03125 C 7.570312 -7.75 8.023438 -7.335938 8.359375 -6.796875 L 7.5 -6.234375 C 7.226562 -6.640625 6.878906 -6.945312 6.453125 -7.15625 C 6.023438 -7.363281 5.5625 -7.46875 5.0625 -7.46875 C 4.457031 -7.46875 3.910156 -7.332031 3.421875 -7.0625 C 2.941406 -6.789062 2.566406 -6.40625 2.296875 -5.90625 C 2.023438 -5.40625 1.890625 -4.835938 1.890625 -4.203125 C 1.890625 -3.546875 2.023438 -2.96875 2.296875 -2.46875 C 2.566406 -1.976562 2.941406 -1.597656 3.421875 -1.328125 C 3.910156 -1.054688 4.457031 -0.921875 5.0625 -0.921875 C 5.5625 -0.921875 6.023438 -1.019531 6.453125 -1.21875 C 6.878906 -1.425781 7.226562 -1.738281 7.5 -2.15625 L 8.359375 -1.578125 C 8.023438 -1.035156 7.566406 -0.625 6.984375 -0.34375 C 6.410156 -0.0625 5.769531 0.078125 5.0625 0.078125 Z M 5.0625 0.078125 "/></g></g></g><g fill="#156669" fill-opacity="1"><g transform="translate(170.089686, 111.055626)"><g><path d="M 5.015625 0.078125 C 4.203125 0.078125 3.472656 -0.101562 2.828125 -0.46875 C 2.179688 -0.832031 1.671875 -1.335938 1.296875 -1.984375 C 0.921875 -2.640625 0.734375 -3.378906 0.734375 -4.203125 C 0.734375 -5.015625 0.921875 -5.742188 1.296875 -6.390625 C 1.671875 -7.046875 2.179688 -7.554688 2.828125 -7.921875 C 3.472656 -8.285156 4.203125 -8.46875 5.015625 -8.46875 C 5.828125 -8.46875 6.554688 -8.285156 7.203125 -7.921875 C 7.847656 -7.554688 8.351562 -7.046875 8.71875 -6.390625 C 9.09375 -5.742188 9.28125 -5.015625 9.28125 -4.203125 C 9.28125 -3.378906 9.09375 -2.640625 8.71875 -1.984375 C 8.351562 -1.335938 7.847656 -0.832031 7.203125 -0.46875 C 6.554688 -0.101562 5.828125 0.078125 5.015625 0.078125 Z M 5.015625 -0.921875 C 5.609375 -0.921875 6.140625 -1.054688 6.609375 -1.328125 C 7.085938 -1.597656 7.457031 -1.984375 7.71875 -2.484375 C 7.988281 -2.984375 8.125 -3.554688 8.125 -4.203125 C 8.125 -4.835938 7.988281 -5.40625 7.71875 -5.90625 C 7.457031 -6.40625 7.085938 -6.789062 6.609375 -7.0625 C 6.140625 -7.332031 5.609375 -7.46875 5.015625 -7.46875 C 4.421875 -7.46875 3.882812 -7.332031 3.40625 -7.0625 C 2.9375 -6.789062 2.566406 -6.40625 2.296875 -5.90625 C 2.023438 -5.40625 1.890625 -4.835938 1.890625 -4.203125 C 1.890625 -3.554688 2.023438 -2.984375 2.296875 -2.484375 C 2.566406 -1.984375 2.9375 -1.597656 3.40625 -1.328125 C 3.882812 -1.054688 4.421875 -0.921875 5.015625 -0.921875 Z M 5.015625 -0.921875 "/></g></g></g><g fill="#156669" fill-opacity="1"><g transform="translate(179.461009, 111.055626)"><g><path d="M 9.15625 -8.40625 L 9.15625 0 L 8.0625 0 L 8.0625 -1.53125 C 7.757812 -1.019531 7.347656 -0.625 6.828125 -0.34375 C 6.304688 -0.0625 5.710938 0.078125 5.046875 0.078125 C 3.953125 0.078125 3.085938 -0.222656 2.453125 -0.828125 C 1.816406 -1.441406 1.5 -2.34375 1.5 -3.53125 L 1.5 -8.40625 L 2.640625 -8.40625 L 2.640625 -3.640625 C 2.640625 -2.753906 2.851562 -2.082031 3.28125 -1.625 C 3.71875 -1.164062 4.34375 -0.9375 5.15625 -0.9375 C 6.039062 -0.9375 6.738281 -1.207031 7.25 -1.75 C 7.757812 -2.289062 8.015625 -3.039062 8.015625 -4 L 8.015625 -8.40625 Z M 9.15625 -8.40625 "/></g></g></g><g fill="#156669" fill-opacity="1"><g transform="translate(189.566721, 111.055626)"><g><path d="M 5.859375 -8.46875 C 6.910156 -8.46875 7.75 -8.160156 8.375 -7.546875 C 9 -6.929688 9.3125 -6.039062 9.3125 -4.875 L 9.3125 0 L 8.171875 0 L 8.171875 -4.765625 C 8.171875 -5.628906 7.953125 -6.289062 7.515625 -6.75 C 7.078125 -7.207031 6.457031 -7.4375 5.65625 -7.4375 C 4.75 -7.4375 4.03125 -7.164062 3.5 -6.625 C 2.976562 -6.09375 2.71875 -5.351562 2.71875 -4.40625 L 2.71875 0 L 1.578125 0 L 1.578125 -8.40625 L 2.671875 -8.40625 L 2.671875 -6.84375 C 2.972656 -7.351562 3.398438 -7.75 3.953125 -8.03125 C 4.503906 -8.320312 5.140625 -8.46875 5.859375 -8.46875 Z M 5.859375 -8.46875 "/></g></g></g><g fill="#156669" fill-opacity="1"><g transform="translate(199.736292, 111.055626)"><g><path d="M 6 -0.515625 C 5.789062 -0.316406 5.53125 -0.164062 5.21875 -0.0625 C 4.90625 0.03125 4.578125 0.078125 4.234375 0.078125 C 3.441406 0.078125 2.832031 -0.132812 2.40625 -0.5625 C 1.976562 -0.988281 1.765625 -1.585938 1.765625 -2.359375 L 1.765625 -7.4375 L 0.265625 -7.4375 L 0.265625 -8.40625 L 1.765625 -8.40625 L 1.765625 -10.234375 L 2.90625 -10.234375 L 2.90625 -8.40625 L 5.46875 -8.40625 L 5.46875 -7.4375 L 2.90625 -7.4375 L 2.90625 -2.421875 C 2.90625 -1.921875 3.03125 -1.539062 3.28125 -1.28125 C 3.53125 -1.019531 3.890625 -0.890625 4.359375 -0.890625 C 4.585938 -0.890625 4.8125 -0.925781 5.03125 -1 C 5.25 -1.082031 5.441406 -1.191406 5.609375 -1.328125 Z M 6 -0.515625 "/></g></g></g><g fill="#156669" fill-opacity="1"><g transform="translate(205.579344, 111.055626)"><g><path d="M 4.515625 -8.46875 C 5.609375 -8.46875 6.445312 -8.191406 7.03125 -7.640625 C 7.625 -7.085938 7.921875 -6.273438 7.921875 -5.203125 L 7.921875 0 L 6.828125 0 L 6.828125 -1.3125 C 6.578125 -0.875 6.203125 -0.53125 5.703125 -0.28125 C 5.210938 -0.0390625 4.625 0.078125 3.9375 0.078125 C 3 0.078125 2.253906 -0.144531 1.703125 -0.59375 C 1.148438 -1.039062 0.875 -1.628906 0.875 -2.359375 C 0.875 -3.078125 1.128906 -3.65625 1.640625 -4.09375 C 2.160156 -4.53125 2.988281 -4.75 4.125 -4.75 L 6.78125 -4.75 L 6.78125 -5.25 C 6.78125 -5.976562 6.578125 -6.53125 6.171875 -6.90625 C 5.773438 -7.28125 5.1875 -7.46875 4.40625 -7.46875 C 3.875 -7.46875 3.363281 -7.378906 2.875 -7.203125 C 2.382812 -7.035156 1.960938 -6.796875 1.609375 -6.484375 L 1.109375 -7.328125 C 1.523438 -7.691406 2.03125 -7.972656 2.625 -8.171875 C 3.226562 -8.367188 3.859375 -8.46875 4.515625 -8.46875 Z M 4.125 -0.8125 C 4.757812 -0.8125 5.304688 -0.957031 5.765625 -1.25 C 6.222656 -1.539062 6.5625 -1.960938 6.78125 -2.515625 L 6.78125 -3.890625 L 4.15625 -3.890625 C 2.71875 -3.890625 2 -3.390625 2 -2.390625 C 2 -1.898438 2.179688 -1.515625 2.546875 -1.234375 C 2.921875 -0.953125 3.445312 -0.8125 4.125 -0.8125 Z M 4.125 -0.8125 "/></g></g></g><g fill="#156669" fill-opacity="1"><g transform="translate(214.359965, 111.055626)"><g><path d="M 5.90625 -8.46875 C 6.695312 -8.46875 7.410156 -8.285156 8.046875 -7.921875 C 8.679688 -7.566406 9.179688 -7.066406 9.546875 -6.421875 C 9.910156 -5.773438 10.09375 -5.035156 10.09375 -4.203125 C 10.09375 -3.367188 9.910156 -2.625 9.546875 -1.96875 C 9.179688 -1.320312 8.679688 -0.816406 8.046875 -0.453125 C 7.410156 -0.0976562 6.695312 0.078125 5.90625 0.078125 C 5.207031 0.078125 4.578125 -0.0664062 4.015625 -0.359375 C 3.453125 -0.660156 3.003906 -1.09375 2.671875 -1.65625 L 2.671875 0 L 1.578125 0 L 1.578125 -11.84375 L 2.71875 -11.84375 L 2.71875 -6.796875 C 3.0625 -7.335938 3.507812 -7.75 4.0625 -8.03125 C 4.613281 -8.320312 5.226562 -8.46875 5.90625 -8.46875 Z M 5.828125 -0.921875 C 6.410156 -0.921875 6.941406 -1.054688 7.421875 -1.328125 C 7.898438 -1.597656 8.273438 -1.984375 8.546875 -2.484375 C 8.816406 -2.984375 8.953125 -3.554688 8.953125 -4.203125 C 8.953125 -4.835938 8.816406 -5.40625 8.546875 -5.90625 C 8.273438 -6.40625 7.898438 -6.789062 7.421875 -7.0625 C 6.941406 -7.332031 6.410156 -7.46875 5.828125 -7.46875 C 5.234375 -7.46875 4.695312 -7.332031 4.21875 -7.0625 C 3.75 -6.789062 3.378906 -6.40625 3.109375 -5.90625 C 2.835938 -5.40625 2.703125 -4.835938 2.703125 -4.203125 C 2.703125 -3.554688 2.835938 -2.984375 3.109375 -2.484375 C 3.378906 -1.984375 3.75 -1.597656 4.21875 -1.328125 C 4.695312 -1.054688 5.234375 -0.921875 5.828125 -0.921875 Z M 5.828125 -0.921875 "/></g></g></g><g fill="#156669" fill-opacity="1"><g transform="translate(224.545504, 111.055626)"><g><path d="M 1.578125 -8.40625 L 2.71875 -8.40625 L 2.71875 0 L 1.578125 0 Z M 2.15625 -10.234375 C 1.925781 -10.234375 1.726562 -10.3125 1.5625 -10.46875 C 1.40625 -10.632812 1.328125 -10.828125 1.328125 -11.046875 C 1.328125 -11.265625 1.40625 -11.453125 1.5625 -11.609375 C 1.726562 -11.765625 1.925781 -11.84375 2.15625 -11.84375 C 2.394531 -11.84375 2.59375 -11.765625 2.75 -11.609375 C 2.914062 -11.460938 3 -11.28125 3 -11.0625 C 3 -10.832031 2.914062 -10.632812 2.75 -10.46875 C 2.59375 -10.3125 2.394531 -10.234375 2.15625 -10.234375 Z M 2.15625 -10.234375 "/></g></g></g><g fill="#156669" fill-opacity="1"><g transform="translate(228.201345, 111.055626)"><g><path d="M 1.578125 -11.84375 L 2.71875 -11.84375 L 2.71875 0 L 1.578125 0 Z M 1.578125 -11.84375 "/></g></g></g><g fill="#156669" fill-opacity="1"><g transform="translate(231.857186, 111.055626)"><g><path d="M 1.578125 -8.40625 L 2.71875 -8.40625 L 2.71875 0 L 1.578125 0 Z M 2.15625 -10.234375 C 1.925781 -10.234375 1.726562 -10.3125 1.5625 -10.46875 C 1.40625 -10.632812 1.328125 -10.828125 1.328125 -11.046875 C 1.328125 -11.265625 1.40625 -11.453125 1.5625 -11.609375 C 1.726562 -11.765625 1.925781 -11.84375 2.15625 -11.84375 C 2.394531 -11.84375 2.59375 -11.765625 2.75 -11.609375 C 2.914062 -11.460938 3 -11.28125 3 -11.0625 C 3 -10.832031 2.914062 -10.632812 2.75 -10.46875 C 2.59375 -10.3125 2.394531 -10.234375 2.15625 -10.234375 Z M 2.15625 -10.234375 "/></g></g></g><g fill="#156669" fill-opacity="1"><g transform="translate(235.513016, 111.055626)"><g><path d="M 6 -0.515625 C 5.789062 -0.316406 5.53125 -0.164062 5.21875 -0.0625 C 4.90625 0.03125 4.578125 0.078125 4.234375 0.078125 C 3.441406 0.078125 2.832031 -0.132812 2.40625 -0.5625 C 1.976562 -0.988281 1.765625 -1.585938 1.765625 -2.359375 L 1.765625 -7.4375 L 0.265625 -7.4375 L 0.265625 -8.40625 L 1.765625 -8.40625 L 1.765625 -10.234375 L 2.90625 -10.234375 L 2.90625 -8.40625 L 5.46875 -8.40625 L 5.46875 -7.4375 L 2.90625 -7.4375 L 2.90625 -2.421875 C 2.90625 -1.921875 3.03125 -1.539062 3.28125 -1.28125 C 3.53125 -1.019531 3.890625 -0.890625 4.359375 -0.890625 C 4.585938 -0.890625 4.8125 -0.925781 5.03125 -1 C 5.25 -1.082031 5.441406 -1.191406 5.609375 -1.328125 Z M 6 -0.515625 "/></g></g></g><g fill="#156669" fill-opacity="1"><g transform="translate(241.356056, 111.055626)"><g><path d="M 8.640625 -8.40625 L 4.4375 1 C 4.09375 1.789062 3.695312 2.347656 3.25 2.671875 C 2.8125 3.003906 2.273438 3.171875 1.640625 3.171875 C 1.234375 3.171875 0.851562 3.109375 0.5 2.984375 C 0.15625 2.859375 -0.144531 2.664062 -0.40625 2.40625 L 0.125 1.5625 C 0.550781 1.988281 1.0625 2.203125 1.65625 2.203125 C 2.039062 2.203125 2.367188 2.09375 2.640625 1.875 C 2.910156 1.664062 3.164062 1.304688 3.40625 0.796875 L 3.765625 -0.015625 L 0.015625 -8.40625 L 1.203125 -8.40625 L 4.359375 -1.265625 L 7.515625 -8.40625 Z M 8.640625 -8.40625 "/></g></g></g><g fill="#156669" fill-opacity="1"><g transform="translate(249.370341, 111.055626)"><g/></g></g><g fill="#156669" fill-opacity="1"><g transform="translate(252.914419, 111.055626)"><g><path d="M 6 -0.515625 C 5.789062 -0.316406 5.53125 -0.164062 5.21875 -0.0625 C 4.90625 0.03125 4.578125 0.078125 4.234375 0.078125 C 3.441406 0.078125 2.832031 -0.132812 2.40625 -0.5625 C 1.976562 -0.988281 1.765625 -1.585938 1.765625 -2.359375 L 1.765625 -7.4375 L 0.265625 -7.4375 L 0.265625 -8.40625 L 1.765625 -8.40625 L 1.765625 -10.234375 L 2.90625 -10.234375 L 2.90625 -8.40625 L 5.46875 -8.40625 L 5.46875 -7.4375 L 2.90625 -7.4375 L 2.90625 -2.421875 C 2.90625 -1.921875 3.03125 -1.539062 3.28125 -1.28125 C 3.53125 -1.019531 3.890625 -0.890625 4.359375 -0.890625 C 4.585938 -0.890625 4.8125 -0.925781 5.03125 -1 C 5.25 -1.082031 5.441406 -1.191406 5.609375 -1.328125 Z M 6 -0.515625 "/></g></g></g><g fill="#156669" fill-opacity="1"><g transform="translate(258.75746, 111.055626)"><g><path d="M 5.015625 0.078125 C 4.203125 0.078125 3.472656 -0.101562 2.828125 -0.46875 C 2.179688 -0.832031 1.671875 -1.335938 1.296875 -1.984375 C 0.921875 -2.640625 0.734375 -3.378906 0.734375 -4.203125 C 0.734375 -5.015625 0.921875 -5.742188 1.296875 -6.390625 C 1.671875 -7.046875 2.179688 -7.554688 2.828125 -7.921875 C 3.472656 -8.285156 4.203125 -8.46875 5.015625 -8.46875 C 5.828125 -8.46875 6.554688 -8.285156 7.203125 -7.921875 C 7.847656 -7.554688 8.351562 -7.046875 8.71875 -6.390625 C 9.09375 -5.742188 9.28125 -5.015625 9.28125 -4.203125 C 9.28125 -3.378906 9.09375 -2.640625 8.71875 -1.984375 C 8.351562 -1.335938 7.847656 -0.832031 7.203125 -0.46875 C 6.554688 -0.101562 5.828125 0.078125 5.015625 0.078125 Z M 5.015625 -0.921875 C 5.609375 -0.921875 6.140625 -1.054688 6.609375 -1.328125 C 7.085938 -1.597656 7.457031 -1.984375 7.71875 -2.484375 C 7.988281 -2.984375 8.125 -3.554688 8.125 -4.203125 C 8.125 -4.835938 7.988281 -5.40625 7.71875 -5.90625 C 7.457031 -6.40625 7.085938 -6.789062 6.609375 -7.0625 C 6.140625 -7.332031 5.609375 -7.46875 5.015625 -7.46875 C 4.421875 -7.46875 3.882812 -7.332031 3.40625 -7.0625 C 2.9375 -6.789062 2.566406 -6.40625 2.296875 -5.90625 C 2.023438 -5.40625 1.890625 -4.835938 1.890625 -4.203125 C 1.890625 -3.554688 2.023438 -2.984375 2.296875 -2.484375 C 2.566406 -1.984375 2.9375 -1.597656 3.40625 -1.328125 C 3.882812 -1.054688 4.421875 -0.921875 5.015625 -0.921875 Z M 5.015625 -0.921875 "/></g></g></g><g fill="#156669" fill-opacity="1"><g transform="translate(268.128771, 111.055626)"><g><path d="M 5.015625 0.078125 C 4.203125 0.078125 3.472656 -0.101562 2.828125 -0.46875 C 2.179688 -0.832031 1.671875 -1.335938 1.296875 -1.984375 C 0.921875 -2.640625 0.734375 -3.378906 0.734375 -4.203125 C 0.734375 -5.015625 0.921875 -5.742188 1.296875 -6.390625 C 1.671875 -7.046875 2.179688 -7.554688 2.828125 -7.921875 C 3.472656 -8.285156 4.203125 -8.46875 5.015625 -8.46875 C 5.828125 -8.46875 6.554688 -8.285156 7.203125 -7.921875 C 7.847656 -7.554688 8.351562 -7.046875 8.71875 -6.390625 C 9.09375 -5.742188 9.28125 -5.015625 9.28125 -4.203125 C 9.28125 -3.378906 9.09375 -2.640625 8.71875 -1.984375 C 8.351562 -1.335938 7.847656 -0.832031 7.203125 -0.46875 C 6.554688 -0.101562 5.828125 0.078125 5.015625 0.078125 Z M 5.015625 -0.921875 C 5.609375 -0.921875 6.140625 -1.054688 6.609375 -1.328125 C 7.085938 -1.597656 7.457031 -1.984375 7.71875 -2.484375 C 7.988281 -2.984375 8.125 -3.554688 8.125 -4.203125 C 8.125 -4.835938 7.988281 -5.40625 7.71875 -5.90625 C 7.457031 -6.40625 7.085938 -6.789062 6.609375 -7.0625 C 6.140625 -7.332031 5.609375 -7.46875 5.015625 -7.46875 C 4.421875 -7.46875 3.882812 -7.332031 3.40625 -7.0625 C 2.9375 -6.789062 2.566406 -6.40625 2.296875 -5.90625 C 2.023438 -5.40625 1.890625 -4.835938 1.890625 -4.203125 C 1.890625 -3.554688 2.023438 -2.984375 2.296875 -2.484375 C 2.566406 -1.984375 2.9375 -1.597656 3.40625 -1.328125 C 3.882812 -1.054688 4.421875 -0.921875 5.015625 -0.921875 Z M 5.015625 -0.921875 "/></g></g></g><g fill="#156669" fill-opacity="1"><g transform="translate(277.500083, 111.055626)"><g><path d="M 1.578125 -11.84375 L 2.71875 -11.84375 L 2.71875 0 L 1.578125 0 Z M 1.578125 -11.84375 "/></g></g></g><g fill="#156669" fill-opacity="1"><g transform="translate(281.155912, 111.055626)"><g/></g></g><g fill="#156669" fill-opacity="1"><g transform="translate(284.699991, 111.055626)"><g><path d="M 6 -0.515625 C 5.789062 -0.316406 5.53125 -0.164062 5.21875 -0.0625 C 4.90625 0.03125 4.578125 0.078125 4.234375 0.078125 C 3.441406 0.078125 2.832031 -0.132812 2.40625 -0.5625 C 1.976562 -0.988281 1.765625 -1.585938 1.765625 -2.359375 L 1.765625 -7.4375 L 0.265625 -7.4375 L 0.265625 -8.40625 L 1.765625 -8.40625 L 1.765625 -10.234375 L 2.90625 -10.234375 L 2.90625 -8.40625 L 5.46875 -8.40625 L 5.46875 -7.4375 L 2.90625 -7.4375 L 2.90625 -2.421875 C 2.90625 -1.921875 3.03125 -1.539062 3.28125 -1.28125 C 3.53125 -1.019531 3.890625 -0.890625 4.359375 -0.890625 C 4.585938 -0.890625 4.8125 -0.925781 5.03125 -1 C 5.25 -1.082031 5.441406 -1.191406 5.609375 -1.328125 Z M 6 -0.515625 "/></g></g></g><g fill="#156669" fill-opacity="1"><g transform="translate(290.543032, 111.055626)"><g><path d="M 5.015625 0.078125 C 4.203125 0.078125 3.472656 -0.101562 2.828125 -0.46875 C 2.179688 -0.832031 1.671875 -1.335938 1.296875 -1.984375 C 0.921875 -2.640625 0.734375 -3.378906 0.734375 -4.203125 C 0.734375 -5.015625 0.921875 -5.742188 1.296875 -6.390625 C 1.671875 -7.046875 2.179688 -7.554688 2.828125 -7.921875 C 3.472656 -8.285156 4.203125 -8.46875 5.015625 -8.46875 C 5.828125 -8.46875 6.554688 -8.285156 7.203125 -7.921875 C 7.847656 -7.554688 8.351562 -7.046875 8.71875 -6.390625 C 9.09375 -5.742188 9.28125 -5.015625 9.28125 -4.203125 C 9.28125 -3.378906 9.09375 -2.640625 8.71875 -1.984375 C 8.351562 -1.335938 7.847656 -0.832031 7.203125 -0.46875 C 6.554688 -0.101562 5.828125 0.078125 5.015625 0.078125 Z M 5.015625 -0.921875 C 5.609375 -0.921875 6.140625 -1.054688 6.609375 -1.328125 C 7.085938 -1.597656 7.457031 -1.984375 7.71875 -2.484375 C 7.988281 -2.984375 8.125 -3.554688 8.125 -4.203125 C 8.125 -4.835938 7.988281 -5.40625 7.71875 -5.90625 C 7.457031 -6.40625 7.085938 -6.789062 6.609375 -7.0625 C 6.140625 -7.332031 5.609375 -7.46875 5.015625 -7.46875 C 4.421875 -7.46875 3.882812 -7.332031 3.40625 -7.0625 C 2.9375 -6.789062 2.566406 -6.40625 2.296875 -5.90625 C 2.023438 -5.40625 1.890625 -4.835938 1.890625 -4.203125 C 1.890625 -3.554688 2.023438 -2.984375 2.296875 -2.484375 C 2.566406 -1.984375 2.9375 -1.597656 3.40625 -1.328125 C 3.882812 -1.054688 4.421875 -0.921875 5.015625 -0.921875 Z M 5.015625 -0.921875 "/></g></g></g><g fill="#156669" fill-opacity="1"><g transform="translate(38.396875, 135.008932)"><g><path d="M 4.6875 -4.21875 L 2.71875 -2.390625 L 2.71875 0 L 1.578125 0 L 1.578125 -11.84375 L 2.71875 -11.84375 L 2.71875 -3.8125 L 7.734375 -8.40625 L 9.140625 -8.40625 L 5.546875 -4.96875 L 9.46875 0 L 8.078125 0 Z M 4.6875 -4.21875 "/></g></g></g><g fill="#156669" fill-opacity="1"><g transform="translate(47.353103, 135.008932)"><g><path d="M 8.890625 -3.84375 L 1.875 -3.84375 C 1.9375 -2.96875 2.269531 -2.257812 2.875 -1.71875 C 3.476562 -1.1875 4.242188 -0.921875 5.171875 -0.921875 C 5.691406 -0.921875 6.171875 -1.015625 6.609375 -1.203125 C 7.046875 -1.390625 7.425781 -1.664062 7.75 -2.03125 L 8.390625 -1.296875 C 8.015625 -0.847656 7.546875 -0.503906 6.984375 -0.265625 C 6.421875 -0.0351562 5.804688 0.078125 5.140625 0.078125 C 4.273438 0.078125 3.507812 -0.101562 2.84375 -0.46875 C 2.1875 -0.832031 1.671875 -1.335938 1.296875 -1.984375 C 0.921875 -2.640625 0.734375 -3.378906 0.734375 -4.203125 C 0.734375 -5.015625 0.910156 -5.742188 1.265625 -6.390625 C 1.617188 -7.046875 2.109375 -7.554688 2.734375 -7.921875 C 3.359375 -8.285156 4.0625 -8.46875 4.84375 -8.46875 C 5.613281 -8.46875 6.304688 -8.285156 6.921875 -7.921875 C 7.546875 -7.554688 8.03125 -7.050781 8.375 -6.40625 C 8.726562 -5.769531 8.90625 -5.035156 8.90625 -4.203125 Z M 4.84375 -7.484375 C 4.03125 -7.484375 3.347656 -7.222656 2.796875 -6.703125 C 2.253906 -6.191406 1.945312 -5.519531 1.875 -4.6875 L 7.828125 -4.6875 C 7.753906 -5.519531 7.441406 -6.191406 6.890625 -6.703125 C 6.335938 -7.222656 5.65625 -7.484375 4.84375 -7.484375 Z M 4.84375 -7.484375 "/></g></g></g><g fill="#156669" fill-opacity="1"><g transform="translate(56.357222, 135.008932)"><g><path d="M 8.890625 -3.84375 L 1.875 -3.84375 C 1.9375 -2.96875 2.269531 -2.257812 2.875 -1.71875 C 3.476562 -1.1875 4.242188 -0.921875 5.171875 -0.921875 C 5.691406 -0.921875 6.171875 -1.015625 6.609375 -1.203125 C 7.046875 -1.390625 7.425781 -1.664062 7.75 -2.03125 L 8.390625 -1.296875 C 8.015625 -0.847656 7.546875 -0.503906 6.984375 -0.265625 C 6.421875 -0.0351562 5.804688 0.078125 5.140625 0.078125 C 4.273438 0.078125 3.507812 -0.101562 2.84375 -0.46875 C 2.1875 -0.832031 1.671875 -1.335938 1.296875 -1.984375 C 0.921875 -2.640625 0.734375 -3.378906 0.734375 -4.203125 C 0.734375 -5.015625 0.910156 -5.742188 1.265625 -6.390625 C 1.617188 -7.046875 2.109375 -7.554688 2.734375 -7.921875 C 3.359375 -8.285156 4.0625 -8.46875 4.84375 -8.46875 C 5.613281 -8.46875 6.304688 -8.285156 6.921875 -7.921875 C 7.546875 -7.554688 8.03125 -7.050781 8.375 -6.40625 C 8.726562 -5.769531 8.90625 -5.035156 8.90625 -4.203125 Z M 4.84375 -7.484375 C 4.03125 -7.484375 3.347656 -7.222656 2.796875 -6.703125 C 2.253906 -6.191406 1.945312 -5.519531 1.875 -4.6875 L 7.828125 -4.6875 C 7.753906 -5.519531 7.441406 -6.191406 6.890625 -6.703125 C 6.335938 -7.222656 5.65625 -7.484375 4.84375 -7.484375 Z M 4.84375 -7.484375 "/></g></g></g><g fill="#156669" fill-opacity="1"><g transform="translate(65.361342, 135.008932)"><g><path d="M 5.90625 -8.46875 C 6.695312 -8.46875 7.410156 -8.285156 8.046875 -7.921875 C 8.679688 -7.566406 9.179688 -7.066406 9.546875 -6.421875 C 9.910156 -5.773438 10.09375 -5.035156 10.09375 -4.203125 C 10.09375 -3.359375 9.910156 -2.609375 9.546875 -1.953125 C 9.179688 -1.304688 8.679688 -0.804688 8.046875 -0.453125 C 7.421875 -0.0976562 6.707031 0.078125 5.90625 0.078125 C 5.226562 0.078125 4.613281 -0.0625 4.0625 -0.34375 C 3.507812 -0.625 3.0625 -1.035156 2.71875 -1.578125 L 2.71875 3.09375 L 1.578125 3.09375 L 1.578125 -8.40625 L 2.671875 -8.40625 L 2.671875 -6.734375 C 3.003906 -7.285156 3.453125 -7.710938 4.015625 -8.015625 C 4.578125 -8.316406 5.207031 -8.46875 5.90625 -8.46875 Z M 5.828125 -0.921875 C 6.410156 -0.921875 6.941406 -1.054688 7.421875 -1.328125 C 7.898438 -1.597656 8.273438 -1.984375 8.546875 -2.484375 C 8.816406 -2.984375 8.953125 -3.554688 8.953125 -4.203125 C 8.953125 -4.835938 8.816406 -5.398438 8.546875 -5.890625 C 8.273438 -6.390625 7.898438 -6.773438 7.421875 -7.046875 C 6.941406 -7.328125 6.410156 -7.46875 5.828125 -7.46875 C 5.234375 -7.46875 4.695312 -7.328125 4.21875 -7.046875 C 3.75 -6.773438 3.378906 -6.390625 3.109375 -5.890625 C 2.835938 -5.398438 2.703125 -4.835938 2.703125 -4.203125 C 2.703125 -3.554688 2.835938 -2.984375 3.109375 -2.484375 C 3.378906 -1.984375 3.75 -1.597656 4.21875 -1.328125 C 4.695312 -1.054688 5.234375 -0.921875 5.828125 -0.921875 Z M 5.828125 -0.921875 "/></g></g></g><g fill="#156669" fill-opacity="1"><g transform="translate(75.546878, 135.008932)"><g/></g></g><g fill="#156669" fill-opacity="1"><g transform="translate(79.090965, 135.008932)"><g><path d="M 8.640625 -8.40625 L 4.4375 1 C 4.09375 1.789062 3.695312 2.347656 3.25 2.671875 C 2.8125 3.003906 2.273438 3.171875 1.640625 3.171875 C 1.234375 3.171875 0.851562 3.109375 0.5 2.984375 C 0.15625 2.859375 -0.144531 2.664062 -0.40625 2.40625 L 0.125 1.5625 C 0.550781 1.988281 1.0625 2.203125 1.65625 2.203125 C 2.039062 2.203125 2.367188 2.09375 2.640625 1.875 C 2.910156 1.664062 3.164062 1.304688 3.40625 0.796875 L 3.765625 -0.015625 L 0.015625 -8.40625 L 1.203125 -8.40625 L 4.359375 -1.265625 L 7.515625 -8.40625 Z M 8.640625 -8.40625 "/></g></g></g><g fill="#156669" fill-opacity="1"><g transform="translate(87.105258, 135.008932)"><g><path d="M 5.015625 0.078125 C 4.203125 0.078125 3.472656 -0.101562 2.828125 -0.46875 C 2.179688 -0.832031 1.671875 -1.335938 1.296875 -1.984375 C 0.921875 -2.640625 0.734375 -3.378906 0.734375 -4.203125 C 0.734375 -5.015625 0.921875 -5.742188 1.296875 -6.390625 C 1.671875 -7.046875 2.179688 -7.554688 2.828125 -7.921875 C 3.472656 -8.285156 4.203125 -8.46875 5.015625 -8.46875 C 5.828125 -8.46875 6.554688 -8.285156 7.203125 -7.921875 C 7.847656 -7.554688 8.351562 -7.046875 8.71875 -6.390625 C 9.09375 -5.742188 9.28125 -5.015625 9.28125 -4.203125 C 9.28125 -3.378906 9.09375 -2.640625 8.71875 -1.984375 C 8.351562 -1.335938 7.847656 -0.832031 7.203125 -0.46875 C 6.554688 -0.101562 5.828125 0.078125 5.015625 0.078125 Z M 5.015625 -0.921875 C 5.609375 -0.921875 6.140625 -1.054688 6.609375 -1.328125 C 7.085938 -1.597656 7.457031 -1.984375 7.71875 -2.484375 C 7.988281 -2.984375 8.125 -3.554688 8.125 -4.203125 C 8.125 -4.835938 7.988281 -5.40625 7.71875 -5.90625 C 7.457031 -6.40625 7.085938 -6.789062 6.609375 -7.0625 C 6.140625 -7.332031 5.609375 -7.46875 5.015625 -7.46875 C 4.421875 -7.46875 3.882812 -7.332031 3.40625 -7.0625 C 2.9375 -6.789062 2.566406 -6.40625 2.296875 -5.90625 C 2.023438 -5.40625 1.890625 -4.835938 1.890625 -4.203125 C 1.890625 -3.554688 2.023438 -2.984375 2.296875 -2.484375 C 2.566406 -1.984375 2.9375 -1.597656 3.40625 -1.328125 C 3.882812 -1.054688 4.421875 -0.921875 5.015625 -0.921875 Z M 5.015625 -0.921875 "/></g></g></g><g fill="#156669" fill-opacity="1"><g transform="translate(96.476575, 135.008932)"><g><path d="M 9.15625 -8.40625 L 9.15625 0 L 8.0625 0 L 8.0625 -1.53125 C 7.757812 -1.019531 7.347656 -0.625 6.828125 -0.34375 C 6.304688 -0.0625 5.710938 0.078125 5.046875 0.078125 C 3.953125 0.078125 3.085938 -0.222656 2.453125 -0.828125 C 1.816406 -1.441406 1.5 -2.34375 1.5 -3.53125 L 1.5 -8.40625 L 2.640625 -8.40625 L 2.640625 -3.640625 C 2.640625 -2.753906 2.851562 -2.082031 3.28125 -1.625 C 3.71875 -1.164062 4.34375 -0.9375 5.15625 -0.9375 C 6.039062 -0.9375 6.738281 -1.207031 7.25 -1.75 C 7.757812 -2.289062 8.015625 -3.039062 8.015625 -4 L 8.015625 -8.40625 Z M 9.15625 -8.40625 "/></g></g></g><g fill="#156669" fill-opacity="1"><g transform="translate(106.582287, 135.008932)"><g/></g></g><g fill="#156669" fill-opacity="1"><g transform="translate(110.126377, 135.008932)"><g><path d="M 3.828125 0.078125 C 3.148438 0.078125 2.5 -0.0195312 1.875 -0.21875 C 1.25 -0.414062 0.765625 -0.660156 0.421875 -0.953125 L 0.921875 -1.859375 C 1.273438 -1.578125 1.71875 -1.347656 2.25 -1.171875 C 2.78125 -0.992188 3.332031 -0.90625 3.90625 -0.90625 C 4.675781 -0.90625 5.242188 -1.023438 5.609375 -1.265625 C 5.972656 -1.503906 6.15625 -1.84375 6.15625 -2.28125 C 6.15625 -2.59375 6.054688 -2.835938 5.859375 -3.015625 C 5.660156 -3.191406 5.40625 -3.320312 5.09375 -3.40625 C 4.78125 -3.5 4.367188 -3.585938 3.859375 -3.671875 C 3.179688 -3.796875 2.632812 -3.925781 2.21875 -4.0625 C 1.800781 -4.195312 1.445312 -4.421875 1.15625 -4.734375 C 0.863281 -5.054688 0.71875 -5.5 0.71875 -6.0625 C 0.71875 -6.769531 1.007812 -7.347656 1.59375 -7.796875 C 2.175781 -8.242188 2.992188 -8.46875 4.046875 -8.46875 C 4.585938 -8.46875 5.128906 -8.394531 5.671875 -8.25 C 6.210938 -8.101562 6.660156 -7.914062 7.015625 -7.6875 L 6.515625 -6.765625 C 5.828125 -7.242188 5.003906 -7.484375 4.046875 -7.484375 C 3.316406 -7.484375 2.769531 -7.351562 2.40625 -7.09375 C 2.039062 -6.84375 1.859375 -6.507812 1.859375 -6.09375 C 1.859375 -5.78125 1.957031 -5.523438 2.15625 -5.328125 C 2.363281 -5.140625 2.625 -5 2.9375 -4.90625 C 3.25 -4.820312 3.675781 -4.726562 4.21875 -4.625 C 4.882812 -4.5 5.421875 -4.375 5.828125 -4.25 C 6.234375 -4.125 6.578125 -3.90625 6.859375 -3.59375 C 7.148438 -3.28125 7.296875 -2.851562 7.296875 -2.3125 C 7.296875 -1.582031 6.988281 -1 6.375 -0.5625 C 5.769531 -0.132812 4.921875 0.078125 3.828125 0.078125 Z M 3.828125 0.078125 "/></g></g></g><g fill="#156669" fill-opacity="1"><g transform="translate(117.294521, 135.008932)"><g><path d="M 6 -0.515625 C 5.789062 -0.316406 5.53125 -0.164062 5.21875 -0.0625 C 4.90625 0.03125 4.578125 0.078125 4.234375 0.078125 C 3.441406 0.078125 2.832031 -0.132812 2.40625 -0.5625 C 1.976562 -0.988281 1.765625 -1.585938 1.765625 -2.359375 L 1.765625 -7.4375 L 0.265625 -7.4375 L 0.265625 -8.40625 L 1.765625 -8.40625 L 1.765625 -10.234375 L 2.90625 -10.234375 L 2.90625 -8.40625 L 5.46875 -8.40625 L 5.46875 -7.4375 L 2.90625 -7.4375 L 2.90625 -2.421875 C 2.90625 -1.921875 3.03125 -1.539062 3.28125 -1.28125 C 3.53125 -1.019531 3.890625 -0.890625 4.359375 -0.890625 C 4.585938 -0.890625 4.8125 -0.925781 5.03125 -1 C 5.25 -1.082031 5.441406 -1.191406 5.609375 -1.328125 Z M 6 -0.515625 "/></g></g></g><g fill="#156669" fill-opacity="1"><g transform="translate(123.137573, 135.008932)"><g><path d="M 9.15625 -8.40625 L 9.15625 0 L 8.0625 0 L 8.0625 -1.53125 C 7.757812 -1.019531 7.347656 -0.625 6.828125 -0.34375 C 6.304688 -0.0625 5.710938 0.078125 5.046875 0.078125 C 3.953125 0.078125 3.085938 -0.222656 2.453125 -0.828125 C 1.816406 -1.441406 1.5 -2.34375 1.5 -3.53125 L 1.5 -8.40625 L 2.640625 -8.40625 L 2.640625 -3.640625 C 2.640625 -2.753906 2.851562 -2.082031 3.28125 -1.625 C 3.71875 -1.164062 4.34375 -0.9375 5.15625 -0.9375 C 6.039062 -0.9375 6.738281 -1.207031 7.25 -1.75 C 7.757812 -2.289062 8.015625 -3.039062 8.015625 -4 L 8.015625 -8.40625 Z M 9.15625 -8.40625 "/></g></g></g><g fill="#156669" fill-opacity="1"><g transform="translate(133.243285, 135.008932)"><g><path d="M 9.25 -11.84375 L 9.25 0 L 8.15625 0 L 8.15625 -1.65625 C 7.820312 -1.09375 7.375 -0.660156 6.8125 -0.359375 C 6.25 -0.0664062 5.617188 0.078125 4.921875 0.078125 C 4.128906 0.078125 3.414062 -0.0976562 2.78125 -0.453125 C 2.144531 -0.816406 1.644531 -1.320312 1.28125 -1.96875 C 0.914062 -2.625 0.734375 -3.367188 0.734375 -4.203125 C 0.734375 -5.035156 0.914062 -5.773438 1.28125 -6.421875 C 1.644531 -7.066406 2.144531 -7.566406 2.78125 -7.921875 C 3.414062 -8.285156 4.128906 -8.46875 4.921875 -8.46875 C 5.597656 -8.46875 6.207031 -8.320312 6.75 -8.03125 C 7.300781 -7.75 7.753906 -7.335938 8.109375 -6.796875 L 8.109375 -11.84375 Z M 5.015625 -0.921875 C 5.597656 -0.921875 6.125 -1.054688 6.59375 -1.328125 C 7.070312 -1.597656 7.445312 -1.984375 7.71875 -2.484375 C 7.988281 -2.984375 8.125 -3.554688 8.125 -4.203125 C 8.125 -4.835938 7.988281 -5.40625 7.71875 -5.90625 C 7.445312 -6.40625 7.070312 -6.789062 6.59375 -7.0625 C 6.125 -7.332031 5.597656 -7.46875 5.015625 -7.46875 C 4.421875 -7.46875 3.882812 -7.332031 3.40625 -7.0625 C 2.9375 -6.789062 2.566406 -6.40625 2.296875 -5.90625 C 2.023438 -5.40625 1.890625 -4.835938 1.890625 -4.203125 C 1.890625 -3.554688 2.023438 -2.984375 2.296875 -2.484375 C 2.566406 -1.984375 2.9375 -1.597656 3.40625 -1.328125 C 3.882812 -1.054688 4.421875 -0.921875 5.015625 -0.921875 Z M 5.015625 -0.921875 "/></g></g></g><g fill="#156669" fill-opacity="1"><g transform="translate(143.428825, 135.008932)"><g><path d="M 8.640625 -8.40625 L 4.4375 1 C 4.09375 1.789062 3.695312 2.347656 3.25 2.671875 C 2.8125 3.003906 2.273438 3.171875 1.640625 3.171875 C 1.234375 3.171875 0.851562 3.109375 0.5 2.984375 C 0.15625 2.859375 -0.144531 2.664062 -0.40625 2.40625 L 0.125 1.5625 C 0.550781 1.988281 1.0625 2.203125 1.65625 2.203125 C 2.039062 2.203125 2.367188 2.09375 2.640625 1.875 C 2.910156 1.664062 3.164062 1.304688 3.40625 0.796875 L 3.765625 -0.015625 L 0.015625 -8.40625 L 1.203125 -8.40625 L 4.359375 -1.265625 L 7.515625 -8.40625 Z M 8.640625 -8.40625 "/></g></g></g><g fill="#156669" fill-opacity="1"><g transform="translate(151.44312, 135.008932)"><g><path d="M 1.578125 -8.40625 L 2.71875 -8.40625 L 2.71875 0 L 1.578125 0 Z M 2.15625 -10.234375 C 1.925781 -10.234375 1.726562 -10.3125 1.5625 -10.46875 C 1.40625 -10.632812 1.328125 -10.828125 1.328125 -11.046875 C 1.328125 -11.265625 1.40625 -11.453125 1.5625 -11.609375 C 1.726562 -11.765625 1.925781 -11.84375 2.15625 -11.84375 C 2.394531 -11.84375 2.59375 -11.765625 2.75 -11.609375 C 2.914062 -11.460938 3 -11.28125 3 -11.0625 C 3 -10.832031 2.914062 -10.632812 2.75 -10.46875 C 2.59375 -10.3125 2.394531 -10.234375 2.15625 -10.234375 Z M 2.15625 -10.234375 "/></g></g></g><g fill="#156669" fill-opacity="1"><g transform="translate(155.098961, 135.008932)"><g><path d="M 5.859375 -8.46875 C 6.910156 -8.46875 7.75 -8.160156 8.375 -7.546875 C 9 -6.929688 9.3125 -6.039062 9.3125 -4.875 L 9.3125 0 L 8.171875 0 L 8.171875 -4.765625 C 8.171875 -5.628906 7.953125 -6.289062 7.515625 -6.75 C 7.078125 -7.207031 6.457031 -7.4375 5.65625 -7.4375 C 4.75 -7.4375 4.03125 -7.164062 3.5 -6.625 C 2.976562 -6.09375 2.71875 -5.351562 2.71875 -4.40625 L 2.71875 0 L 1.578125 0 L 1.578125 -8.40625 L 2.671875 -8.40625 L 2.671875 -6.84375 C 2.972656 -7.351562 3.398438 -7.75 3.953125 -8.03125 C 4.503906 -8.320312 5.140625 -8.46875 5.859375 -8.46875 Z M 5.859375 -8.46875 "/></g></g></g><g fill="#156669" fill-opacity="1"><g transform="translate(165.268533, 135.008932)"><g><path d="M 9.359375 -8.40625 L 9.359375 -1.015625 C 9.359375 0.410156 9.007812 1.460938 8.3125 2.140625 C 7.613281 2.828125 6.5625 3.171875 5.15625 3.171875 C 4.382812 3.171875 3.648438 3.054688 2.953125 2.828125 C 2.253906 2.597656 1.6875 2.285156 1.25 1.890625 L 1.828125 1.015625 C 2.222656 1.378906 2.710938 1.660156 3.296875 1.859375 C 3.878906 2.066406 4.488281 2.171875 5.125 2.171875 C 6.1875 2.171875 6.96875 1.921875 7.46875 1.421875 C 7.96875 0.929688 8.21875 0.164062 8.21875 -0.875 L 8.21875 -1.953125 C 7.875 -1.421875 7.414062 -1.015625 6.84375 -0.734375 C 6.269531 -0.453125 5.640625 -0.3125 4.953125 -0.3125 C 4.160156 -0.3125 3.441406 -0.484375 2.796875 -0.828125 C 2.160156 -1.179688 1.65625 -1.664062 1.28125 -2.28125 C 0.914062 -2.90625 0.734375 -3.613281 0.734375 -4.40625 C 0.734375 -5.195312 0.914062 -5.898438 1.28125 -6.515625 C 1.65625 -7.128906 2.160156 -7.609375 2.796875 -7.953125 C 3.429688 -8.296875 4.148438 -8.46875 4.953125 -8.46875 C 5.660156 -8.46875 6.300781 -8.320312 6.875 -8.03125 C 7.457031 -7.738281 7.921875 -7.320312 8.265625 -6.78125 L 8.265625 -8.40625 Z M 5.0625 -1.328125 C 5.664062 -1.328125 6.210938 -1.457031 6.703125 -1.71875 C 7.191406 -1.976562 7.570312 -2.34375 7.84375 -2.8125 C 8.113281 -3.28125 8.25 -3.8125 8.25 -4.40625 C 8.25 -5 8.113281 -5.523438 7.84375 -5.984375 C 7.570312 -6.453125 7.191406 -6.816406 6.703125 -7.078125 C 6.222656 -7.335938 5.675781 -7.46875 5.0625 -7.46875 C 4.457031 -7.46875 3.910156 -7.335938 3.421875 -7.078125 C 2.941406 -6.828125 2.566406 -6.46875 2.296875 -6 C 2.023438 -5.53125 1.890625 -5 1.890625 -4.40625 C 1.890625 -3.8125 2.023438 -3.28125 2.296875 -2.8125 C 2.566406 -2.34375 2.941406 -1.976562 3.421875 -1.71875 C 3.910156 -1.457031 4.457031 -1.328125 5.0625 -1.328125 Z M 5.0625 -1.328125 "/></g></g></g><g fill="#156669" fill-opacity="1"><g transform="translate(38.655984, 74.780638)"><g><path d="M 18.53125 -18.390625 C 18.59375 -18.023438 18.601562 -17.722656 18.5625 -17.484375 C 18.519531 -17.242188 18.363281 -17.078125 18.09375 -16.984375 C 17.8125 -16.898438 17.5625 -16.941406 17.34375 -17.109375 C 17.125 -17.285156 16.894531 -17.582031 16.65625 -18 C 16.070312 -19.019531 15.410156 -19.789062 14.671875 -20.3125 C 13.929688 -20.84375 12.992188 -21.109375 11.859375 -21.109375 L 10.359375 -21.109375 C 9.398438 -21.109375 8.679688 -21.050781 8.203125 -20.9375 C 7.722656 -20.832031 7.40625 -20.671875 7.25 -20.453125 C 7.101562 -20.234375 7.03125 -19.941406 7.03125 -19.578125 L 7.03125 -15.6875 C 7.03125 -14.945312 7.234375 -14.492188 7.640625 -14.328125 C 8.054688 -14.160156 8.625 -14.078125 9.34375 -14.078125 L 10.15625 -14.078125 C 10.914062 -14.078125 11.492188 -14.128906 11.890625 -14.234375 C 12.285156 -14.347656 12.578125 -14.472656 12.765625 -14.609375 C 12.960938 -14.753906 13.125 -14.878906 13.25 -14.984375 C 13.382812 -15.097656 13.585938 -15.15625 13.859375 -15.15625 C 14.117188 -15.15625 14.3125 -15.066406 14.4375 -14.890625 C 14.570312 -14.722656 14.679688 -14.472656 14.765625 -14.140625 L 15.484375 -10.90625 C 15.617188 -10.300781 15.648438 -9.894531 15.578125 -9.6875 C 15.515625 -9.476562 15.34375 -9.34375 15.0625 -9.28125 C 14.707031 -9.1875 14.410156 -9.285156 14.171875 -9.578125 C 13.929688 -9.878906 13.660156 -10.238281 13.359375 -10.65625 C 13.054688 -11.082031 12.660156 -11.460938 12.171875 -11.796875 C 11.679688 -12.140625 11.007812 -12.3125 10.15625 -12.3125 L 9.34375 -12.3125 C 8.625 -12.3125 8.054688 -12.234375 7.640625 -12.078125 C 7.234375 -11.929688 7.03125 -11.476562 7.03125 -10.71875 L 7.03125 -5.09375 C 7.03125 -4.132812 7.125 -3.429688 7.3125 -2.984375 C 7.507812 -2.535156 7.742188 -2.21875 8.015625 -2.03125 C 8.285156 -1.851562 8.519531 -1.6875 8.71875 -1.53125 C 8.914062 -1.382812 9.015625 -1.132812 9.015625 -0.78125 C 9.015625 -0.5 8.882812 -0.296875 8.625 -0.171875 C 8.363281 -0.0546875 7.914062 0 7.28125 0 L 2.90625 0 C 1.75 0 1.171875 -0.257812 1.171875 -0.78125 C 1.171875 -1.132812 1.273438 -1.382812 1.484375 -1.53125 C 1.691406 -1.6875 1.929688 -1.851562 2.203125 -2.03125 C 2.472656 -2.21875 2.710938 -2.535156 2.921875 -2.984375 C 3.128906 -3.429688 3.234375 -4.132812 3.234375 -5.09375 L 3.234375 -17.875 C 3.234375 -18.851562 3.128906 -19.5625 2.921875 -20 C 2.710938 -20.4375 2.472656 -20.734375 2.203125 -20.890625 C 1.929688 -21.054688 1.691406 -21.203125 1.484375 -21.328125 C 1.273438 -21.460938 1.171875 -21.71875 1.171875 -22.09375 C 1.171875 -22.414062 1.304688 -22.625 1.578125 -22.71875 C 1.859375 -22.820312 2.300781 -22.875 2.90625 -22.875 L 15.15625 -22.90625 C 16.09375 -22.90625 16.710938 -22.832031 17.015625 -22.6875 C 17.328125 -22.550781 17.554688 -22.265625 17.703125 -21.828125 C 17.859375 -21.390625 18.007812 -20.882812 18.15625 -20.3125 C 18.3125 -19.75 18.4375 -19.109375 18.53125 -18.390625 Z M 18.53125 -18.390625 "/></g></g></g><g fill="#156669" fill-opacity="1"><g transform="translate(56.888453, 74.780638)"><g><path d="M 8.78125 0.328125 C 7.320312 0.328125 6.015625 0.0195312 4.859375 -0.59375 C 3.710938 -1.21875 2.800781 -2.097656 2.125 -3.234375 C 1.445312 -4.367188 1.109375 -5.707031 1.109375 -7.25 C 1.109375 -8.882812 1.488281 -10.363281 2.25 -11.6875 C 3.007812 -13.019531 4.054688 -14.070312 5.390625 -14.84375 C 6.722656 -15.625 8.238281 -16.015625 9.9375 -16.015625 C 11.414062 -16.015625 12.71875 -15.671875 13.84375 -14.984375 C 14.976562 -14.296875 15.867188 -13.367188 16.515625 -12.203125 C 17.160156 -11.035156 17.484375 -9.722656 17.484375 -8.265625 C 17.484375 -6.648438 17.109375 -5.1875 16.359375 -3.875 C 15.617188 -2.570312 14.597656 -1.546875 13.296875 -0.796875 C 11.992188 -0.046875 10.488281 0.328125 8.78125 0.328125 Z M 10 -1.53125 C 11.257812 -1.53125 12.21875 -1.992188 12.875 -2.921875 C 13.53125 -3.847656 13.859375 -4.988281 13.859375 -6.34375 C 13.859375 -7.644531 13.632812 -8.890625 13.1875 -10.078125 C 12.738281 -11.265625 12.117188 -12.234375 11.328125 -12.984375 C 10.546875 -13.734375 9.644531 -14.109375 8.625 -14.109375 C 7.75 -14.109375 7.03125 -13.878906 6.46875 -13.421875 C 5.90625 -12.960938 5.476562 -12.351562 5.1875 -11.59375 C 4.90625 -10.832031 4.765625 -9.992188 4.765625 -9.078125 C 4.765625 -7.734375 4.988281 -6.488281 5.4375 -5.34375 C 5.882812 -4.195312 6.5 -3.273438 7.28125 -2.578125 C 8.070312 -1.878906 8.976562 -1.53125 10 -1.53125 Z M 10 -1.53125 "/></g></g></g><g fill="#156669" fill-opacity="1"><g transform="translate(74.892201, 74.780638)"><g><path d="M 8.859375 0.328125 C 7.265625 0.328125 5.882812 -0.0195312 4.71875 -0.71875 C 3.550781 -1.414062 2.65625 -2.347656 2.03125 -3.515625 C 1.414062 -4.679688 1.109375 -5.945312 1.109375 -7.3125 C 1.109375 -8.96875 1.484375 -10.445312 2.234375 -11.75 C 2.984375 -13.0625 3.992188 -14.09375 5.265625 -14.84375 C 6.546875 -15.601562 7.957031 -15.984375 9.5 -15.984375 C 10.851562 -15.984375 12.015625 -15.722656 12.984375 -15.203125 C 13.953125 -14.691406 14.691406 -14.023438 15.203125 -13.203125 C 15.722656 -12.390625 15.984375 -11.539062 15.984375 -10.65625 C 15.984375 -9.976562 15.800781 -9.46875 15.4375 -9.125 C 15.070312 -8.789062 14.640625 -8.625 14.140625 -8.625 C 13.554688 -8.625 13.128906 -8.804688 12.859375 -9.171875 C 12.585938 -9.546875 12.375 -9.984375 12.21875 -10.484375 C 11.9375 -11.554688 11.507812 -12.429688 10.9375 -13.109375 C 10.375 -13.796875 9.582031 -14.148438 8.5625 -14.171875 C 7.34375 -14.171875 6.390625 -13.707031 5.703125 -12.78125 C 5.015625 -11.863281 4.671875 -10.695312 4.671875 -9.28125 C 4.671875 -7.90625 4.910156 -6.691406 5.390625 -5.640625 C 5.867188 -4.597656 6.539062 -3.789062 7.40625 -3.21875 C 8.28125 -2.644531 9.296875 -2.359375 10.453125 -2.359375 C 11.492188 -2.359375 12.375 -2.570312 13.09375 -3 C 13.8125 -3.4375 14.457031 -3.925781 15.03125 -4.46875 C 15.332031 -4.78125 15.617188 -4.851562 15.890625 -4.6875 C 16.160156 -4.519531 16.210938 -4.222656 16.046875 -3.796875 C 15.828125 -3.222656 15.421875 -2.613281 14.828125 -1.96875 C 14.242188 -1.332031 13.460938 -0.789062 12.484375 -0.34375 C 11.503906 0.101562 10.296875 0.328125 8.859375 0.328125 Z M 8.859375 0.328125 "/></g></g></g><g fill="#156669" fill-opacity="1"><g transform="translate(91.327566, 74.780638)"><g><path d="M 17.515625 -15.15625 L 17.484375 -10.65625 L 17.484375 -4.578125 C 17.484375 -3.960938 17.578125 -3.515625 17.765625 -3.234375 C 17.960938 -2.953125 18.1875 -2.753906 18.4375 -2.640625 C 18.6875 -2.535156 18.910156 -2.429688 19.109375 -2.328125 C 19.304688 -2.234375 19.40625 -2.066406 19.40625 -1.828125 C 19.40625 -1.484375 19.085938 -1.125 18.453125 -0.75 C 18.003906 -0.507812 17.445312 -0.269531 16.78125 -0.03125 C 16.113281 0.207031 15.5625 0.328125 15.125 0.328125 C 14.707031 0.328125 14.40625 0.175781 14.21875 -0.125 C 14.039062 -0.4375 13.929688 -0.894531 13.890625 -1.5 L 13.859375 -2.578125 C 13.179688 -1.640625 12.335938 -0.921875 11.328125 -0.421875 C 10.328125 0.078125 9.382812 0.328125 8.5 0.328125 C 6.820312 0.328125 5.484375 -0.210938 4.484375 -1.296875 C 3.492188 -2.390625 3 -4.023438 3 -6.203125 L 2.96875 -10.65625 C 2.96875 -11.300781 2.890625 -11.78125 2.734375 -12.09375 C 2.585938 -12.414062 2.410156 -12.65625 2.203125 -12.8125 C 1.992188 -12.976562 1.804688 -13.117188 1.640625 -13.234375 C 1.484375 -13.359375 1.40625 -13.550781 1.40625 -13.8125 C 1.40625 -14.007812 1.46875 -14.171875 1.59375 -14.296875 C 1.726562 -14.429688 1.992188 -14.585938 2.390625 -14.765625 C 3.085938 -15.085938 3.804688 -15.367188 4.546875 -15.609375 C 5.285156 -15.859375 5.773438 -15.992188 6.015625 -16.015625 C 6.492188 -16.035156 6.734375 -15.75 6.734375 -15.15625 L 6.703125 -10.65625 L 6.703125 -6.5 C 6.703125 -5.144531 6.925781 -4.0625 7.375 -3.25 C 7.832031 -2.4375 8.617188 -2.039062 9.734375 -2.0625 C 10.390625 -2.082031 11.023438 -2.289062 11.640625 -2.6875 C 12.265625 -3.09375 12.773438 -3.660156 13.171875 -4.390625 C 13.578125 -5.117188 13.78125 -5.972656 13.78125 -6.953125 L 13.78125 -10.65625 C 13.78125 -11.300781 13.695312 -11.78125 13.53125 -12.09375 C 13.375 -12.414062 13.191406 -12.65625 12.984375 -12.8125 C 12.773438 -12.976562 12.585938 -13.117188 12.421875 -13.234375 C 12.265625 -13.359375 12.1875 -13.550781 12.1875 -13.8125 C 12.1875 -14.007812 12.25 -14.171875 12.375 -14.296875 C 12.507812 -14.429688 12.773438 -14.585938 13.171875 -14.765625 C 13.867188 -15.085938 14.585938 -15.367188 15.328125 -15.609375 C 16.066406 -15.859375 16.554688 -15.992188 16.796875 -16.015625 C 17.273438 -16.035156 17.515625 -15.75 17.515625 -15.15625 Z M 17.515625 -15.15625 "/></g></g></g><g fill="#156669" fill-opacity="1"><g transform="translate(111.389816, 74.780638)"><g><path d="M 3.5625 0.328125 C 3.320312 0.328125 3.132812 0.242188 3 0.078125 C 2.875 -0.078125 2.703125 -0.394531 2.484375 -0.875 C 2.242188 -1.53125 2.03125 -2.113281 1.84375 -2.625 C 1.65625 -3.132812 1.476562 -3.695312 1.3125 -4.3125 C 1.175781 -4.875 1.296875 -5.222656 1.671875 -5.359375 C 1.890625 -5.460938 2.109375 -5.441406 2.328125 -5.296875 C 2.554688 -5.160156 2.816406 -4.953125 3.109375 -4.671875 C 4.253906 -3.472656 5.300781 -2.625 6.25 -2.125 C 7.195312 -1.625 8.128906 -1.375 9.046875 -1.375 C 9.703125 -1.375 10.253906 -1.53125 10.703125 -1.84375 C 11.148438 -2.15625 11.375 -2.617188 11.375 -3.234375 C 11.375 -3.867188 10.96875 -4.4375 10.15625 -4.9375 C 9.351562 -5.4375 8.265625 -5.96875 6.890625 -6.53125 C 5.992188 -6.90625 5.148438 -7.300781 4.359375 -7.71875 C 3.566406 -8.144531 2.925781 -8.660156 2.4375 -9.265625 C 1.945312 -9.878906 1.703125 -10.632812 1.703125 -11.53125 C 1.703125 -12.550781 1.96875 -13.394531 2.5 -14.0625 C 3.03125 -14.726562 3.703125 -15.21875 4.515625 -15.53125 C 5.335938 -15.851562 6.160156 -16.015625 6.984375 -16.015625 C 7.878906 -16.015625 8.617188 -15.945312 9.203125 -15.8125 C 9.796875 -15.675781 10.320312 -15.597656 10.78125 -15.578125 C 11.082031 -15.554688 11.296875 -15.625 11.421875 -15.78125 C 11.554688 -15.9375 11.742188 -16.015625 11.984375 -16.015625 C 12.222656 -16.015625 12.421875 -15.914062 12.578125 -15.71875 C 12.734375 -15.519531 12.921875 -15.222656 13.140625 -14.828125 C 13.378906 -14.421875 13.5625 -14.0625 13.6875 -13.75 C 13.820312 -13.445312 13.953125 -13.132812 14.078125 -12.8125 C 14.335938 -12.113281 14.285156 -11.664062 13.921875 -11.46875 C 13.640625 -11.3125 13.34375 -11.347656 13.03125 -11.578125 C 12.726562 -11.804688 12.304688 -12.128906 11.765625 -12.546875 C 11.128906 -13.003906 10.425781 -13.414062 9.65625 -13.78125 C 8.882812 -14.15625 8.128906 -14.34375 7.390625 -14.34375 C 6.597656 -14.34375 6 -14.164062 5.59375 -13.8125 C 5.195312 -13.46875 5 -13.054688 5 -12.578125 C 5 -11.941406 5.359375 -11.398438 6.078125 -10.953125 C 6.796875 -10.515625 7.863281 -10 9.28125 -9.40625 C 10.382812 -8.945312 11.367188 -8.484375 12.234375 -8.015625 C 13.097656 -7.546875 13.769531 -7.015625 14.25 -6.421875 C 14.726562 -5.835938 14.96875 -5.144531 14.96875 -4.34375 C 14.96875 -3.46875 14.707031 -2.675781 14.1875 -1.96875 C 13.675781 -1.269531 12.960938 -0.710938 12.046875 -0.296875 C 11.140625 0.117188 10.097656 0.328125 8.921875 0.328125 C 7.742188 0.328125 6.851562 0.21875 6.25 0 C 5.65625 -0.21875 5.179688 -0.328125 4.828125 -0.328125 C 4.585938 -0.328125 4.390625 -0.21875 4.234375 0 C 4.085938 0.21875 3.863281 0.328125 3.5625 0.328125 Z M 3.5625 0.328125 "/></g></g></g><g fill="#156669" fill-opacity="1"><g transform="translate(126.812263, 74.780638)"><g/></g></g><g fill="#156669" fill-opacity="1"><g transform="translate(132.693702, 74.780638)"><g><path d="M 15.546875 -9.34375 L 18.625 -3.796875 C 18.925781 -3.242188 19.234375 -2.828125 19.546875 -2.546875 C 19.867188 -2.265625 20.15625 -2.050781 20.40625 -1.90625 C 20.65625 -1.769531 20.851562 -1.625 21 -1.46875 C 21.15625 -1.3125 21.234375 -1.082031 21.234375 -0.78125 C 21.234375 -0.257812 20.742188 0 19.765625 0 L 15.578125 0 C 15.054688 0 14.660156 -0.0546875 14.390625 -0.171875 C 14.117188 -0.296875 13.984375 -0.519531 13.984375 -0.84375 C 13.984375 -1.082031 14.054688 -1.289062 14.203125 -1.46875 C 14.359375 -1.644531 14.519531 -1.828125 14.6875 -2.015625 C 14.851562 -2.210938 14.941406 -2.457031 14.953125 -2.75 C 14.960938 -3.050781 14.835938 -3.441406 14.578125 -3.921875 L 12.578125 -7.578125 C 12.296875 -8.078125 11.96875 -8.414062 11.59375 -8.59375 C 11.226562 -8.769531 10.597656 -8.910156 9.703125 -9.015625 C 8.828125 -9.128906 8.160156 -9.164062 7.703125 -9.125 C 7.253906 -9.09375 7.03125 -8.804688 7.03125 -8.265625 L 7.03125 -5.09375 C 7.03125 -4.132812 7.125 -3.429688 7.3125 -2.984375 C 7.507812 -2.535156 7.742188 -2.21875 8.015625 -2.03125 C 8.285156 -1.851562 8.519531 -1.6875 8.71875 -1.53125 C 8.914062 -1.382812 9.015625 -1.132812 9.015625 -0.78125 C 9.015625 -0.5 8.882812 -0.296875 8.625 -0.171875 C 8.363281 -0.0546875 7.914062 0 7.28125 0 L 2.90625 0 C 1.75 0 1.171875 -0.257812 1.171875 -0.78125 C 1.171875 -1.132812 1.273438 -1.382812 1.484375 -1.53125 C 1.691406 -1.6875 1.929688 -1.851562 2.203125 -2.03125 C 2.472656 -2.21875 2.710938 -2.535156 2.921875 -2.984375 C 3.128906 -3.429688 3.234375 -4.132812 3.234375 -5.09375 L 3.234375 -17.875 C 3.234375 -18.851562 3.128906 -19.5625 2.921875 -20 C 2.710938 -20.4375 2.472656 -20.734375 2.203125 -20.890625 C 1.929688 -21.054688 1.691406 -21.203125 1.484375 -21.328125 C 1.273438 -21.460938 1.171875 -21.71875 1.171875 -22.09375 C 1.171875 -22.414062 1.304688 -22.625 1.578125 -22.71875 C 1.859375 -22.820312 2.300781 -22.875 2.90625 -22.875 L 9.4375 -22.875 C 11.8125 -22.875 13.769531 -22.53125 15.3125 -21.84375 C 16.863281 -21.15625 18.015625 -20.257812 18.765625 -19.15625 C 19.515625 -18.0625 19.890625 -16.867188 19.890625 -15.578125 C 19.890625 -14.054688 19.519531 -12.765625 18.78125 -11.703125 C 18.039062 -10.648438 16.960938 -9.863281 15.546875 -9.34375 Z M 11.078125 -10.625 C 12.617188 -10.53125 13.804688 -10.898438 14.640625 -11.734375 C 15.484375 -12.578125 15.90625 -13.71875 15.90625 -15.15625 C 15.90625 -16.25 15.644531 -17.242188 15.125 -18.140625 C 14.601562 -19.046875 13.851562 -19.773438 12.875 -20.328125 C 11.894531 -20.890625 10.71875 -21.171875 9.34375 -21.171875 C 8.363281 -21.171875 7.734375 -21.109375 7.453125 -20.984375 C 7.171875 -20.867188 7.03125 -20.640625 7.03125 -20.296875 L 7.03125 -12.21875 C 7.03125 -11.800781 7.269531 -11.484375 7.75 -11.265625 C 8.226562 -11.046875 8.78125 -10.890625 9.40625 -10.796875 C 10.039062 -10.703125 10.597656 -10.644531 11.078125 -10.625 Z M 11.078125 -10.625 "/></g></g></g><g fill="#156669" fill-opacity="1"><g transform="translate(154.03027, 74.780638)"><g><path d="M 8.78125 0.328125 C 7.320312 0.328125 6.015625 0.0195312 4.859375 -0.59375 C 3.710938 -1.21875 2.800781 -2.097656 2.125 -3.234375 C 1.445312 -4.367188 1.109375 -5.707031 1.109375 -7.25 C 1.109375 -8.882812 1.488281 -10.363281 2.25 -11.6875 C 3.007812 -13.019531 4.054688 -14.070312 5.390625 -14.84375 C 6.722656 -15.625 8.238281 -16.015625 9.9375 -16.015625 C 11.414062 -16.015625 12.71875 -15.671875 13.84375 -14.984375 C 14.976562 -14.296875 15.867188 -13.367188 16.515625 -12.203125 C 17.160156 -11.035156 17.484375 -9.722656 17.484375 -8.265625 C 17.484375 -6.648438 17.109375 -5.1875 16.359375 -3.875 C 15.617188 -2.570312 14.597656 -1.546875 13.296875 -0.796875 C 11.992188 -0.046875 10.488281 0.328125 8.78125 0.328125 Z M 10 -1.53125 C 11.257812 -1.53125 12.21875 -1.992188 12.875 -2.921875 C 13.53125 -3.847656 13.859375 -4.988281 13.859375 -6.34375 C 13.859375 -7.644531 13.632812 -8.890625 13.1875 -10.078125 C 12.738281 -11.265625 12.117188 -12.234375 11.328125 -12.984375 C 10.546875 -13.734375 9.644531 -14.109375 8.625 -14.109375 C 7.75 -14.109375 7.03125 -13.878906 6.46875 -13.421875 C 5.90625 -12.960938 5.476562 -12.351562 5.1875 -11.59375 C 4.90625 -10.832031 4.765625 -9.992188 4.765625 -9.078125 C 4.765625 -7.734375 4.988281 -6.488281 5.4375 -5.34375 C 5.882812 -4.195312 6.5 -3.273438 7.28125 -2.578125 C 8.070312 -1.878906 8.976562 -1.53125 10 -1.53125 Z M 10 -1.53125 "/></g></g></g><g fill="#156669" fill-opacity="1"><g transform="translate(172.034016, 74.780638)"><g><path d="M 17.515625 -2.25 C 17.929688 -2.289062 18.140625 -2.140625 18.140625 -1.796875 C 18.140625 -1.492188 17.988281 -1.179688 17.6875 -0.859375 C 17.394531 -0.546875 17.015625 -0.285156 16.546875 -0.078125 C 16.078125 0.128906 15.59375 0.234375 15.09375 0.234375 C 14.332031 0.234375 13.765625 0.0195312 13.390625 -0.40625 C 13.023438 -0.832031 12.753906 -1.445312 12.578125 -2.25 C 11.835938 -1.382812 10.953125 -0.742188 9.921875 -0.328125 C 8.898438 0.0859375 7.910156 0.296875 6.953125 0.296875 C 5.035156 0.296875 3.53125 -0.171875 2.4375 -1.109375 C 1.351562 -2.046875 0.8125 -3.210938 0.8125 -4.609375 C 0.8125 -5.648438 1.101562 -6.566406 1.6875 -7.359375 C 2.28125 -8.160156 3.101562 -8.789062 4.15625 -9.25 C 5.21875 -9.707031 6.46875 -9.9375 7.90625 -9.9375 C 8.46875 -9.9375 8.972656 -9.90625 9.421875 -9.84375 C 9.867188 -9.789062 10.390625 -9.710938 10.984375 -9.609375 C 10.785156 -10.390625 10.554688 -11.082031 10.296875 -11.6875 C 10.035156 -12.300781 9.671875 -12.78125 9.203125 -13.125 C 8.734375 -13.476562 8.0625 -13.65625 7.1875 -13.65625 C 6.363281 -13.65625 5.613281 -13.53125 4.9375 -13.28125 C 4.257812 -13.03125 3.601562 -12.71875 2.96875 -12.34375 C 2.664062 -12.15625 2.40625 -12.15625 2.1875 -12.34375 C 1.96875 -12.539062 1.96875 -12.828125 2.1875 -13.203125 C 2.46875 -13.609375 2.90625 -14.023438 3.5 -14.453125 C 4.101562 -14.878906 4.828125 -15.238281 5.671875 -15.53125 C 6.523438 -15.832031 7.457031 -15.984375 8.46875 -15.984375 C 9.769531 -15.984375 10.804688 -15.726562 11.578125 -15.21875 C 12.347656 -14.71875 12.945312 -14.066406 13.375 -13.265625 C 13.800781 -12.460938 14.125 -11.59375 14.34375 -10.65625 L 15.90625 -4.015625 C 16.082031 -3.273438 16.304688 -2.796875 16.578125 -2.578125 C 16.847656 -2.359375 17.160156 -2.25 17.515625 -2.25 Z M 8.203125 -1.640625 C 8.898438 -1.640625 9.554688 -1.785156 10.171875 -2.078125 C 10.796875 -2.367188 11.285156 -2.738281 11.640625 -3.1875 C 12.003906 -3.632812 12.144531 -4.085938 12.0625 -4.546875 C 12.007812 -4.867188 11.921875 -5.253906 11.796875 -5.703125 C 11.679688 -6.148438 11.539062 -6.6875 11.375 -7.3125 C 11.320312 -7.570312 11.128906 -7.785156 10.796875 -7.953125 C 10.460938 -8.117188 10.078125 -8.234375 9.640625 -8.296875 C 9.203125 -8.359375 8.8125 -8.390625 8.46875 -8.390625 C 7.15625 -8.390625 6.148438 -8.09375 5.453125 -7.5 C 4.753906 -6.914062 4.414062 -6.125 4.4375 -5.125 C 4.488281 -4.125 4.84375 -3.289062 5.5 -2.625 C 6.164062 -1.96875 7.066406 -1.640625 8.203125 -1.640625 Z M 8.203125 -1.640625 "/></g></g></g><g fill="#156669" fill-opacity="1"><g transform="translate(189.74369, 74.780638)"><g><path d="M 3.5625 0.328125 C 3.320312 0.328125 3.132812 0.242188 3 0.078125 C 2.875 -0.078125 2.703125 -0.394531 2.484375 -0.875 C 2.242188 -1.53125 2.03125 -2.113281 1.84375 -2.625 C 1.65625 -3.132812 1.476562 -3.695312 1.3125 -4.3125 C 1.175781 -4.875 1.296875 -5.222656 1.671875 -5.359375 C 1.890625 -5.460938 2.109375 -5.441406 2.328125 -5.296875 C 2.554688 -5.160156 2.816406 -4.953125 3.109375 -4.671875 C 4.253906 -3.472656 5.300781 -2.625 6.25 -2.125 C 7.195312 -1.625 8.128906 -1.375 9.046875 -1.375 C 9.703125 -1.375 10.253906 -1.53125 10.703125 -1.84375 C 11.148438 -2.15625 11.375 -2.617188 11.375 -3.234375 C 11.375 -3.867188 10.96875 -4.4375 10.15625 -4.9375 C 9.351562 -5.4375 8.265625 -5.96875 6.890625 -6.53125 C 5.992188 -6.90625 5.148438 -7.300781 4.359375 -7.71875 C 3.566406 -8.144531 2.925781 -8.660156 2.4375 -9.265625 C 1.945312 -9.878906 1.703125 -10.632812 1.703125 -11.53125 C 1.703125 -12.550781 1.96875 -13.394531 2.5 -14.0625 C 3.03125 -14.726562 3.703125 -15.21875 4.515625 -15.53125 C 5.335938 -15.851562 6.160156 -16.015625 6.984375 -16.015625 C 7.878906 -16.015625 8.617188 -15.945312 9.203125 -15.8125 C 9.796875 -15.675781 10.320312 -15.597656 10.78125 -15.578125 C 11.082031 -15.554688 11.296875 -15.625 11.421875 -15.78125 C 11.554688 -15.9375 11.742188 -16.015625 11.984375 -16.015625 C 12.222656 -16.015625 12.421875 -15.914062 12.578125 -15.71875 C 12.734375 -15.519531 12.921875 -15.222656 13.140625 -14.828125 C 13.378906 -14.421875 13.5625 -14.0625 13.6875 -13.75 C 13.820312 -13.445312 13.953125 -13.132812 14.078125 -12.8125 C 14.335938 -12.113281 14.285156 -11.664062 13.921875 -11.46875 C 13.640625 -11.3125 13.34375 -11.347656 13.03125 -11.578125 C 12.726562 -11.804688 12.304688 -12.128906 11.765625 -12.546875 C 11.128906 -13.003906 10.425781 -13.414062 9.65625 -13.78125 C 8.882812 -14.15625 8.128906 -14.34375 7.390625 -14.34375 C 6.597656 -14.34375 6 -14.164062 5.59375 -13.8125 C 5.195312 -13.46875 5 -13.054688 5 -12.578125 C 5 -11.941406 5.359375 -11.398438 6.078125 -10.953125 C 6.796875 -10.515625 7.863281 -10 9.28125 -9.40625 C 10.382812 -8.945312 11.367188 -8.484375 12.234375 -8.015625 C 13.097656 -7.546875 13.769531 -7.015625 14.25 -6.421875 C 14.726562 -5.835938 14.96875 -5.144531 14.96875 -4.34375 C 14.96875 -3.46875 14.707031 -2.675781 14.1875 -1.96875 C 13.675781 -1.269531 12.960938 -0.710938 12.046875 -0.296875 C 11.140625 0.117188 10.097656 0.328125 8.921875 0.328125 C 7.742188 0.328125 6.851562 0.21875 6.25 0 C 5.65625 -0.21875 5.179688 -0.328125 4.828125 -0.328125 C 4.585938 -0.328125 4.390625 -0.21875 4.234375 0 C 4.085938 0.21875 3.863281 0.328125 3.5625 0.328125 Z M 3.5625 0.328125 "/></g></g></g><g fill="#156669" fill-opacity="1"><g transform="translate(205.166143, 74.780638)"><g><path d="M 10.546875 -3.328125 C 10.835938 -3.566406 11.082031 -3.597656 11.28125 -3.421875 C 11.488281 -3.253906 11.539062 -3.019531 11.4375 -2.71875 C 11.28125 -2.300781 11 -1.851562 10.59375 -1.375 C 10.195312 -0.894531 9.675781 -0.488281 9.03125 -0.15625 C 8.382812 0.164062 7.628906 0.328125 6.765625 0.328125 C 5.367188 0.328125 4.304688 -0.0859375 3.578125 -0.921875 C 2.847656 -1.765625 2.484375 -2.984375 2.484375 -4.578125 L 2.484375 -5.90625 C 2.484375 -7.582031 2.492188 -9.101562 2.515625 -10.46875 C 2.535156 -11.832031 2.566406 -12.984375 2.609375 -13.921875 L 1.53125 -13.921875 C 1.164062 -13.921875 0.90625 -13.976562 0.75 -14.09375 C 0.59375 -14.21875 0.515625 -14.398438 0.515625 -14.640625 C 0.515625 -14.960938 0.648438 -15.265625 0.921875 -15.546875 C 1.523438 -16.203125 2.160156 -16.804688 2.828125 -17.359375 C 3.492188 -17.921875 4.128906 -18.40625 4.734375 -18.8125 C 5.035156 -19.007812 5.257812 -19.125 5.40625 -19.15625 C 5.550781 -19.195312 5.675781 -19.21875 5.78125 -19.21875 C 6 -19.21875 6.15625 -19.132812 6.25 -18.96875 C 6.351562 -18.800781 6.394531 -18.597656 6.375 -18.359375 C 6.351562 -17.972656 6.328125 -17.566406 6.296875 -17.140625 C 6.273438 -16.710938 6.253906 -16.226562 6.234375 -15.6875 L 9.5 -15.6875 C 9.789062 -15.6875 10.03125 -15.628906 10.21875 -15.515625 C 10.414062 -15.410156 10.472656 -15.140625 10.390625 -14.703125 C 10.304688 -14.242188 10.132812 -13.957031 9.875 -13.84375 C 9.625 -13.738281 9.347656 -13.695312 9.046875 -13.71875 L 6.203125 -13.8125 C 6.179688 -12.925781 6.171875 -11.84375 6.171875 -10.5625 C 6.171875 -9.289062 6.148438 -7.738281 6.109375 -5.90625 C 6.085938 -4.644531 6.21875 -3.726562 6.5 -3.15625 C 6.78125 -2.59375 7.328125 -2.3125 8.140625 -2.3125 C 8.566406 -2.3125 9 -2.414062 9.4375 -2.625 C 9.875 -2.832031 10.242188 -3.066406 10.546875 -3.328125 Z M 10.546875 -3.328125 "/></g></g></g></svg>