<svg xmlns="http://www.w3.org/2000/svg" xmlns:xlink="http://www.w3.org/1999/xlink" width="454" zoomAndPan="magnify" viewBox="0 0 340.5 256.499992" height="342" preserveAspectRatio="xMidYMid meet" version="1.0"><defs><g/><clipPath id="6ae172ab91"><path d="M 0.0820312 24 L 295 24 L 295 256 L 0.0820312 256 Z M 0.0820312 24 " clip-rule="nonzero"/></clipPath><clipPath id="03fec577fe"><path d="M 25 0 L 318.960938 0 L 318.960938 232 L 25 232 Z M 25 0 " clip-rule="nonzero"/></clipPath><clipPath id="c4b827b146"><path d="M 25 0 L 318.960938 0 L 318.960938 31 L 25 31 Z M 25 0 " clip-rule="nonzero"/></clipPath></defs><path fill="#d2eddd" d="M 1.464844 25.324219 L 293.402344 25.324219 L 293.402344 254.828125 L 1.464844 254.828125 Z M 1.464844 25.324219 " fill-opacity="1" fill-rule="nonzero"/><g clip-path="url(#6ae172ab91)"><path fill="#000000" d="M 294.28125 255.707031 L 0.585938 255.707031 L 0.585938 24.445312 L 294.28125 24.445312 Z M 2.34375 253.949219 L 292.523438 253.949219 L 292.523438 26.203125 L 2.34375 26.203125 Z M 2.34375 253.949219 " fill-opacity="1" fill-rule="nonzero"/></g><path fill="#d2eddd" d="M 14.300781 12.488281 L 306.238281 12.488281 L 306.238281 241.992188 L 14.300781 241.992188 Z M 14.300781 12.488281 " fill-opacity="1" fill-rule="nonzero"/><path fill="#000000" d="M 307.117188 242.871094 L 13.421875 242.871094 L 13.421875 11.605469 L 307.117188 11.605469 Z M 15.183594 241.113281 L 305.359375 241.113281 L 305.359375 13.367188 L 15.183594 13.367188 Z M 15.183594 241.113281 " fill-opacity="1" fill-rule="nonzero"/><path fill="#fffbfc" d="M 25.910156 0.878906 L 317.847656 0.878906 L 317.847656 230.382812 L 25.910156 230.382812 Z M 25.910156 0.878906 " fill-opacity="1" fill-rule="nonzero"/><g clip-path="url(#03fec577fe)"><path fill="#000000" d="M 318.726562 231.261719 L 25.03125 231.261719 L 25.03125 0 L 318.726562 0 Z M 26.789062 229.503906 L 316.96875 229.503906 L 316.96875 1.757812 L 26.789062 1.757812 Z M 26.789062 229.503906 " fill-opacity="1" fill-rule="nonzero"/></g><path fill="#d2eddd" d="M 25.910156 0.878906 L 317.847656 0.878906 L 317.847656 29.898438 L 25.910156 29.898438 Z M 25.910156 0.878906 " fill-opacity="1" fill-rule="nonzero"/><g clip-path="url(#c4b827b146)"><path fill="#000000" d="M 318.726562 30.777344 L 25.03125 30.777344 L 25.03125 0 L 318.726562 0 Z M 26.789062 29.019531 L 316.96875 29.019531 L 316.96875 1.757812 L 26.789062 1.757812 Z M 26.789062 29.019531 " fill-opacity="1" fill-rule="nonzero"/></g><path fill="#fffbfc" d="M 44.902344 15.476562 C 44.902344 15.753906 44.875 16.027344 44.820312 16.300781 C 44.769531 16.570312 44.6875 16.835938 44.582031 17.089844 C 44.476562 17.347656 44.347656 17.589844 44.191406 17.820312 C 44.039062 18.050781 43.863281 18.265625 43.667969 18.460938 C 43.472656 18.65625 43.257812 18.832031 43.027344 18.984375 C 42.796875 19.140625 42.554688 19.269531 42.296875 19.375 C 42.042969 19.480469 41.777344 19.5625 41.503906 19.617188 C 41.234375 19.667969 40.960938 19.695312 40.683594 19.695312 C 40.40625 19.695312 40.128906 19.667969 39.859375 19.617188 C 39.585938 19.5625 39.324219 19.480469 39.066406 19.375 C 38.8125 19.269531 38.566406 19.140625 38.335938 18.984375 C 38.105469 18.832031 37.894531 18.65625 37.699219 18.460938 C 37.5 18.265625 37.328125 18.050781 37.171875 17.820312 C 37.019531 17.589844 36.890625 17.347656 36.78125 17.089844 C 36.675781 16.835938 36.597656 16.570312 36.542969 16.300781 C 36.488281 16.027344 36.460938 15.753906 36.460938 15.476562 C 36.460938 15.199219 36.488281 14.925781 36.542969 14.652344 C 36.597656 14.382812 36.675781 14.117188 36.78125 13.859375 C 36.890625 13.605469 37.019531 13.363281 37.171875 13.132812 C 37.328125 12.902344 37.5 12.6875 37.699219 12.492188 C 37.894531 12.296875 38.105469 12.121094 38.335938 11.964844 C 38.566406 11.8125 38.8125 11.683594 39.066406 11.578125 C 39.324219 11.46875 39.585938 11.390625 39.859375 11.335938 C 40.128906 11.28125 40.40625 11.253906 40.683594 11.253906 C 40.960938 11.253906 41.234375 11.28125 41.503906 11.335938 C 41.777344 11.390625 42.042969 11.46875 42.296875 11.578125 C 42.554688 11.683594 42.796875 11.8125 43.027344 11.964844 C 43.257812 12.121094 43.472656 12.296875 43.667969 12.492188 C 43.863281 12.6875 44.039062 12.902344 44.191406 13.132812 C 44.347656 13.363281 44.476562 13.605469 44.582031 13.859375 C 44.6875 14.117188 44.769531 14.382812 44.820312 14.652344 C 44.875 14.925781 44.902344 15.199219 44.902344 15.476562 Z M 44.902344 15.476562 " fill-opacity="1" fill-rule="nonzero"/><path fill="#000000" d="M 40.683594 20.402344 C 37.867188 20.402344 35.582031 18.113281 35.582031 15.300781 C 35.582031 12.488281 37.867188 10.199219 40.683594 10.199219 C 43.496094 10.199219 45.78125 12.488281 45.78125 15.300781 C 45.78125 18.113281 43.496094 20.402344 40.683594 20.402344 Z M 40.683594 12.132812 C 38.921875 12.132812 37.339844 13.542969 37.339844 15.476562 C 37.339844 17.410156 38.746094 18.816406 40.683594 18.816406 C 42.617188 18.816406 44.023438 17.410156 44.023438 15.476562 C 44.023438 13.542969 42.617188 12.132812 40.683594 12.132812 Z M 40.683594 12.132812 " fill-opacity="1" fill-rule="nonzero"/><path fill="#fffbfc" d="M 59.5 15.476562 C 59.5 15.753906 59.472656 16.027344 59.417969 16.300781 C 59.363281 16.570312 59.285156 16.835938 59.179688 17.089844 C 59.074219 17.347656 58.941406 17.589844 58.789062 17.820312 C 58.632812 18.050781 58.460938 18.265625 58.265625 18.460938 C 58.066406 18.65625 57.855469 18.832031 57.625 18.984375 C 57.394531 19.140625 57.152344 19.269531 56.894531 19.375 C 56.636719 19.480469 56.375 19.5625 56.101562 19.617188 C 55.832031 19.667969 55.554688 19.695312 55.277344 19.695312 C 55.003906 19.695312 54.726562 19.667969 54.457031 19.617188 C 54.183594 19.5625 53.921875 19.480469 53.664062 19.375 C 53.40625 19.269531 53.164062 19.140625 52.933594 18.984375 C 52.703125 18.832031 52.492188 18.65625 52.292969 18.460938 C 52.097656 18.265625 51.921875 18.050781 51.769531 17.820312 C 51.617188 17.589844 51.484375 17.347656 51.378906 17.089844 C 51.273438 16.835938 51.195312 16.570312 51.140625 16.300781 C 51.085938 16.027344 51.058594 15.753906 51.058594 15.476562 C 51.058594 15.199219 51.085938 14.925781 51.140625 14.652344 C 51.195312 14.382812 51.273438 14.117188 51.378906 13.859375 C 51.484375 13.605469 51.617188 13.363281 51.769531 13.132812 C 51.921875 12.902344 52.097656 12.6875 52.292969 12.492188 C 52.492188 12.296875 52.703125 12.121094 52.933594 11.964844 C 53.164062 11.8125 53.40625 11.683594 53.664062 11.578125 C 53.921875 11.46875 54.183594 11.390625 54.457031 11.335938 C 54.726562 11.28125 55.003906 11.253906 55.277344 11.253906 C 55.554688 11.253906 55.832031 11.28125 56.101562 11.335938 C 56.375 11.390625 56.636719 11.46875 56.894531 11.578125 C 57.152344 11.683594 57.394531 11.8125 57.625 11.964844 C 57.855469 12.121094 58.066406 12.296875 58.265625 12.492188 C 58.460938 12.6875 58.632812 12.902344 58.789062 13.132812 C 58.941406 13.363281 59.074219 13.605469 59.179688 13.859375 C 59.285156 14.117188 59.363281 14.382812 59.417969 14.652344 C 59.472656 14.925781 59.5 15.199219 59.5 15.476562 Z M 59.5 15.476562 " fill-opacity="1" fill-rule="nonzero"/><path fill="#000000" d="M 55.277344 20.402344 C 52.464844 20.402344 50.179688 18.113281 50.179688 15.300781 C 50.179688 12.488281 52.464844 10.199219 55.277344 10.199219 C 58.09375 10.199219 60.378906 12.664062 60.378906 15.476562 C 60.378906 18.289062 58.09375 20.402344 55.277344 20.402344 Z M 55.277344 12.132812 C 53.519531 12.132812 51.9375 13.542969 51.9375 15.476562 C 51.9375 17.410156 53.34375 18.816406 55.277344 18.816406 C 57.039062 18.816406 58.621094 17.410156 58.621094 15.476562 C 58.621094 13.542969 57.039062 12.132812 55.277344 12.132812 Z M 55.277344 12.132812 " fill-opacity="1" fill-rule="nonzero"/><path fill="#fffbfc" d="M 74.800781 15.476562 C 74.800781 15.753906 74.773438 16.027344 74.71875 16.300781 C 74.664062 16.570312 74.585938 16.835938 74.480469 17.089844 C 74.371094 17.347656 74.242188 17.589844 74.089844 17.820312 C 73.933594 18.050781 73.761719 18.265625 73.5625 18.460938 C 73.367188 18.65625 73.15625 18.832031 72.925781 18.984375 C 72.695312 19.140625 72.449219 19.269531 72.195312 19.375 C 71.9375 19.480469 71.675781 19.5625 71.402344 19.617188 C 71.132812 19.667969 70.855469 19.695312 70.578125 19.695312 C 70.300781 19.695312 70.027344 19.667969 69.757812 19.617188 C 69.484375 19.5625 69.21875 19.480469 68.964844 19.375 C 68.707031 19.269531 68.464844 19.140625 68.234375 18.984375 C 68.003906 18.832031 67.789062 18.65625 67.59375 18.460938 C 67.398438 18.265625 67.222656 18.050781 67.070312 17.820312 C 66.917969 17.589844 66.785156 17.347656 66.679688 17.089844 C 66.574219 16.835938 66.492188 16.570312 66.441406 16.300781 C 66.386719 16.027344 66.359375 15.753906 66.359375 15.476562 C 66.359375 15.199219 66.386719 14.925781 66.441406 14.652344 C 66.492188 14.382812 66.574219 14.117188 66.679688 13.859375 C 66.785156 13.605469 66.917969 13.363281 67.070312 13.132812 C 67.222656 12.902344 67.398438 12.6875 67.59375 12.492188 C 67.789062 12.296875 68.003906 12.121094 68.234375 11.964844 C 68.464844 11.8125 68.707031 11.683594 68.964844 11.578125 C 69.21875 11.46875 69.484375 11.390625 69.757812 11.335938 C 70.027344 11.28125 70.300781 11.253906 70.578125 11.253906 C 70.855469 11.253906 71.132812 11.28125 71.402344 11.335938 C 71.675781 11.390625 71.9375 11.46875 72.195312 11.578125 C 72.449219 11.683594 72.695312 11.8125 72.925781 11.964844 C 73.15625 12.121094 73.367188 12.296875 73.5625 12.492188 C 73.761719 12.6875 73.933594 12.902344 74.089844 13.132812 C 74.242188 13.363281 74.371094 13.605469 74.480469 13.859375 C 74.585938 14.117188 74.664062 14.382812 74.71875 14.652344 C 74.773438 14.925781 74.800781 15.199219 74.800781 15.476562 Z M 74.800781 15.476562 " fill-opacity="1" fill-rule="nonzero"/><path fill="#000000" d="M 70.578125 20.402344 C 67.765625 20.402344 65.480469 18.113281 65.480469 15.300781 C 65.480469 12.488281 67.765625 10.199219 70.578125 10.199219 C 73.394531 10.199219 75.679688 12.488281 75.679688 15.300781 C 75.679688 18.113281 73.394531 20.402344 70.578125 20.402344 Z M 70.578125 12.132812 C 68.820312 12.132812 67.238281 13.542969 67.238281 15.476562 C 67.238281 17.410156 68.644531 18.816406 70.578125 18.816406 C 72.515625 18.816406 73.921875 17.410156 73.921875 15.476562 C 73.921875 13.542969 72.339844 12.132812 70.578125 12.132812 Z M 70.578125 12.132812 " fill-opacity="1" fill-rule="nonzero"/><g fill="#156669" fill-opacity="1"><g transform="translate(38.396875, 111.055626)"><g><path d="M 8.828125 -2.984375 L 2.609375 -2.984375 L 1.265625 0 L 0.03125 0 L 5.140625 -11.171875 L 6.3125 -11.171875 L 11.421875 0 L 10.171875 0 Z M 8.40625 -3.9375 L 5.71875 -9.953125 L 3.03125 -3.9375 Z M 8.40625 -3.9375 "/></g></g></g><g fill="#156669" fill-opacity="1"><g transform="translate(49.205049, 111.055626)"><g/></g></g><g fill="#156669" fill-opacity="1"><g transform="translate(52.749136, 111.055626)"><g><path d="M 5.0625 0.078125 C 4.226562 0.078125 3.484375 -0.0976562 2.828125 -0.453125 C 2.179688 -0.816406 1.671875 -1.328125 1.296875 -1.984375 C 0.921875 -2.640625 0.734375 -3.378906 0.734375 -4.203125 C 0.734375 -5.015625 0.921875 -5.742188 1.296875 -6.390625 C 1.671875 -7.046875 2.179688 -7.554688 2.828125 -7.921875 C 3.484375 -8.285156 4.226562 -8.46875 5.0625 -8.46875 C 5.78125 -8.46875 6.425781 -8.320312 7 -8.03125 C 7.570312 -7.75 8.023438 -7.335938 8.359375 -6.796875 L 7.5 -6.234375 C 7.226562 -6.640625 6.878906 -6.945312 6.453125 -7.15625 C 6.023438 -7.363281 5.5625 -7.46875 5.0625 -7.46875 C 4.457031 -7.46875 3.910156 -7.332031 3.421875 -7.0625 C 2.941406 -6.789062 2.566406 -6.40625 2.296875 -5.90625 C 2.023438 -5.40625 1.890625 -4.835938 1.890625 -4.203125 C 1.890625 -3.546875 2.023438 -2.96875 2.296875 -2.46875 C 2.566406 -1.976562 2.941406 -1.597656 3.421875 -1.328125 C 3.910156 -1.054688 4.457031 -0.921875 5.0625 -0.921875 C 5.5625 -0.921875 6.023438 -1.019531 6.453125 -1.21875 C 6.878906 -1.425781 7.226562 -1.738281 7.5 -2.15625 L 8.359375 -1.578125 C 8.023438 -1.035156 7.566406 -0.625 6.984375 -0.34375 C 6.410156 -0.0625 5.769531 0.078125 5.0625 0.078125 Z M 5.0625 0.078125 "/></g></g></g><g fill="#156669" fill-opacity="1"><g transform="translate(61.098694, 111.055626)"><g><path d="M 4.515625 -8.46875 C 5.609375 -8.46875 6.445312 -8.191406 7.03125 -7.640625 C 7.625 -7.085938 7.921875 -6.273438 7.921875 -5.203125 L 7.921875 0 L 6.828125 0 L 6.828125 -1.3125 C 6.578125 -0.875 6.203125 -0.53125 5.703125 -0.28125 C 5.210938 -0.0390625 4.625 0.078125 3.9375 0.078125 C 3 0.078125 2.253906 -0.144531 1.703125 -0.59375 C 1.148438 -1.039062 0.875 -1.628906 0.875 -2.359375 C 0.875 -3.078125 1.128906 -3.65625 1.640625 -4.09375 C 2.160156 -4.53125 2.988281 -4.75 4.125 -4.75 L 6.78125 -4.75 L 6.78125 -5.25 C 6.78125 -5.976562 6.578125 -6.53125 6.171875 -6.90625 C 5.773438 -7.28125 5.1875 -7.46875 4.40625 -7.46875 C 3.875 -7.46875 3.363281 -7.378906 2.875 -7.203125 C 2.382812 -7.035156 1.960938 -6.796875 1.609375 -6.484375 L 1.109375 -7.328125 C 1.523438 -7.691406 2.03125 -7.972656 2.625 -8.171875 C 3.226562 -8.367188 3.859375 -8.46875 4.515625 -8.46875 Z M 4.125 -0.8125 C 4.757812 -0.8125 5.304688 -0.957031 5.765625 -1.25 C 6.222656 -1.539062 6.5625 -1.960938 6.78125 -2.515625 L 6.78125 -3.890625 L 4.15625 -3.890625 C 2.71875 -3.890625 2 -3.390625 2 -2.390625 C 2 -1.898438 2.179688 -1.515625 2.546875 -1.234375 C 2.921875 -0.953125 3.445312 -0.8125 4.125 -0.8125 Z M 4.125 -0.8125 "/></g></g></g><g fill="#156669" fill-opacity="1"><g transform="translate(69.879311, 111.055626)"><g><path d="M 1.578125 -11.84375 L 2.71875 -11.84375 L 2.71875 0 L 1.578125 0 Z M 1.578125 -11.84375 "/></g></g></g><g fill="#156669" fill-opacity="1"><g transform="translate(73.535149, 111.055626)"><g><path d="M 12.0625 -8.46875 C 13.113281 -8.46875 13.9375 -8.160156 14.53125 -7.546875 C 15.132812 -6.941406 15.4375 -6.050781 15.4375 -4.875 L 15.4375 0 L 14.3125 0 L 14.3125 -4.765625 C 14.3125 -5.628906 14.097656 -6.289062 13.671875 -6.75 C 13.253906 -7.207031 12.660156 -7.4375 11.890625 -7.4375 C 11.023438 -7.4375 10.34375 -7.164062 9.84375 -6.625 C 9.34375 -6.09375 9.09375 -5.351562 9.09375 -4.40625 L 9.09375 0 L 7.953125 0 L 7.953125 -4.765625 C 7.953125 -5.628906 7.738281 -6.289062 7.3125 -6.75 C 6.894531 -7.207031 6.300781 -7.4375 5.53125 -7.4375 C 4.664062 -7.4375 3.976562 -7.164062 3.46875 -6.625 C 2.96875 -6.09375 2.71875 -5.351562 2.71875 -4.40625 L 2.71875 0 L 1.578125 0 L 1.578125 -8.40625 L 2.671875 -8.40625 L 2.671875 -6.859375 C 2.960938 -7.378906 3.375 -7.773438 3.90625 -8.046875 C 4.4375 -8.328125 5.050781 -8.46875 5.75 -8.46875 C 6.445312 -8.46875 7.054688 -8.316406 7.578125 -8.015625 C 8.097656 -7.710938 8.484375 -7.269531 8.734375 -6.6875 C 9.046875 -7.238281 9.488281 -7.671875 10.0625 -7.984375 C 10.644531 -8.304688 11.3125 -8.46875 12.0625 -8.46875 Z M 12.0625 -8.46875 "/></g></g></g><g fill="#156669" fill-opacity="1"><g transform="translate(89.835291, 111.055626)"><g><path d="M 1.578125 -8.40625 L 2.71875 -8.40625 L 2.71875 0 L 1.578125 0 Z M 2.15625 -10.234375 C 1.925781 -10.234375 1.726562 -10.3125 1.5625 -10.46875 C 1.40625 -10.632812 1.328125 -10.828125 1.328125 -11.046875 C 1.328125 -11.265625 1.40625 -11.453125 1.5625 -11.609375 C 1.726562 -11.765625 1.925781 -11.84375 2.15625 -11.84375 C 2.394531 -11.84375 2.59375 -11.765625 2.75 -11.609375 C 2.914062 -11.460938 3 -11.28125 3 -11.0625 C 3 -10.832031 2.914062 -10.632812 2.75 -10.46875 C 2.59375 -10.3125 2.394531 -10.234375 2.15625 -10.234375 Z M 2.15625 -10.234375 "/></g></g></g><g fill="#156669" fill-opacity="1"><g transform="translate(93.491132, 111.055626)"><g><path d="M 5.859375 -8.46875 C 6.910156 -8.46875 7.75 -8.160156 8.375 -7.546875 C 9 -6.929688 9.3125 -6.039062 9.3125 -4.875 L 9.3125 0 L 8.171875 0 L 8.171875 -4.765625 C 8.171875 -5.628906 7.953125 -6.289062 7.515625 -6.75 C 7.078125 -7.207031 6.457031 -7.4375 5.65625 -7.4375 C 4.75 -7.4375 4.03125 -7.164062 3.5 -6.625 C 2.976562 -6.09375 2.71875 -5.351562 2.71875 -4.40625 L 2.71875 0 L 1.578125 0 L 1.578125 -8.40625 L 2.671875 -8.40625 L 2.671875 -6.84375 C 2.972656 -7.351562 3.398438 -7.75 3.953125 -8.03125 C 4.503906 -8.320312 5.140625 -8.46875 5.859375 -8.46875 Z M 5.859375 -8.46875 "/></g></g></g><g fill="#156669" fill-opacity="1"><g transform="translate(103.660698, 111.055626)"><g><path d="M 9.359375 -8.40625 L 9.359375 -1.015625 C 9.359375 0.410156 9.007812 1.460938 8.3125 2.140625 C 7.613281 2.828125 6.5625 3.171875 5.15625 3.171875 C 4.382812 3.171875 3.648438 3.054688 2.953125 2.828125 C 2.253906 2.597656 1.6875 2.285156 1.25 1.890625 L 1.828125 1.015625 C 2.222656 1.378906 2.710938 1.660156 3.296875 1.859375 C 3.878906 2.066406 4.488281 2.171875 5.125 2.171875 C 6.1875 2.171875 6.96875 1.921875 7.46875 1.421875 C 7.96875 0.929688 8.21875 0.164062 8.21875 -0.875 L 8.21875 -1.953125 C 7.875 -1.421875 7.414062 -1.015625 6.84375 -0.734375 C 6.269531 -0.453125 5.640625 -0.3125 4.953125 -0.3125 C 4.160156 -0.3125 3.441406 -0.484375 2.796875 -0.828125 C 2.160156 -1.179688 1.65625 -1.664062 1.28125 -2.28125 C 0.914062 -2.90625 0.734375 -3.613281 0.734375 -4.40625 C 0.734375 -5.195312 0.914062 -5.898438 1.28125 -6.515625 C 1.65625 -7.128906 2.160156 -7.609375 2.796875 -7.953125 C 3.429688 -8.296875 4.148438 -8.46875 4.953125 -8.46875 C 5.660156 -8.46875 6.300781 -8.320312 6.875 -8.03125 C 7.457031 -7.738281 7.921875 -7.320312 8.265625 -6.78125 L 8.265625 -8.40625 Z M 5.0625 -1.328125 C 5.664062 -1.328125 6.210938 -1.457031 6.703125 -1.71875 C 7.191406 -1.976562 7.570312 -2.34375 7.84375 -2.8125 C 8.113281 -3.28125 8.25 -3.8125 8.25 -4.40625 C 8.25 -5 8.113281 -5.523438 7.84375 -5.984375 C 7.570312 -6.453125 7.191406 -6.816406 6.703125 -7.078125 C 6.222656 -7.335938 5.675781 -7.46875 5.0625 -7.46875 C 4.457031 -7.46875 3.910156 -7.335938 3.421875 -7.078125 C 2.941406 -6.828125 2.566406 -6.46875 2.296875 -6 C 2.023438 -5.53125 1.890625 -5 1.890625 -4.40625 C 1.890625 -3.8125 2.023438 -3.28125 2.296875 -2.8125 C 2.566406 -2.34375 2.941406 -1.976562 3.421875 -1.71875 C 3.910156 -1.457031 4.457031 -1.328125 5.0625 -1.328125 Z M 5.0625 -1.328125 "/></g></g></g><g fill="#156669" fill-opacity="1"><g transform="translate(113.973956, 111.055626)"><g/></g></g><g fill="#156669" fill-opacity="1"><g transform="translate(117.518046, 111.055626)"><g><path d="M 3.828125 0.078125 C 3.148438 0.078125 2.5 -0.0195312 1.875 -0.21875 C 1.25 -0.414062 0.765625 -0.660156 0.421875 -0.953125 L 0.921875 -1.859375 C 1.273438 -1.578125 1.71875 -1.347656 2.25 -1.171875 C 2.78125 -0.992188 3.332031 -0.90625 3.90625 -0.90625 C 4.675781 -0.90625 5.242188 -1.023438 5.609375 -1.265625 C 5.972656 -1.503906 6.15625 -1.84375 6.15625 -2.28125 C 6.15625 -2.59375 6.054688 -2.835938 5.859375 -3.015625 C 5.660156 -3.191406 5.40625 -3.320312 5.09375 -3.40625 C 4.78125 -3.5 4.367188 -3.585938 3.859375 -3.671875 C 3.179688 -3.796875 2.632812 -3.925781 2.21875 -4.0625 C 1.800781 -4.195312 1.445312 -4.421875 1.15625 -4.734375 C 0.863281 -5.054688 0.71875 -5.5 0.71875 -6.0625 C 0.71875 -6.769531 1.007812 -7.347656 1.59375 -7.796875 C 2.175781 -8.242188 2.992188 -8.46875 4.046875 -8.46875 C 4.585938 -8.46875 5.128906 -8.394531 5.671875 -8.25 C 6.210938 -8.101562 6.660156 -7.914062 7.015625 -7.6875 L 6.515625 -6.765625 C 5.828125 -7.242188 5.003906 -7.484375 4.046875 -7.484375 C 3.316406 -7.484375 2.769531 -7.351562 2.40625 -7.09375 C 2.039062 -6.84375 1.859375 -6.507812 1.859375 -6.09375 C 1.859375 -5.78125 1.957031 -5.523438 2.15625 -5.328125 C 2.363281 -5.140625 2.625 -5 2.9375 -4.90625 C 3.25 -4.820312 3.675781 -4.726562 4.21875 -4.625 C 4.882812 -4.5 5.421875 -4.375 5.828125 -4.25 C 6.234375 -4.125 6.578125 -3.90625 6.859375 -3.59375 C 7.148438 -3.28125 7.296875 -2.851562 7.296875 -2.3125 C 7.296875 -1.582031 6.988281 -1 6.375 -0.5625 C 5.769531 -0.132812 4.921875 0.078125 3.828125 0.078125 Z M 3.828125 0.078125 "/></g></g></g><g fill="#156669" fill-opacity="1"><g transform="translate(124.68619, 111.055626)"><g><path d="M 5.90625 -8.46875 C 6.695312 -8.46875 7.410156 -8.285156 8.046875 -7.921875 C 8.679688 -7.566406 9.179688 -7.066406 9.546875 -6.421875 C 9.910156 -5.773438 10.09375 -5.035156 10.09375 -4.203125 C 10.09375 -3.359375 9.910156 -2.609375 9.546875 -1.953125 C 9.179688 -1.304688 8.679688 -0.804688 8.046875 -0.453125 C 7.421875 -0.0976562 6.707031 0.078125 5.90625 0.078125 C 5.226562 0.078125 4.613281 -0.0625 4.0625 -0.34375 C 3.507812 -0.625 3.0625 -1.035156 2.71875 -1.578125 L 2.71875 3.09375 L 1.578125 3.09375 L 1.578125 -8.40625 L 2.671875 -8.40625 L 2.671875 -6.734375 C 3.003906 -7.285156 3.453125 -7.710938 4.015625 -8.015625 C 4.578125 -8.316406 5.207031 -8.46875 5.90625 -8.46875 Z M 5.828125 -0.921875 C 6.410156 -0.921875 6.941406 -1.054688 7.421875 -1.328125 C 7.898438 -1.597656 8.273438 -1.984375 8.546875 -2.484375 C 8.816406 -2.984375 8.953125 -3.554688 8.953125 -4.203125 C 8.953125 -4.835938 8.816406 -5.398438 8.546875 -5.890625 C 8.273438 -6.390625 7.898438 -6.773438 7.421875 -7.046875 C 6.941406 -7.328125 6.410156 -7.46875 5.828125 -7.46875 C 5.234375 -7.46875 4.695312 -7.328125 4.21875 -7.046875 C 3.75 -6.773438 3.378906 -6.390625 3.109375 -5.890625 C 2.835938 -5.398438 2.703125 -4.835938 2.703125 -4.203125 C 2.703125 -3.554688 2.835938 -2.984375 3.109375 -2.484375 C 3.378906 -1.984375 3.75 -1.597656 4.21875 -1.328125 C 4.695312 -1.054688 5.234375 -0.921875 5.828125 -0.921875 Z M 5.828125 -0.921875 "/></g></g></g><g fill="#156669" fill-opacity="1"><g transform="translate(134.871729, 111.055626)"><g><path d="M 4.515625 -8.46875 C 5.609375 -8.46875 6.445312 -8.191406 7.03125 -7.640625 C 7.625 -7.085938 7.921875 -6.273438 7.921875 -5.203125 L 7.921875 0 L 6.828125 0 L 6.828125 -1.3125 C 6.578125 -0.875 6.203125 -0.53125 5.703125 -0.28125 C 5.210938 -0.0390625 4.625 0.078125 3.9375 0.078125 C 3 0.078125 2.253906 -0.144531 1.703125 -0.59375 C 1.148438 -1.039062 0.875 -1.628906 0.875 -2.359375 C 0.875 -3.078125 1.128906 -3.65625 1.640625 -4.09375 C 2.160156 -4.53125 2.988281 -4.75 4.125 -4.75 L 6.78125 -4.75 L 6.78125 -5.25 C 6.78125 -5.976562 6.578125 -6.53125 6.171875 -6.90625 C 5.773438 -7.28125 5.1875 -7.46875 4.40625 -7.46875 C 3.875 -7.46875 3.363281 -7.378906 2.875 -7.203125 C 2.382812 -7.035156 1.960938 -6.796875 1.609375 -6.484375 L 1.109375 -7.328125 C 1.523438 -7.691406 2.03125 -7.972656 2.625 -8.171875 C 3.226562 -8.367188 3.859375 -8.46875 4.515625 -8.46875 Z M 4.125 -0.8125 C 4.757812 -0.8125 5.304688 -0.957031 5.765625 -1.25 C 6.222656 -1.539062 6.5625 -1.960938 6.78125 -2.515625 L 6.78125 -3.890625 L 4.15625 -3.890625 C 2.71875 -3.890625 2 -3.390625 2 -2.390625 C 2 -1.898438 2.179688 -1.515625 2.546875 -1.234375 C 2.921875 -0.953125 3.445312 -0.8125 4.125 -0.8125 Z M 4.125 -0.8125 "/></g></g></g><g fill="#156669" fill-opacity="1"><g transform="translate(143.652349, 111.055626)"><g><path d="M 5.0625 0.078125 C 4.226562 0.078125 3.484375 -0.0976562 2.828125 -0.453125 C 2.179688 -0.816406 1.671875 -1.328125 1.296875 -1.984375 C 0.921875 -2.640625 0.734375 -3.378906 0.734375 -4.203125 C 0.734375 -5.015625 0.921875 -5.742188 1.296875 -6.390625 C 1.671875 -7.046875 2.179688 -7.554688 2.828125 -7.921875 C 3.484375 -8.285156 4.226562 -8.46875 5.0625 -8.46875 C 5.78125 -8.46875 6.425781 -8.320312 7 -8.03125 C 7.570312 -7.75 8.023438 -7.335938 8.359375 -6.796875 L 7.5 -6.234375 C 7.226562 -6.640625 6.878906 -6.945312 6.453125 -7.15625 C 6.023438 -7.363281 5.5625 -7.46875 5.0625 -7.46875 C 4.457031 -7.46875 3.910156 -7.332031 3.421875 -7.0625 C 2.941406 -6.789062 2.566406 -6.40625 2.296875 -5.90625 C 2.023438 -5.40625 1.890625 -4.835938 1.890625 -4.203125 C 1.890625 -3.546875 2.023438 -2.96875 2.296875 -2.46875 C 2.566406 -1.976562 2.941406 -1.597656 3.421875 -1.328125 C 3.910156 -1.054688 4.457031 -0.921875 5.0625 -0.921875 C 5.5625 -0.921875 6.023438 -1.019531 6.453125 -1.21875 C 6.878906 -1.425781 7.226562 -1.738281 7.5 -2.15625 L 8.359375 -1.578125 C 8.023438 -1.035156 7.566406 -0.625 6.984375 -0.34375 C 6.410156 -0.0625 5.769531 0.078125 5.0625 0.078125 Z M 5.0625 0.078125 "/></g></g></g><g fill="#156669" fill-opacity="1"><g transform="translate(152.00191, 111.055626)"><g><path d="M 8.890625 -3.84375 L 1.875 -3.84375 C 1.9375 -2.96875 2.269531 -2.257812 2.875 -1.71875 C 3.476562 -1.1875 4.242188 -0.921875 5.171875 -0.921875 C 5.691406 -0.921875 6.171875 -1.015625 6.609375 -1.203125 C 7.046875 -1.390625 7.425781 -1.664062 7.75 -2.03125 L 8.390625 -1.296875 C 8.015625 -0.847656 7.546875 -0.503906 6.984375 -0.265625 C 6.421875 -0.0351562 5.804688 0.078125 5.140625 0.078125 C 4.273438 0.078125 3.507812 -0.101562 2.84375 -0.46875 C 2.1875 -0.832031 1.671875 -1.335938 1.296875 -1.984375 C 0.921875 -2.640625 0.734375 -3.378906 0.734375 -4.203125 C 0.734375 -5.015625 0.910156 -5.742188 1.265625 -6.390625 C 1.617188 -7.046875 2.109375 -7.554688 2.734375 -7.921875 C 3.359375 -8.285156 4.0625 -8.46875 4.84375 -8.46875 C 5.613281 -8.46875 6.304688 -8.285156 6.921875 -7.921875 C 7.546875 -7.554688 8.03125 -7.050781 8.375 -6.40625 C 8.726562 -5.769531 8.90625 -5.035156 8.90625 -4.203125 Z M 4.84375 -7.484375 C 4.03125 -7.484375 3.347656 -7.222656 2.796875 -6.703125 C 2.253906 -6.191406 1.945312 -5.519531 1.875 -4.6875 L 7.828125 -4.6875 C 7.753906 -5.519531 7.441406 -6.191406 6.890625 -6.703125 C 6.335938 -7.222656 5.65625 -7.484375 4.84375 -7.484375 Z M 4.84375 -7.484375 "/></g></g></g><g fill="#156669" fill-opacity="1"><g transform="translate(161.006033, 111.055626)"><g/></g></g><g fill="#156669" fill-opacity="1"><g transform="translate(164.550122, 111.055626)"><g><path d="M 6 -0.515625 C 5.789062 -0.316406 5.53125 -0.164062 5.21875 -0.0625 C 4.90625 0.03125 4.578125 0.078125 4.234375 0.078125 C 3.441406 0.078125 2.832031 -0.132812 2.40625 -0.5625 C 1.976562 -0.988281 1.765625 -1.585938 1.765625 -2.359375 L 1.765625 -7.4375 L 0.265625 -7.4375 L 0.265625 -8.40625 L 1.765625 -8.40625 L 1.765625 -10.234375 L 2.90625 -10.234375 L 2.90625 -8.40625 L 5.46875 -8.40625 L 5.46875 -7.4375 L 2.90625 -7.4375 L 2.90625 -2.421875 C 2.90625 -1.921875 3.03125 -1.539062 3.28125 -1.28125 C 3.53125 -1.019531 3.890625 -0.890625 4.359375 -0.890625 C 4.585938 -0.890625 4.8125 -0.925781 5.03125 -1 C 5.25 -1.082031 5.441406 -1.191406 5.609375 -1.328125 Z M 6 -0.515625 "/></g></g></g><g fill="#156669" fill-opacity="1"><g transform="translate(170.393175, 111.055626)"><g><path d="M 5.015625 0.078125 C 4.203125 0.078125 3.472656 -0.101562 2.828125 -0.46875 C 2.179688 -0.832031 1.671875 -1.335938 1.296875 -1.984375 C 0.921875 -2.640625 0.734375 -3.378906 0.734375 -4.203125 C 0.734375 -5.015625 0.921875 -5.742188 1.296875 -6.390625 C 1.671875 -7.046875 2.179688 -7.554688 2.828125 -7.921875 C 3.472656 -8.285156 4.203125 -8.46875 5.015625 -8.46875 C 5.828125 -8.46875 6.554688 -8.285156 7.203125 -7.921875 C 7.847656 -7.554688 8.351562 -7.046875 8.71875 -6.390625 C 9.09375 -5.742188 9.28125 -5.015625 9.28125 -4.203125 C 9.28125 -3.378906 9.09375 -2.640625 8.71875 -1.984375 C 8.351562 -1.335938 7.847656 -0.832031 7.203125 -0.46875 C 6.554688 -0.101562 5.828125 0.078125 5.015625 0.078125 Z M 5.015625 -0.921875 C 5.609375 -0.921875 6.140625 -1.054688 6.609375 -1.328125 C 7.085938 -1.597656 7.457031 -1.984375 7.71875 -2.484375 C 7.988281 -2.984375 8.125 -3.554688 8.125 -4.203125 C 8.125 -4.835938 7.988281 -5.40625 7.71875 -5.90625 C 7.457031 -6.40625 7.085938 -6.789062 6.609375 -7.0625 C 6.140625 -7.332031 5.609375 -7.46875 5.015625 -7.46875 C 4.421875 -7.46875 3.882812 -7.332031 3.40625 -7.0625 C 2.9375 -6.789062 2.566406 -6.40625 2.296875 -5.90625 C 2.023438 -5.40625 1.890625 -4.835938 1.890625 -4.203125 C 1.890625 -3.554688 2.023438 -2.984375 2.296875 -2.484375 C 2.566406 -1.984375 2.9375 -1.597656 3.40625 -1.328125 C 3.882812 -1.054688 4.421875 -0.921875 5.015625 -0.921875 Z M 5.015625 -0.921875 "/></g></g></g><g fill="#156669" fill-opacity="1"><g transform="translate(179.764498, 111.055626)"><g/></g></g><g fill="#156669" fill-opacity="1"><g transform="translate(183.308587, 111.055626)"><g><path d="M 5.90625 -8.46875 C 6.695312 -8.46875 7.410156 -8.285156 8.046875 -7.921875 C 8.679688 -7.566406 9.179688 -7.066406 9.546875 -6.421875 C 9.910156 -5.773438 10.09375 -5.035156 10.09375 -4.203125 C 10.09375 -3.359375 9.910156 -2.609375 9.546875 -1.953125 C 9.179688 -1.304688 8.679688 -0.804688 8.046875 -0.453125 C 7.421875 -0.0976562 6.707031 0.078125 5.90625 0.078125 C 5.226562 0.078125 4.613281 -0.0625 4.0625 -0.34375 C 3.507812 -0.625 3.0625 -1.035156 2.71875 -1.578125 L 2.71875 3.09375 L 1.578125 3.09375 L 1.578125 -8.40625 L 2.671875 -8.40625 L 2.671875 -6.734375 C 3.003906 -7.285156 3.453125 -7.710938 4.015625 -8.015625 C 4.578125 -8.316406 5.207031 -8.46875 5.90625 -8.46875 Z M 5.828125 -0.921875 C 6.410156 -0.921875 6.941406 -1.054688 7.421875 -1.328125 C 7.898438 -1.597656 8.273438 -1.984375 8.546875 -2.484375 C 8.816406 -2.984375 8.953125 -3.554688 8.953125 -4.203125 C 8.953125 -4.835938 8.816406 -5.398438 8.546875 -5.890625 C 8.273438 -6.390625 7.898438 -6.773438 7.421875 -7.046875 C 6.941406 -7.328125 6.410156 -7.46875 5.828125 -7.46875 C 5.234375 -7.46875 4.695312 -7.328125 4.21875 -7.046875 C 3.75 -6.773438 3.378906 -6.390625 3.109375 -5.890625 C 2.835938 -5.398438 2.703125 -4.835938 2.703125 -4.203125 C 2.703125 -3.554688 2.835938 -2.984375 3.109375 -2.484375 C 3.378906 -1.984375 3.75 -1.597656 4.21875 -1.328125 C 4.695312 -1.054688 5.234375 -0.921875 5.828125 -0.921875 Z M 5.828125 -0.921875 "/></g></g></g><g fill="#156669" fill-opacity="1"><g transform="translate(193.494127, 111.055626)"><g><path d="M 2.671875 -6.75 C 2.929688 -7.3125 3.320312 -7.738281 3.84375 -8.03125 C 4.375 -8.320312 5.03125 -8.46875 5.8125 -8.46875 L 5.8125 -7.359375 L 5.546875 -7.375 C 4.660156 -7.375 3.96875 -7.101562 3.46875 -6.5625 C 2.96875 -6.019531 2.71875 -5.257812 2.71875 -4.28125 L 2.71875 0 L 1.578125 0 L 1.578125 -8.40625 L 2.671875 -8.40625 Z M 2.671875 -6.75 "/></g></g></g><g fill="#156669" fill-opacity="1"><g transform="translate(199.257352, 111.055626)"><g><path d="M 5.015625 0.078125 C 4.203125 0.078125 3.472656 -0.101562 2.828125 -0.46875 C 2.179688 -0.832031 1.671875 -1.335938 1.296875 -1.984375 C 0.921875 -2.640625 0.734375 -3.378906 0.734375 -4.203125 C 0.734375 -5.015625 0.921875 -5.742188 1.296875 -6.390625 C 1.671875 -7.046875 2.179688 -7.554688 2.828125 -7.921875 C 3.472656 -8.285156 4.203125 -8.46875 5.015625 -8.46875 C 5.828125 -8.46875 6.554688 -8.285156 7.203125 -7.921875 C 7.847656 -7.554688 8.351562 -7.046875 8.71875 -6.390625 C 9.09375 -5.742188 9.28125 -5.015625 9.28125 -4.203125 C 9.28125 -3.378906 9.09375 -2.640625 8.71875 -1.984375 C 8.351562 -1.335938 7.847656 -0.832031 7.203125 -0.46875 C 6.554688 -0.101562 5.828125 0.078125 5.015625 0.078125 Z M 5.015625 -0.921875 C 5.609375 -0.921875 6.140625 -1.054688 6.609375 -1.328125 C 7.085938 -1.597656 7.457031 -1.984375 7.71875 -2.484375 C 7.988281 -2.984375 8.125 -3.554688 8.125 -4.203125 C 8.125 -4.835938 7.988281 -5.40625 7.71875 -5.90625 C 7.457031 -6.40625 7.085938 -6.789062 6.609375 -7.0625 C 6.140625 -7.332031 5.609375 -7.46875 5.015625 -7.46875 C 4.421875 -7.46875 3.882812 -7.332031 3.40625 -7.0625 C 2.9375 -6.789062 2.566406 -6.40625 2.296875 -5.90625 C 2.023438 -5.40625 1.890625 -4.835938 1.890625 -4.203125 C 1.890625 -3.554688 2.023438 -2.984375 2.296875 -2.484375 C 2.566406 -1.984375 2.9375 -1.597656 3.40625 -1.328125 C 3.882812 -1.054688 4.421875 -0.921875 5.015625 -0.921875 Z M 5.015625 -0.921875 "/></g></g></g><g fill="#156669" fill-opacity="1"><g transform="translate(208.628675, 111.055626)"><g><path d="M 5.0625 0.078125 C 4.226562 0.078125 3.484375 -0.0976562 2.828125 -0.453125 C 2.179688 -0.816406 1.671875 -1.328125 1.296875 -1.984375 C 0.921875 -2.640625 0.734375 -3.378906 0.734375 -4.203125 C 0.734375 -5.015625 0.921875 -5.742188 1.296875 -6.390625 C 1.671875 -7.046875 2.179688 -7.554688 2.828125 -7.921875 C 3.484375 -8.285156 4.226562 -8.46875 5.0625 -8.46875 C 5.78125 -8.46875 6.425781 -8.320312 7 -8.03125 C 7.570312 -7.75 8.023438 -7.335938 8.359375 -6.796875 L 7.5 -6.234375 C 7.226562 -6.640625 6.878906 -6.945312 6.453125 -7.15625 C 6.023438 -7.363281 5.5625 -7.46875 5.0625 -7.46875 C 4.457031 -7.46875 3.910156 -7.332031 3.421875 -7.0625 C 2.941406 -6.789062 2.566406 -6.40625 2.296875 -5.90625 C 2.023438 -5.40625 1.890625 -4.835938 1.890625 -4.203125 C 1.890625 -3.546875 2.023438 -2.96875 2.296875 -2.46875 C 2.566406 -1.976562 2.941406 -1.597656 3.421875 -1.328125 C 3.910156 -1.054688 4.457031 -0.921875 5.0625 -0.921875 C 5.5625 -0.921875 6.023438 -1.019531 6.453125 -1.21875 C 6.878906 -1.425781 7.226562 -1.738281 7.5 -2.15625 L 8.359375 -1.578125 C 8.023438 -1.035156 7.566406 -0.625 6.984375 -0.34375 C 6.410156 -0.0625 5.769531 0.078125 5.0625 0.078125 Z M 5.0625 0.078125 "/></g></g></g><g fill="#156669" fill-opacity="1"><g transform="translate(216.978235, 111.055626)"><g><path d="M 8.890625 -3.84375 L 1.875 -3.84375 C 1.9375 -2.96875 2.269531 -2.257812 2.875 -1.71875 C 3.476562 -1.1875 4.242188 -0.921875 5.171875 -0.921875 C 5.691406 -0.921875 6.171875 -1.015625 6.609375 -1.203125 C 7.046875 -1.390625 7.425781 -1.664062 7.75 -2.03125 L 8.390625 -1.296875 C 8.015625 -0.847656 7.546875 -0.503906 6.984375 -0.265625 C 6.421875 -0.0351562 5.804688 0.078125 5.140625 0.078125 C 4.273438 0.078125 3.507812 -0.101562 2.84375 -0.46875 C 2.1875 -0.832031 1.671875 -1.335938 1.296875 -1.984375 C 0.921875 -2.640625 0.734375 -3.378906 0.734375 -4.203125 C 0.734375 -5.015625 0.910156 -5.742188 1.265625 -6.390625 C 1.617188 -7.046875 2.109375 -7.554688 2.734375 -7.921875 C 3.359375 -8.285156 4.0625 -8.46875 4.84375 -8.46875 C 5.613281 -8.46875 6.304688 -8.285156 6.921875 -7.921875 C 7.546875 -7.554688 8.03125 -7.050781 8.375 -6.40625 C 8.726562 -5.769531 8.90625 -5.035156 8.90625 -4.203125 Z M 4.84375 -7.484375 C 4.03125 -7.484375 3.347656 -7.222656 2.796875 -6.703125 C 2.253906 -6.191406 1.945312 -5.519531 1.875 -4.6875 L 7.828125 -4.6875 C 7.753906 -5.519531 7.441406 -6.191406 6.890625 -6.703125 C 6.335938 -7.222656 5.65625 -7.484375 4.84375 -7.484375 Z M 4.84375 -7.484375 "/></g></g></g><g fill="#156669" fill-opacity="1"><g transform="translate(225.982358, 111.055626)"><g><path d="M 3.828125 0.078125 C 3.148438 0.078125 2.5 -0.0195312 1.875 -0.21875 C 1.25 -0.414062 0.765625 -0.660156 0.421875 -0.953125 L 0.921875 -1.859375 C 1.273438 -1.578125 1.71875 -1.347656 2.25 -1.171875 C 2.78125 -0.992188 3.332031 -0.90625 3.90625 -0.90625 C 4.675781 -0.90625 5.242188 -1.023438 5.609375 -1.265625 C 5.972656 -1.503906 6.15625 -1.84375 6.15625 -2.28125 C 6.15625 -2.59375 6.054688 -2.835938 5.859375 -3.015625 C 5.660156 -3.191406 5.40625 -3.320312 5.09375 -3.40625 C 4.78125 -3.5 4.367188 -3.585938 3.859375 -3.671875 C 3.179688 -3.796875 2.632812 -3.925781 2.21875 -4.0625 C 1.800781 -4.195312 1.445312 -4.421875 1.15625 -4.734375 C 0.863281 -5.054688 0.71875 -5.5 0.71875 -6.0625 C 0.71875 -6.769531 1.007812 -7.347656 1.59375 -7.796875 C 2.175781 -8.242188 2.992188 -8.46875 4.046875 -8.46875 C 4.585938 -8.46875 5.128906 -8.394531 5.671875 -8.25 C 6.210938 -8.101562 6.660156 -7.914062 7.015625 -7.6875 L 6.515625 -6.765625 C 5.828125 -7.242188 5.003906 -7.484375 4.046875 -7.484375 C 3.316406 -7.484375 2.769531 -7.351562 2.40625 -7.09375 C 2.039062 -6.84375 1.859375 -6.507812 1.859375 -6.09375 C 1.859375 -5.78125 1.957031 -5.523438 2.15625 -5.328125 C 2.363281 -5.140625 2.625 -5 2.9375 -4.90625 C 3.25 -4.820312 3.675781 -4.726562 4.21875 -4.625 C 4.882812 -4.5 5.421875 -4.375 5.828125 -4.25 C 6.234375 -4.125 6.578125 -3.90625 6.859375 -3.59375 C 7.148438 -3.28125 7.296875 -2.851562 7.296875 -2.3125 C 7.296875 -1.582031 6.988281 -1 6.375 -0.5625 C 5.769531 -0.132812 4.921875 0.078125 3.828125 0.078125 Z M 3.828125 0.078125 "/></g></g></g><g fill="#156669" fill-opacity="1"><g transform="translate(233.150502, 111.055626)"><g><path d="M 3.828125 0.078125 C 3.148438 0.078125 2.5 -0.0195312 1.875 -0.21875 C 1.25 -0.414062 0.765625 -0.660156 0.421875 -0.953125 L 0.921875 -1.859375 C 1.273438 -1.578125 1.71875 -1.347656 2.25 -1.171875 C 2.78125 -0.992188 3.332031 -0.90625 3.90625 -0.90625 C 4.675781 -0.90625 5.242188 -1.023438 5.609375 -1.265625 C 5.972656 -1.503906 6.15625 -1.84375 6.15625 -2.28125 C 6.15625 -2.59375 6.054688 -2.835938 5.859375 -3.015625 C 5.660156 -3.191406 5.40625 -3.320312 5.09375 -3.40625 C 4.78125 -3.5 4.367188 -3.585938 3.859375 -3.671875 C 3.179688 -3.796875 2.632812 -3.925781 2.21875 -4.0625 C 1.800781 -4.195312 1.445312 -4.421875 1.15625 -4.734375 C 0.863281 -5.054688 0.71875 -5.5 0.71875 -6.0625 C 0.71875 -6.769531 1.007812 -7.347656 1.59375 -7.796875 C 2.175781 -8.242188 2.992188 -8.46875 4.046875 -8.46875 C 4.585938 -8.46875 5.128906 -8.394531 5.671875 -8.25 C 6.210938 -8.101562 6.660156 -7.914062 7.015625 -7.6875 L 6.515625 -6.765625 C 5.828125 -7.242188 5.003906 -7.484375 4.046875 -7.484375 C 3.316406 -7.484375 2.769531 -7.351562 2.40625 -7.09375 C 2.039062 -6.84375 1.859375 -6.507812 1.859375 -6.09375 C 1.859375 -5.78125 1.957031 -5.523438 2.15625 -5.328125 C 2.363281 -5.140625 2.625 -5 2.9375 -4.90625 C 3.25 -4.820312 3.675781 -4.726562 4.21875 -4.625 C 4.882812 -4.5 5.421875 -4.375 5.828125 -4.25 C 6.234375 -4.125 6.578125 -3.90625 6.859375 -3.59375 C 7.148438 -3.28125 7.296875 -2.851562 7.296875 -2.3125 C 7.296875 -1.582031 6.988281 -1 6.375 -0.5625 C 5.769531 -0.132812 4.921875 0.078125 3.828125 0.078125 Z M 3.828125 0.078125 "/></g></g></g><g fill="#156669" fill-opacity="1"><g transform="translate(240.318634, 111.055626)"><g/></g></g><g fill="#156669" fill-opacity="1"><g transform="translate(243.862713, 111.055626)"><g><path d="M 8.640625 -8.40625 L 4.4375 1 C 4.09375 1.789062 3.695312 2.347656 3.25 2.671875 C 2.8125 3.003906 2.273438 3.171875 1.640625 3.171875 C 1.234375 3.171875 0.851562 3.109375 0.5 2.984375 C 0.15625 2.859375 -0.144531 2.664062 -0.40625 2.40625 L 0.125 1.5625 C 0.550781 1.988281 1.0625 2.203125 1.65625 2.203125 C 2.039062 2.203125 2.367188 2.09375 2.640625 1.875 C 2.910156 1.664062 3.164062 1.304688 3.40625 0.796875 L 3.765625 -0.015625 L 0.015625 -8.40625 L 1.203125 -8.40625 L 4.359375 -1.265625 L 7.515625 -8.40625 Z M 8.640625 -8.40625 "/></g></g></g><g fill="#156669" fill-opacity="1"><g transform="translate(251.876997, 111.055626)"><g><path d="M 5.015625 0.078125 C 4.203125 0.078125 3.472656 -0.101562 2.828125 -0.46875 C 2.179688 -0.832031 1.671875 -1.335938 1.296875 -1.984375 C 0.921875 -2.640625 0.734375 -3.378906 0.734375 -4.203125 C 0.734375 -5.015625 0.921875 -5.742188 1.296875 -6.390625 C 1.671875 -7.046875 2.179688 -7.554688 2.828125 -7.921875 C 3.472656 -8.285156 4.203125 -8.46875 5.015625 -8.46875 C 5.828125 -8.46875 6.554688 -8.285156 7.203125 -7.921875 C 7.847656 -7.554688 8.351562 -7.046875 8.71875 -6.390625 C 9.09375 -5.742188 9.28125 -5.015625 9.28125 -4.203125 C 9.28125 -3.378906 9.09375 -2.640625 8.71875 -1.984375 C 8.351562 -1.335938 7.847656 -0.832031 7.203125 -0.46875 C 6.554688 -0.101562 5.828125 0.078125 5.015625 0.078125 Z M 5.015625 -0.921875 C 5.609375 -0.921875 6.140625 -1.054688 6.609375 -1.328125 C 7.085938 -1.597656 7.457031 -1.984375 7.71875 -2.484375 C 7.988281 -2.984375 8.125 -3.554688 8.125 -4.203125 C 8.125 -4.835938 7.988281 -5.40625 7.71875 -5.90625 C 7.457031 -6.40625 7.085938 -6.789062 6.609375 -7.0625 C 6.140625 -7.332031 5.609375 -7.46875 5.015625 -7.46875 C 4.421875 -7.46875 3.882812 -7.332031 3.40625 -7.0625 C 2.9375 -6.789062 2.566406 -6.40625 2.296875 -5.90625 C 2.023438 -5.40625 1.890625 -4.835938 1.890625 -4.203125 C 1.890625 -3.554688 2.023438 -2.984375 2.296875 -2.484375 C 2.566406 -1.984375 2.9375 -1.597656 3.40625 -1.328125 C 3.882812 -1.054688 4.421875 -0.921875 5.015625 -0.921875 Z M 5.015625 -0.921875 "/></g></g></g><g fill="#156669" fill-opacity="1"><g transform="translate(261.248308, 111.055626)"><g><path d="M 9.15625 -8.40625 L 9.15625 0 L 8.0625 0 L 8.0625 -1.53125 C 7.757812 -1.019531 7.347656 -0.625 6.828125 -0.34375 C 6.304688 -0.0625 5.710938 0.078125 5.046875 0.078125 C 3.953125 0.078125 3.085938 -0.222656 2.453125 -0.828125 C 1.816406 -1.441406 1.5 -2.34375 1.5 -3.53125 L 1.5 -8.40625 L 2.640625 -8.40625 L 2.640625 -3.640625 C 2.640625 -2.753906 2.851562 -2.082031 3.28125 -1.625 C 3.71875 -1.164062 4.34375 -0.9375 5.15625 -0.9375 C 6.039062 -0.9375 6.738281 -1.207031 7.25 -1.75 C 7.757812 -2.289062 8.015625 -3.039062 8.015625 -4 L 8.015625 -8.40625 Z M 9.15625 -8.40625 "/></g></g></g><g fill="#156669" fill-opacity="1"><g transform="translate(271.35402, 111.055626)"><g><path d="M 2.671875 -6.75 C 2.929688 -7.3125 3.320312 -7.738281 3.84375 -8.03125 C 4.375 -8.320312 5.03125 -8.46875 5.8125 -8.46875 L 5.8125 -7.359375 L 5.546875 -7.375 C 4.660156 -7.375 3.96875 -7.101562 3.46875 -6.5625 C 2.96875 -6.019531 2.71875 -5.257812 2.71875 -4.28125 L 2.71875 0 L 1.578125 0 L 1.578125 -8.40625 L 2.671875 -8.40625 Z M 2.671875 -6.75 "/></g></g></g><g fill="#156669" fill-opacity="1"><g transform="translate(38.396875, 135.008932)"><g><path d="M 6 -0.515625 C 5.789062 -0.316406 5.53125 -0.164062 5.21875 -0.0625 C 4.90625 0.03125 4.578125 0.078125 4.234375 0.078125 C 3.441406 0.078125 2.832031 -0.132812 2.40625 -0.5625 C 1.976562 -0.988281 1.765625 -1.585938 1.765625 -2.359375 L 1.765625 -7.4375 L 0.265625 -7.4375 L 0.265625 -8.40625 L 1.765625 -8.40625 L 1.765625 -10.234375 L 2.90625 -10.234375 L 2.90625 -8.40625 L 5.46875 -8.40625 L 5.46875 -7.4375 L 2.90625 -7.4375 L 2.90625 -2.421875 C 2.90625 -1.921875 3.03125 -1.539062 3.28125 -1.28125 C 3.53125 -1.019531 3.890625 -0.890625 4.359375 -0.890625 C 4.585938 -0.890625 4.8125 -0.925781 5.03125 -1 C 5.25 -1.082031 5.441406 -1.191406 5.609375 -1.328125 Z M 6 -0.515625 "/></g></g></g><g fill="#156669" fill-opacity="1"><g transform="translate(44.239924, 135.008932)"><g><path d="M 5.859375 -8.46875 C 6.910156 -8.46875 7.75 -8.160156 8.375 -7.546875 C 9 -6.929688 9.3125 -6.039062 9.3125 -4.875 L 9.3125 0 L 8.171875 0 L 8.171875 -4.765625 C 8.171875 -5.628906 7.953125 -6.289062 7.515625 -6.75 C 7.078125 -7.207031 6.457031 -7.4375 5.65625 -7.4375 C 4.75 -7.4375 4.03125 -7.164062 3.5 -6.625 C 2.976562 -6.09375 2.71875 -5.351562 2.71875 -4.40625 L 2.71875 0 L 1.578125 0 L 1.578125 -11.84375 L 2.71875 -11.84375 L 2.71875 -6.9375 C 3.019531 -7.425781 3.441406 -7.800781 3.984375 -8.0625 C 4.535156 -8.332031 5.160156 -8.46875 5.859375 -8.46875 Z M 5.859375 -8.46875 "/></g></g></g><g fill="#156669" fill-opacity="1"><g transform="translate(54.409493, 135.008932)"><g><path d="M 5.015625 0.078125 C 4.203125 0.078125 3.472656 -0.101562 2.828125 -0.46875 C 2.179688 -0.832031 1.671875 -1.335938 1.296875 -1.984375 C 0.921875 -2.640625 0.734375 -3.378906 0.734375 -4.203125 C 0.734375 -5.015625 0.921875 -5.742188 1.296875 -6.390625 C 1.671875 -7.046875 2.179688 -7.554688 2.828125 -7.921875 C 3.472656 -8.285156 4.203125 -8.46875 5.015625 -8.46875 C 5.828125 -8.46875 6.554688 -8.285156 7.203125 -7.921875 C 7.847656 -7.554688 8.351562 -7.046875 8.71875 -6.390625 C 9.09375 -5.742188 9.28125 -5.015625 9.28125 -4.203125 C 9.28125 -3.378906 9.09375 -2.640625 8.71875 -1.984375 C 8.351562 -1.335938 7.847656 -0.832031 7.203125 -0.46875 C 6.554688 -0.101562 5.828125 0.078125 5.015625 0.078125 Z M 5.015625 -0.921875 C 5.609375 -0.921875 6.140625 -1.054688 6.609375 -1.328125 C 7.085938 -1.597656 7.457031 -1.984375 7.71875 -2.484375 C 7.988281 -2.984375 8.125 -3.554688 8.125 -4.203125 C 8.125 -4.835938 7.988281 -5.40625 7.71875 -5.90625 C 7.457031 -6.40625 7.085938 -6.789062 6.609375 -7.0625 C 6.140625 -7.332031 5.609375 -7.46875 5.015625 -7.46875 C 4.421875 -7.46875 3.882812 -7.332031 3.40625 -7.0625 C 2.9375 -6.789062 2.566406 -6.40625 2.296875 -5.90625 C 2.023438 -5.40625 1.890625 -4.835938 1.890625 -4.203125 C 1.890625 -3.554688 2.023438 -2.984375 2.296875 -2.484375 C 2.566406 -1.984375 2.9375 -1.597656 3.40625 -1.328125 C 3.882812 -1.054688 4.421875 -0.921875 5.015625 -0.921875 Z M 5.015625 -0.921875 "/></g></g></g><g fill="#156669" fill-opacity="1"><g transform="translate(63.780813, 135.008932)"><g><path d="M 9.15625 -8.40625 L 9.15625 0 L 8.0625 0 L 8.0625 -1.53125 C 7.757812 -1.019531 7.347656 -0.625 6.828125 -0.34375 C 6.304688 -0.0625 5.710938 0.078125 5.046875 0.078125 C 3.953125 0.078125 3.085938 -0.222656 2.453125 -0.828125 C 1.816406 -1.441406 1.5 -2.34375 1.5 -3.53125 L 1.5 -8.40625 L 2.640625 -8.40625 L 2.640625 -3.640625 C 2.640625 -2.753906 2.851562 -2.082031 3.28125 -1.625 C 3.71875 -1.164062 4.34375 -0.9375 5.15625 -0.9375 C 6.039062 -0.9375 6.738281 -1.207031 7.25 -1.75 C 7.757812 -2.289062 8.015625 -3.039062 8.015625 -4 L 8.015625 -8.40625 Z M 9.15625 -8.40625 "/></g></g></g><g fill="#156669" fill-opacity="1"><g transform="translate(73.886522, 135.008932)"><g><path d="M 9.359375 -8.40625 L 9.359375 -1.015625 C 9.359375 0.410156 9.007812 1.460938 8.3125 2.140625 C 7.613281 2.828125 6.5625 3.171875 5.15625 3.171875 C 4.382812 3.171875 3.648438 3.054688 2.953125 2.828125 C 2.253906 2.597656 1.6875 2.285156 1.25 1.890625 L 1.828125 1.015625 C 2.222656 1.378906 2.710938 1.660156 3.296875 1.859375 C 3.878906 2.066406 4.488281 2.171875 5.125 2.171875 C 6.1875 2.171875 6.96875 1.921875 7.46875 1.421875 C 7.96875 0.929688 8.21875 0.164062 8.21875 -0.875 L 8.21875 -1.953125 C 7.875 -1.421875 7.414062 -1.015625 6.84375 -0.734375 C 6.269531 -0.453125 5.640625 -0.3125 4.953125 -0.3125 C 4.160156 -0.3125 3.441406 -0.484375 2.796875 -0.828125 C 2.160156 -1.179688 1.65625 -1.664062 1.28125 -2.28125 C 0.914062 -2.90625 0.734375 -3.613281 0.734375 -4.40625 C 0.734375 -5.195312 0.914062 -5.898438 1.28125 -6.515625 C 1.65625 -7.128906 2.160156 -7.609375 2.796875 -7.953125 C 3.429688 -8.296875 4.148438 -8.46875 4.953125 -8.46875 C 5.660156 -8.46875 6.300781 -8.320312 6.875 -8.03125 C 7.457031 -7.738281 7.921875 -7.320312 8.265625 -6.78125 L 8.265625 -8.40625 Z M 5.0625 -1.328125 C 5.664062 -1.328125 6.210938 -1.457031 6.703125 -1.71875 C 7.191406 -1.976562 7.570312 -2.34375 7.84375 -2.8125 C 8.113281 -3.28125 8.25 -3.8125 8.25 -4.40625 C 8.25 -5 8.113281 -5.523438 7.84375 -5.984375 C 7.570312 -6.453125 7.191406 -6.816406 6.703125 -7.078125 C 6.222656 -7.335938 5.675781 -7.46875 5.0625 -7.46875 C 4.457031 -7.46875 3.910156 -7.335938 3.421875 -7.078125 C 2.941406 -6.828125 2.566406 -6.46875 2.296875 -6 C 2.023438 -5.53125 1.890625 -5 1.890625 -4.40625 C 1.890625 -3.8125 2.023438 -3.28125 2.296875 -2.8125 C 2.566406 -2.34375 2.941406 -1.976562 3.421875 -1.71875 C 3.910156 -1.457031 4.457031 -1.328125 5.0625 -1.328125 Z M 5.0625 -1.328125 "/></g></g></g><g fill="#156669" fill-opacity="1"><g transform="translate(84.199777, 135.008932)"><g><path d="M 5.859375 -8.46875 C 6.910156 -8.46875 7.75 -8.160156 8.375 -7.546875 C 9 -6.929688 9.3125 -6.039062 9.3125 -4.875 L 9.3125 0 L 8.171875 0 L 8.171875 -4.765625 C 8.171875 -5.628906 7.953125 -6.289062 7.515625 -6.75 C 7.078125 -7.207031 6.457031 -7.4375 5.65625 -7.4375 C 4.75 -7.4375 4.03125 -7.164062 3.5 -6.625 C 2.976562 -6.09375 2.71875 -5.351562 2.71875 -4.40625 L 2.71875 0 L 1.578125 0 L 1.578125 -11.84375 L 2.71875 -11.84375 L 2.71875 -6.9375 C 3.019531 -7.425781 3.441406 -7.800781 3.984375 -8.0625 C 4.535156 -8.332031 5.160156 -8.46875 5.859375 -8.46875 Z M 5.859375 -8.46875 "/></g></g></g><g fill="#156669" fill-opacity="1"><g transform="translate(94.369346, 135.008932)"><g><path d="M 6 -0.515625 C 5.789062 -0.316406 5.53125 -0.164062 5.21875 -0.0625 C 4.90625 0.03125 4.578125 0.078125 4.234375 0.078125 C 3.441406 0.078125 2.832031 -0.132812 2.40625 -0.5625 C 1.976562 -0.988281 1.765625 -1.585938 1.765625 -2.359375 L 1.765625 -7.4375 L 0.265625 -7.4375 L 0.265625 -8.40625 L 1.765625 -8.40625 L 1.765625 -10.234375 L 2.90625 -10.234375 L 2.90625 -8.40625 L 5.46875 -8.40625 L 5.46875 -7.4375 L 2.90625 -7.4375 L 2.90625 -2.421875 C 2.90625 -1.921875 3.03125 -1.539062 3.28125 -1.28125 C 3.53125 -1.019531 3.890625 -0.890625 4.359375 -0.890625 C 4.585938 -0.890625 4.8125 -0.925781 5.03125 -1 C 5.25 -1.082031 5.441406 -1.191406 5.609375 -1.328125 Z M 6 -0.515625 "/></g></g></g><g fill="#156669" fill-opacity="1"><g transform="translate(100.212398, 135.008932)"><g><path d="M 3.828125 0.078125 C 3.148438 0.078125 2.5 -0.0195312 1.875 -0.21875 C 1.25 -0.414062 0.765625 -0.660156 0.421875 -0.953125 L 0.921875 -1.859375 C 1.273438 -1.578125 1.71875 -1.347656 2.25 -1.171875 C 2.78125 -0.992188 3.332031 -0.90625 3.90625 -0.90625 C 4.675781 -0.90625 5.242188 -1.023438 5.609375 -1.265625 C 5.972656 -1.503906 6.15625 -1.84375 6.15625 -2.28125 C 6.15625 -2.59375 6.054688 -2.835938 5.859375 -3.015625 C 5.660156 -3.191406 5.40625 -3.320312 5.09375 -3.40625 C 4.78125 -3.5 4.367188 -3.585938 3.859375 -3.671875 C 3.179688 -3.796875 2.632812 -3.925781 2.21875 -4.0625 C 1.800781 -4.195312 1.445312 -4.421875 1.15625 -4.734375 C 0.863281 -5.054688 0.71875 -5.5 0.71875 -6.0625 C 0.71875 -6.769531 1.007812 -7.347656 1.59375 -7.796875 C 2.175781 -8.242188 2.992188 -8.46875 4.046875 -8.46875 C 4.585938 -8.46875 5.128906 -8.394531 5.671875 -8.25 C 6.210938 -8.101562 6.660156 -7.914062 7.015625 -7.6875 L 6.515625 -6.765625 C 5.828125 -7.242188 5.003906 -7.484375 4.046875 -7.484375 C 3.316406 -7.484375 2.769531 -7.351562 2.40625 -7.09375 C 2.039062 -6.84375 1.859375 -6.507812 1.859375 -6.09375 C 1.859375 -5.78125 1.957031 -5.523438 2.15625 -5.328125 C 2.363281 -5.140625 2.625 -5 2.9375 -4.90625 C 3.25 -4.820312 3.675781 -4.726562 4.21875 -4.625 C 4.882812 -4.5 5.421875 -4.375 5.828125 -4.25 C 6.234375 -4.125 6.578125 -3.90625 6.859375 -3.59375 C 7.148438 -3.28125 7.296875 -2.851562 7.296875 -2.3125 C 7.296875 -1.582031 6.988281 -1 6.375 -0.5625 C 5.769531 -0.132812 4.921875 0.078125 3.828125 0.078125 Z M 3.828125 0.078125 "/></g></g></g><g fill="#156669" fill-opacity="1"><g transform="translate(107.380536, 135.008932)"><g/></g></g><g fill="#156669" fill-opacity="1"><g transform="translate(110.924626, 135.008932)"><g><path d="M 4.515625 -8.46875 C 5.609375 -8.46875 6.445312 -8.191406 7.03125 -7.640625 C 7.625 -7.085938 7.921875 -6.273438 7.921875 -5.203125 L 7.921875 0 L 6.828125 0 L 6.828125 -1.3125 C 6.578125 -0.875 6.203125 -0.53125 5.703125 -0.28125 C 5.210938 -0.0390625 4.625 0.078125 3.9375 0.078125 C 3 0.078125 2.253906 -0.144531 1.703125 -0.59375 C 1.148438 -1.039062 0.875 -1.628906 0.875 -2.359375 C 0.875 -3.078125 1.128906 -3.65625 1.640625 -4.09375 C 2.160156 -4.53125 2.988281 -4.75 4.125 -4.75 L 6.78125 -4.75 L 6.78125 -5.25 C 6.78125 -5.976562 6.578125 -6.53125 6.171875 -6.90625 C 5.773438 -7.28125 5.1875 -7.46875 4.40625 -7.46875 C 3.875 -7.46875 3.363281 -7.378906 2.875 -7.203125 C 2.382812 -7.035156 1.960938 -6.796875 1.609375 -6.484375 L 1.109375 -7.328125 C 1.523438 -7.691406 2.03125 -7.972656 2.625 -8.171875 C 3.226562 -8.367188 3.859375 -8.46875 4.515625 -8.46875 Z M 4.125 -0.8125 C 4.757812 -0.8125 5.304688 -0.957031 5.765625 -1.25 C 6.222656 -1.539062 6.5625 -1.960938 6.78125 -2.515625 L 6.78125 -3.890625 L 4.15625 -3.890625 C 2.71875 -3.890625 2 -3.390625 2 -2.390625 C 2 -1.898438 2.179688 -1.515625 2.546875 -1.234375 C 2.921875 -0.953125 3.445312 -0.8125 4.125 -0.8125 Z M 4.125 -0.8125 "/></g></g></g><g fill="#156669" fill-opacity="1"><g transform="translate(119.705247, 135.008932)"><g><path d="M 5.859375 -8.46875 C 6.910156 -8.46875 7.75 -8.160156 8.375 -7.546875 C 9 -6.929688 9.3125 -6.039062 9.3125 -4.875 L 9.3125 0 L 8.171875 0 L 8.171875 -4.765625 C 8.171875 -5.628906 7.953125 -6.289062 7.515625 -6.75 C 7.078125 -7.207031 6.457031 -7.4375 5.65625 -7.4375 C 4.75 -7.4375 4.03125 -7.164062 3.5 -6.625 C 2.976562 -6.09375 2.71875 -5.351562 2.71875 -4.40625 L 2.71875 0 L 1.578125 0 L 1.578125 -8.40625 L 2.671875 -8.40625 L 2.671875 -6.84375 C 2.972656 -7.351562 3.398438 -7.75 3.953125 -8.03125 C 4.503906 -8.320312 5.140625 -8.46875 5.859375 -8.46875 Z M 5.859375 -8.46875 "/></g></g></g><g fill="#156669" fill-opacity="1"><g transform="translate(129.874818, 135.008932)"><g><path d="M 9.25 -11.84375 L 9.25 0 L 8.15625 0 L 8.15625 -1.65625 C 7.820312 -1.09375 7.375 -0.660156 6.8125 -0.359375 C 6.25 -0.0664062 5.617188 0.078125 4.921875 0.078125 C 4.128906 0.078125 3.414062 -0.0976562 2.78125 -0.453125 C 2.144531 -0.816406 1.644531 -1.320312 1.28125 -1.96875 C 0.914062 -2.625 0.734375 -3.367188 0.734375 -4.203125 C 0.734375 -5.035156 0.914062 -5.773438 1.28125 -6.421875 C 1.644531 -7.066406 2.144531 -7.566406 2.78125 -7.921875 C 3.414062 -8.285156 4.128906 -8.46875 4.921875 -8.46875 C 5.597656 -8.46875 6.207031 -8.320312 6.75 -8.03125 C 7.300781 -7.75 7.753906 -7.335938 8.109375 -6.796875 L 8.109375 -11.84375 Z M 5.015625 -0.921875 C 5.597656 -0.921875 6.125 -1.054688 6.59375 -1.328125 C 7.070312 -1.597656 7.445312 -1.984375 7.71875 -2.484375 C 7.988281 -2.984375 8.125 -3.554688 8.125 -4.203125 C 8.125 -4.835938 7.988281 -5.40625 7.71875 -5.90625 C 7.445312 -6.40625 7.070312 -6.789062 6.59375 -7.0625 C 6.125 -7.332031 5.597656 -7.46875 5.015625 -7.46875 C 4.421875 -7.46875 3.882812 -7.332031 3.40625 -7.0625 C 2.9375 -6.789062 2.566406 -6.40625 2.296875 -5.90625 C 2.023438 -5.40625 1.890625 -4.835938 1.890625 -4.203125 C 1.890625 -3.554688 2.023438 -2.984375 2.296875 -2.484375 C 2.566406 -1.984375 2.9375 -1.597656 3.40625 -1.328125 C 3.882812 -1.054688 4.421875 -0.921875 5.015625 -0.921875 Z M 5.015625 -0.921875 "/></g></g></g><g fill="#156669" fill-opacity="1"><g transform="translate(140.060357, 135.008932)"><g/></g></g><g fill="#156669" fill-opacity="1"><g transform="translate(143.604447, 135.008932)"><g><path d="M 8.890625 -3.84375 L 1.875 -3.84375 C 1.9375 -2.96875 2.269531 -2.257812 2.875 -1.71875 C 3.476562 -1.1875 4.242188 -0.921875 5.171875 -0.921875 C 5.691406 -0.921875 6.171875 -1.015625 6.609375 -1.203125 C 7.046875 -1.390625 7.425781 -1.664062 7.75 -2.03125 L 8.390625 -1.296875 C 8.015625 -0.847656 7.546875 -0.503906 6.984375 -0.265625 C 6.421875 -0.0351562 5.804688 0.078125 5.140625 0.078125 C 4.273438 0.078125 3.507812 -0.101562 2.84375 -0.46875 C 2.1875 -0.832031 1.671875 -1.335938 1.296875 -1.984375 C 0.921875 -2.640625 0.734375 -3.378906 0.734375 -4.203125 C 0.734375 -5.015625 0.910156 -5.742188 1.265625 -6.390625 C 1.617188 -7.046875 2.109375 -7.554688 2.734375 -7.921875 C 3.359375 -8.285156 4.0625 -8.46875 4.84375 -8.46875 C 5.613281 -8.46875 6.304688 -8.285156 6.921875 -7.921875 C 7.546875 -7.554688 8.03125 -7.050781 8.375 -6.40625 C 8.726562 -5.769531 8.90625 -5.035156 8.90625 -4.203125 Z M 4.84375 -7.484375 C 4.03125 -7.484375 3.347656 -7.222656 2.796875 -6.703125 C 2.253906 -6.191406 1.945312 -5.519531 1.875 -4.6875 L 7.828125 -4.6875 C 7.753906 -5.519531 7.441406 -6.191406 6.890625 -6.703125 C 6.335938 -7.222656 5.65625 -7.484375 4.84375 -7.484375 Z M 4.84375 -7.484375 "/></g></g></g><g fill="#156669" fill-opacity="1"><g transform="translate(152.60857, 135.008932)"><g><path d="M 12.0625 -8.46875 C 13.113281 -8.46875 13.9375 -8.160156 14.53125 -7.546875 C 15.132812 -6.941406 15.4375 -6.050781 15.4375 -4.875 L 15.4375 0 L 14.3125 0 L 14.3125 -4.765625 C 14.3125 -5.628906 14.097656 -6.289062 13.671875 -6.75 C 13.253906 -7.207031 12.660156 -7.4375 11.890625 -7.4375 C 11.023438 -7.4375 10.34375 -7.164062 9.84375 -6.625 C 9.34375 -6.09375 9.09375 -5.351562 9.09375 -4.40625 L 9.09375 0 L 7.953125 0 L 7.953125 -4.765625 C 7.953125 -5.628906 7.738281 -6.289062 7.3125 -6.75 C 6.894531 -7.207031 6.300781 -7.4375 5.53125 -7.4375 C 4.664062 -7.4375 3.976562 -7.164062 3.46875 -6.625 C 2.96875 -6.09375 2.71875 -5.351562 2.71875 -4.40625 L 2.71875 0 L 1.578125 0 L 1.578125 -8.40625 L 2.671875 -8.40625 L 2.671875 -6.859375 C 2.960938 -7.378906 3.375 -7.773438 3.90625 -8.046875 C 4.4375 -8.328125 5.050781 -8.46875 5.75 -8.46875 C 6.445312 -8.46875 7.054688 -8.316406 7.578125 -8.015625 C 8.097656 -7.710938 8.484375 -7.269531 8.734375 -6.6875 C 9.046875 -7.238281 9.488281 -7.671875 10.0625 -7.984375 C 10.644531 -8.304688 11.3125 -8.46875 12.0625 -8.46875 Z M 12.0625 -8.46875 "/></g></g></g><g fill="#156669" fill-opacity="1"><g transform="translate(168.908715, 135.008932)"><g><path d="M 5.015625 0.078125 C 4.203125 0.078125 3.472656 -0.101562 2.828125 -0.46875 C 2.179688 -0.832031 1.671875 -1.335938 1.296875 -1.984375 C 0.921875 -2.640625 0.734375 -3.378906 0.734375 -4.203125 C 0.734375 -5.015625 0.921875 -5.742188 1.296875 -6.390625 C 1.671875 -7.046875 2.179688 -7.554688 2.828125 -7.921875 C 3.472656 -8.285156 4.203125 -8.46875 5.015625 -8.46875 C 5.828125 -8.46875 6.554688 -8.285156 7.203125 -7.921875 C 7.847656 -7.554688 8.351562 -7.046875 8.71875 -6.390625 C 9.09375 -5.742188 9.28125 -5.015625 9.28125 -4.203125 C 9.28125 -3.378906 9.09375 -2.640625 8.71875 -1.984375 C 8.351562 -1.335938 7.847656 -0.832031 7.203125 -0.46875 C 6.554688 -0.101562 5.828125 0.078125 5.015625 0.078125 Z M 5.015625 -0.921875 C 5.609375 -0.921875 6.140625 -1.054688 6.609375 -1.328125 C 7.085938 -1.597656 7.457031 -1.984375 7.71875 -2.484375 C 7.988281 -2.984375 8.125 -3.554688 8.125 -4.203125 C 8.125 -4.835938 7.988281 -5.40625 7.71875 -5.90625 C 7.457031 -6.40625 7.085938 -6.789062 6.609375 -7.0625 C 6.140625 -7.332031 5.609375 -7.46875 5.015625 -7.46875 C 4.421875 -7.46875 3.882812 -7.332031 3.40625 -7.0625 C 2.9375 -6.789062 2.566406 -6.40625 2.296875 -5.90625 C 2.023438 -5.40625 1.890625 -4.835938 1.890625 -4.203125 C 1.890625 -3.554688 2.023438 -2.984375 2.296875 -2.484375 C 2.566406 -1.984375 2.9375 -1.597656 3.40625 -1.328125 C 3.882812 -1.054688 4.421875 -0.921875 5.015625 -0.921875 Z M 5.015625 -0.921875 "/></g></g></g><g fill="#156669" fill-opacity="1"><g transform="translate(178.280038, 135.008932)"><g><path d="M 6 -0.515625 C 5.789062 -0.316406 5.53125 -0.164062 5.21875 -0.0625 C 4.90625 0.03125 4.578125 0.078125 4.234375 0.078125 C 3.441406 0.078125 2.832031 -0.132812 2.40625 -0.5625 C 1.976562 -0.988281 1.765625 -1.585938 1.765625 -2.359375 L 1.765625 -7.4375 L 0.265625 -7.4375 L 0.265625 -8.40625 L 1.765625 -8.40625 L 1.765625 -10.234375 L 2.90625 -10.234375 L 2.90625 -8.40625 L 5.46875 -8.40625 L 5.46875 -7.4375 L 2.90625 -7.4375 L 2.90625 -2.421875 C 2.90625 -1.921875 3.03125 -1.539062 3.28125 -1.28125 C 3.53125 -1.019531 3.890625 -0.890625 4.359375 -0.890625 C 4.585938 -0.890625 4.8125 -0.925781 5.03125 -1 C 5.25 -1.082031 5.441406 -1.191406 5.609375 -1.328125 Z M 6 -0.515625 "/></g></g></g><g fill="#156669" fill-opacity="1"><g transform="translate(184.12309, 135.008932)"><g><path d="M 1.578125 -8.40625 L 2.71875 -8.40625 L 2.71875 0 L 1.578125 0 Z M 2.15625 -10.234375 C 1.925781 -10.234375 1.726562 -10.3125 1.5625 -10.46875 C 1.40625 -10.632812 1.328125 -10.828125 1.328125 -11.046875 C 1.328125 -11.265625 1.40625 -11.453125 1.5625 -11.609375 C 1.726562 -11.765625 1.925781 -11.84375 2.15625 -11.84375 C 2.394531 -11.84375 2.59375 -11.765625 2.75 -11.609375 C 2.914062 -11.460938 3 -11.28125 3 -11.0625 C 3 -10.832031 2.914062 -10.632812 2.75 -10.46875 C 2.59375 -10.3125 2.394531 -10.234375 2.15625 -10.234375 Z M 2.15625 -10.234375 "/></g></g></g><g fill="#156669" fill-opacity="1"><g transform="translate(187.778931, 135.008932)"><g><path d="M 5.015625 0.078125 C 4.203125 0.078125 3.472656 -0.101562 2.828125 -0.46875 C 2.179688 -0.832031 1.671875 -1.335938 1.296875 -1.984375 C 0.921875 -2.640625 0.734375 -3.378906 0.734375 -4.203125 C 0.734375 -5.015625 0.921875 -5.742188 1.296875 -6.390625 C 1.671875 -7.046875 2.179688 -7.554688 2.828125 -7.921875 C 3.472656 -8.285156 4.203125 -8.46875 5.015625 -8.46875 C 5.828125 -8.46875 6.554688 -8.285156 7.203125 -7.921875 C 7.847656 -7.554688 8.351562 -7.046875 8.71875 -6.390625 C 9.09375 -5.742188 9.28125 -5.015625 9.28125 -4.203125 C 9.28125 -3.378906 9.09375 -2.640625 8.71875 -1.984375 C 8.351562 -1.335938 7.847656 -0.832031 7.203125 -0.46875 C 6.554688 -0.101562 5.828125 0.078125 5.015625 0.078125 Z M 5.015625 -0.921875 C 5.609375 -0.921875 6.140625 -1.054688 6.609375 -1.328125 C 7.085938 -1.597656 7.457031 -1.984375 7.71875 -2.484375 C 7.988281 -2.984375 8.125 -3.554688 8.125 -4.203125 C 8.125 -4.835938 7.988281 -5.40625 7.71875 -5.90625 C 7.457031 -6.40625 7.085938 -6.789062 6.609375 -7.0625 C 6.140625 -7.332031 5.609375 -7.46875 5.015625 -7.46875 C 4.421875 -7.46875 3.882812 -7.332031 3.40625 -7.0625 C 2.9375 -6.789062 2.566406 -6.40625 2.296875 -5.90625 C 2.023438 -5.40625 1.890625 -4.835938 1.890625 -4.203125 C 1.890625 -3.554688 2.023438 -2.984375 2.296875 -2.484375 C 2.566406 -1.984375 2.9375 -1.597656 3.40625 -1.328125 C 3.882812 -1.054688 4.421875 -0.921875 5.015625 -0.921875 Z M 5.015625 -0.921875 "/></g></g></g><g fill="#156669" fill-opacity="1"><g transform="translate(197.150254, 135.008932)"><g><path d="M 5.859375 -8.46875 C 6.910156 -8.46875 7.75 -8.160156 8.375 -7.546875 C 9 -6.929688 9.3125 -6.039062 9.3125 -4.875 L 9.3125 0 L 8.171875 0 L 8.171875 -4.765625 C 8.171875 -5.628906 7.953125 -6.289062 7.515625 -6.75 C 7.078125 -7.207031 6.457031 -7.4375 5.65625 -7.4375 C 4.75 -7.4375 4.03125 -7.164062 3.5 -6.625 C 2.976562 -6.09375 2.71875 -5.351562 2.71875 -4.40625 L 2.71875 0 L 1.578125 0 L 1.578125 -8.40625 L 2.671875 -8.40625 L 2.671875 -6.84375 C 2.972656 -7.351562 3.398438 -7.75 3.953125 -8.03125 C 4.503906 -8.320312 5.140625 -8.46875 5.859375 -8.46875 Z M 5.859375 -8.46875 "/></g></g></g><g fill="#156669" fill-opacity="1"><g transform="translate(207.319825, 135.008932)"><g><path d="M 3.828125 0.078125 C 3.148438 0.078125 2.5 -0.0195312 1.875 -0.21875 C 1.25 -0.414062 0.765625 -0.660156 0.421875 -0.953125 L 0.921875 -1.859375 C 1.273438 -1.578125 1.71875 -1.347656 2.25 -1.171875 C 2.78125 -0.992188 3.332031 -0.90625 3.90625 -0.90625 C 4.675781 -0.90625 5.242188 -1.023438 5.609375 -1.265625 C 5.972656 -1.503906 6.15625 -1.84375 6.15625 -2.28125 C 6.15625 -2.59375 6.054688 -2.835938 5.859375 -3.015625 C 5.660156 -3.191406 5.40625 -3.320312 5.09375 -3.40625 C 4.78125 -3.5 4.367188 -3.585938 3.859375 -3.671875 C 3.179688 -3.796875 2.632812 -3.925781 2.21875 -4.0625 C 1.800781 -4.195312 1.445312 -4.421875 1.15625 -4.734375 C 0.863281 -5.054688 0.71875 -5.5 0.71875 -6.0625 C 0.71875 -6.769531 1.007812 -7.347656 1.59375 -7.796875 C 2.175781 -8.242188 2.992188 -8.46875 4.046875 -8.46875 C 4.585938 -8.46875 5.128906 -8.394531 5.671875 -8.25 C 6.210938 -8.101562 6.660156 -7.914062 7.015625 -7.6875 L 6.515625 -6.765625 C 5.828125 -7.242188 5.003906 -7.484375 4.046875 -7.484375 C 3.316406 -7.484375 2.769531 -7.351562 2.40625 -7.09375 C 2.039062 -6.84375 1.859375 -6.507812 1.859375 -6.09375 C 1.859375 -5.78125 1.957031 -5.523438 2.15625 -5.328125 C 2.363281 -5.140625 2.625 -5 2.9375 -4.90625 C 3.25 -4.820312 3.675781 -4.726562 4.21875 -4.625 C 4.882812 -4.5 5.421875 -4.375 5.828125 -4.25 C 6.234375 -4.125 6.578125 -3.90625 6.859375 -3.59375 C 7.148438 -3.28125 7.296875 -2.851562 7.296875 -2.3125 C 7.296875 -1.582031 6.988281 -1 6.375 -0.5625 C 5.769531 -0.132812 4.921875 0.078125 3.828125 0.078125 Z M 3.828125 0.078125 "/></g></g></g><g fill="#156669" fill-opacity="1"><g transform="translate(214.487969, 135.008932)"><g><path d="M 1.6875 0.078125 C 1.457031 0.078125 1.257812 -0.00390625 1.09375 -0.171875 C 0.925781 -0.347656 0.84375 -0.554688 0.84375 -0.796875 C 0.84375 -1.046875 0.925781 -1.25 1.09375 -1.40625 C 1.257812 -1.570312 1.457031 -1.65625 1.6875 -1.65625 C 1.925781 -1.65625 2.128906 -1.570312 2.296875 -1.40625 C 2.472656 -1.25 2.5625 -1.046875 2.5625 -0.796875 C 2.5625 -0.554688 2.472656 -0.347656 2.296875 -0.171875 C 2.128906 -0.00390625 1.925781 0.078125 1.6875 0.078125 Z M 1.6875 0.078125 "/></g></g></g><g fill="#156669" fill-opacity="1"><g transform="translate(38.655984, 74.780638)"><g><path d="M 12.421875 -19.53125 L 12.421875 -5.09375 C 12.421875 -4.132812 12.515625 -3.429688 12.703125 -2.984375 C 12.898438 -2.535156 13.128906 -2.21875 13.390625 -2.03125 C 13.648438 -1.851562 13.878906 -1.6875 14.078125 -1.53125 C 14.273438 -1.382812 14.375 -1.132812 14.375 -0.78125 C 14.375 -0.5 14.25 -0.296875 14 -0.171875 C 13.75 -0.0546875 13.304688 0 12.671875 0 L 8.265625 0 C 7.128906 0 6.5625 -0.257812 6.5625 -0.78125 C 6.5625 -1.132812 6.664062 -1.382812 6.875 -1.53125 C 7.082031 -1.6875 7.316406 -1.851562 7.578125 -2.03125 C 7.835938 -2.21875 8.070312 -2.535156 8.28125 -2.984375 C 8.488281 -3.429688 8.59375 -4.132812 8.59375 -5.09375 L 8.59375 -19.5 C 8.59375 -20.03125 8.472656 -20.421875 8.234375 -20.671875 C 7.992188 -20.921875 7.578125 -21.046875 6.984375 -21.046875 C 6.203125 -21.046875 5.585938 -20.929688 5.140625 -20.703125 C 4.691406 -20.472656 4.3125 -20.125 4 -19.65625 C 3.6875 -19.1875 3.34375 -18.59375 2.96875 -17.875 C 2.53125 -17.019531 2.117188 -16.59375 1.734375 -16.59375 C 1.398438 -16.59375 1.191406 -16.71875 1.109375 -16.96875 C 1.023438 -17.21875 0.992188 -17.519531 1.015625 -17.875 C 1.035156 -18.71875 1.082031 -19.429688 1.15625 -20.015625 C 1.238281 -20.609375 1.34375 -21.144531 1.46875 -21.625 C 1.582031 -22.0625 1.804688 -22.378906 2.140625 -22.578125 C 2.472656 -22.773438 3.144531 -22.875 4.15625 -22.875 L 16.828125 -22.90625 C 17.847656 -22.90625 18.523438 -22.800781 18.859375 -22.59375 C 19.203125 -22.382812 19.425781 -22.0625 19.53125 -21.625 C 19.769531 -20.78125 19.925781 -19.539062 20 -17.90625 C 20.019531 -17.550781 19.976562 -17.25 19.875 -17 C 19.78125 -16.75 19.570312 -16.625 19.25 -16.625 C 18.875 -16.625 18.46875 -17.039062 18.03125 -17.875 C 17.664062 -18.59375 17.320312 -19.1875 17 -19.65625 C 16.6875 -20.125 16.304688 -20.476562 15.859375 -20.71875 C 15.410156 -20.957031 14.796875 -21.078125 14.015625 -21.078125 C 13.453125 -21.078125 13.046875 -20.953125 12.796875 -20.703125 C 12.546875 -20.453125 12.421875 -20.0625 12.421875 -19.53125 Z M 12.421875 -19.53125 "/></g></g></g><g fill="#156669" fill-opacity="1"><g transform="translate(59.012308, 74.780638)"><g><path d="M 10.90625 -16.015625 C 11.820312 -16.015625 12.503906 -15.757812 12.953125 -15.25 C 13.398438 -14.75 13.625 -14.148438 13.625 -13.453125 C 13.625 -12.929688 13.488281 -12.484375 13.21875 -12.109375 C 12.945312 -11.742188 12.601562 -11.5625 12.1875 -11.5625 C 11.8125 -11.5625 11.515625 -11.632812 11.296875 -11.78125 C 11.085938 -11.9375 10.898438 -12.117188 10.734375 -12.328125 C 10.566406 -12.535156 10.367188 -12.710938 10.140625 -12.859375 C 9.910156 -13.015625 9.601562 -13.09375 9.21875 -13.09375 C 8.5625 -13.09375 7.976562 -12.703125 7.46875 -11.921875 C 6.957031 -11.140625 6.703125 -10.09375 6.703125 -8.78125 L 6.703125 -4.40625 C 6.703125 -3.644531 6.773438 -3.078125 6.921875 -2.703125 C 7.078125 -2.335938 7.257812 -2.066406 7.46875 -1.890625 C 7.675781 -1.722656 7.851562 -1.566406 8 -1.421875 C 8.15625 -1.273438 8.234375 -1.039062 8.234375 -0.71875 C 8.234375 -0.4375 8.117188 -0.242188 7.890625 -0.140625 C 7.660156 -0.046875 7.328125 0 6.890625 0 L 2.78125 0 C 2.363281 0 2.03125 -0.0507812 1.78125 -0.15625 C 1.53125 -0.269531 1.40625 -0.46875 1.40625 -0.75 C 1.40625 -1.050781 1.484375 -1.273438 1.640625 -1.421875 C 1.804688 -1.566406 1.992188 -1.722656 2.203125 -1.890625 C 2.410156 -2.066406 2.59375 -2.335938 2.75 -2.703125 C 2.914062 -3.078125 3 -3.644531 3 -4.40625 L 3 -10.8125 C 3 -11.3125 2.921875 -11.742188 2.765625 -12.109375 C 2.617188 -12.484375 2.363281 -12.789062 2 -13.03125 C 1.84375 -13.144531 1.703125 -13.265625 1.578125 -13.390625 C 1.460938 -13.523438 1.40625 -13.691406 1.40625 -13.890625 C 1.40625 -14.109375 1.46875 -14.285156 1.59375 -14.421875 C 1.726562 -14.566406 1.992188 -14.722656 2.390625 -14.890625 C 2.972656 -15.160156 3.597656 -15.394531 4.265625 -15.59375 C 4.929688 -15.800781 5.382812 -15.914062 5.625 -15.9375 C 6.082031 -15.9375 6.3125 -15.65625 6.3125 -15.09375 L 6.265625 -12.84375 C 6.835938 -13.820312 7.535156 -14.59375 8.359375 -15.15625 C 9.191406 -15.726562 10.039062 -16.015625 10.90625 -16.015625 Z M 10.90625 -16.015625 "/></g></g></g><g fill="#156669" fill-opacity="1"><g transform="translate(73.160439, 74.780638)"><g><path d="M 17.515625 -2.25 C 17.929688 -2.289062 18.140625 -2.140625 18.140625 -1.796875 C 18.140625 -1.492188 17.988281 -1.179688 17.6875 -0.859375 C 17.394531 -0.546875 17.015625 -0.285156 16.546875 -0.078125 C 16.078125 0.128906 15.59375 0.234375 15.09375 0.234375 C 14.332031 0.234375 13.765625 0.0195312 13.390625 -0.40625 C 13.023438 -0.832031 12.753906 -1.445312 12.578125 -2.25 C 11.835938 -1.382812 10.953125 -0.742188 9.921875 -0.328125 C 8.898438 0.0859375 7.910156 0.296875 6.953125 0.296875 C 5.035156 0.296875 3.53125 -0.171875 2.4375 -1.109375 C 1.351562 -2.046875 0.8125 -3.210938 0.8125 -4.609375 C 0.8125 -5.648438 1.101562 -6.566406 1.6875 -7.359375 C 2.28125 -8.160156 3.101562 -8.789062 4.15625 -9.25 C 5.21875 -9.707031 6.46875 -9.9375 7.90625 -9.9375 C 8.46875 -9.9375 8.972656 -9.90625 9.421875 -9.84375 C 9.867188 -9.789062 10.390625 -9.710938 10.984375 -9.609375 C 10.785156 -10.390625 10.554688 -11.082031 10.296875 -11.6875 C 10.035156 -12.300781 9.671875 -12.78125 9.203125 -13.125 C 8.734375 -13.476562 8.0625 -13.65625 7.1875 -13.65625 C 6.363281 -13.65625 5.613281 -13.53125 4.9375 -13.28125 C 4.257812 -13.03125 3.601562 -12.71875 2.96875 -12.34375 C 2.664062 -12.15625 2.40625 -12.15625 2.1875 -12.34375 C 1.96875 -12.539062 1.96875 -12.828125 2.1875 -13.203125 C 2.46875 -13.609375 2.90625 -14.023438 3.5 -14.453125 C 4.101562 -14.878906 4.828125 -15.238281 5.671875 -15.53125 C 6.523438 -15.832031 7.457031 -15.984375 8.46875 -15.984375 C 9.769531 -15.984375 10.804688 -15.726562 11.578125 -15.21875 C 12.347656 -14.71875 12.945312 -14.066406 13.375 -13.265625 C 13.800781 -12.460938 14.125 -11.59375 14.34375 -10.65625 L 15.90625 -4.015625 C 16.082031 -3.273438 16.304688 -2.796875 16.578125 -2.578125 C 16.847656 -2.359375 17.160156 -2.25 17.515625 -2.25 Z M 8.203125 -1.640625 C 8.898438 -1.640625 9.554688 -1.785156 10.171875 -2.078125 C 10.796875 -2.367188 11.285156 -2.738281 11.640625 -3.1875 C 12.003906 -3.632812 12.144531 -4.085938 12.0625 -4.546875 C 12.007812 -4.867188 11.921875 -5.253906 11.796875 -5.703125 C 11.679688 -6.148438 11.539062 -6.6875 11.375 -7.3125 C 11.320312 -7.570312 11.128906 -7.785156 10.796875 -7.953125 C 10.460938 -8.117188 10.078125 -8.234375 9.640625 -8.296875 C 9.203125 -8.359375 8.8125 -8.390625 8.46875 -8.390625 C 7.15625 -8.390625 6.148438 -8.09375 5.453125 -7.5 C 4.753906 -6.914062 4.414062 -6.125 4.4375 -5.125 C 4.488281 -4.125 4.84375 -3.289062 5.5 -2.625 C 6.164062 -1.96875 7.066406 -1.640625 8.203125 -1.640625 Z M 8.203125 -1.640625 "/></g></g></g><g fill="#156669" fill-opacity="1"><g transform="translate(90.870116, 74.780638)"><g><path d="M 17.734375 -9.21875 L 18.8125 -3.5625 C 18.925781 -3.0625 19.070312 -2.675781 19.25 -2.40625 C 19.4375 -2.132812 19.625 -1.925781 19.8125 -1.78125 C 20 -1.632812 20.160156 -1.484375 20.296875 -1.328125 C 20.441406 -1.179688 20.515625 -0.976562 20.515625 -0.71875 C 20.515625 -0.4375 20.398438 -0.242188 20.171875 -0.140625 C 19.941406 -0.046875 19.609375 0 19.171875 0 L 15.15625 0 C 14.738281 0 14.398438 -0.0507812 14.140625 -0.15625 C 13.878906 -0.269531 13.75 -0.46875 13.75 -0.75 C 13.75 -1.007812 13.835938 -1.207031 14.015625 -1.34375 C 14.191406 -1.488281 14.375 -1.644531 14.5625 -1.8125 C 14.757812 -1.976562 14.921875 -2.207031 15.046875 -2.5 C 15.179688 -2.789062 15.195312 -3.195312 15.09375 -3.71875 L 14.109375 -9.015625 C 13.984375 -9.796875 13.800781 -10.535156 13.5625 -11.234375 C 13.320312 -11.929688 12.972656 -12.503906 12.515625 -12.953125 C 12.054688 -13.398438 11.390625 -13.613281 10.515625 -13.59375 C 9.890625 -13.59375 9.28125 -13.394531 8.6875 -13 C 8.101562 -12.613281 7.625 -12.035156 7.25 -11.265625 C 6.882812 -10.503906 6.703125 -9.554688 6.703125 -8.421875 L 6.703125 -4.40625 C 6.703125 -3.644531 6.773438 -3.078125 6.921875 -2.703125 C 7.078125 -2.335938 7.257812 -2.066406 7.46875 -1.890625 C 7.675781 -1.722656 7.851562 -1.566406 8 -1.421875 C 8.15625 -1.273438 8.234375 -1.039062 8.234375 -0.71875 C 8.234375 -0.4375 8.117188 -0.242188 7.890625 -0.140625 C 7.660156 -0.046875 7.328125 0 6.890625 0 L 2.78125 0 C 2.363281 0 2.03125 -0.0507812 1.78125 -0.15625 C 1.53125 -0.269531 1.40625 -0.46875 1.40625 -0.75 C 1.40625 -1.050781 1.484375 -1.273438 1.640625 -1.421875 C 1.804688 -1.566406 1.992188 -1.722656 2.203125 -1.890625 C 2.410156 -2.066406 2.59375 -2.335938 2.75 -2.703125 C 2.914062 -3.078125 3 -3.644531 3 -4.40625 L 3 -10.8125 C 3 -11.3125 2.921875 -11.742188 2.765625 -12.109375 C 2.617188 -12.484375 2.363281 -12.789062 2 -13.03125 C 1.84375 -13.144531 1.703125 -13.265625 1.578125 -13.390625 C 1.460938 -13.523438 1.40625 -13.691406 1.40625 -13.890625 C 1.40625 -14.109375 1.46875 -14.285156 1.59375 -14.421875 C 1.726562 -14.566406 1.992188 -14.722656 2.390625 -14.890625 C 2.972656 -15.160156 3.597656 -15.394531 4.265625 -15.59375 C 4.929688 -15.800781 5.382812 -15.914062 5.625 -15.9375 C 6.082031 -15.9375 6.3125 -15.65625 6.3125 -15.09375 L 6.265625 -12.671875 C 6.898438 -13.785156 7.722656 -14.617188 8.734375 -15.171875 C 9.753906 -15.734375 10.796875 -16.015625 11.859375 -16.015625 C 13.597656 -16.015625 14.910156 -15.460938 15.796875 -14.359375 C 16.679688 -13.253906 17.328125 -11.539062 17.734375 -9.21875 Z M 17.734375 -9.21875 "/></g></g></g><g fill="#156669" fill-opacity="1"><g transform="translate(110.997717, 74.780638)"><g><path d="M 16.890625 -15.09375 L 16.890625 2.125 C 16.890625 2.90625 16.96875 3.484375 17.125 3.859375 C 17.289062 4.242188 17.476562 4.53125 17.6875 4.71875 C 17.894531 4.90625 18.070312 5.0625 18.21875 5.1875 C 18.375 5.320312 18.453125 5.53125 18.453125 5.8125 C 18.453125 6.09375 18.332031 6.28125 18.09375 6.375 C 17.851562 6.476562 17.519531 6.53125 17.09375 6.53125 L 12.375 6.53125 C 11.96875 6.53125 11.640625 6.476562 11.390625 6.375 C 11.140625 6.28125 11.015625 6.09375 11.015625 5.8125 C 11.015625 5.488281 11.128906 5.265625 11.359375 5.140625 C 11.585938 5.023438 11.84375 4.894531 12.125 4.75 C 12.40625 4.613281 12.660156 4.351562 12.890625 3.96875 C 13.117188 3.582031 13.234375 2.96875 13.234375 2.125 L 13.234375 -2.453125 C 12.691406 -1.671875 11.984375 -1.007812 11.109375 -0.46875 C 10.234375 0.0625 9.21875 0.328125 8.0625 0.328125 C 6.65625 0.328125 5.425781 0.0078125 4.375 -0.625 C 3.332031 -1.269531 2.523438 -2.148438 1.953125 -3.265625 C 1.390625 -4.378906 1.109375 -5.632812 1.109375 -7.03125 C 1.109375 -8.375 1.335938 -9.59375 1.796875 -10.6875 C 2.253906 -11.789062 2.867188 -12.738281 3.640625 -13.53125 C 4.410156 -14.332031 5.269531 -14.945312 6.21875 -15.375 C 7.164062 -15.800781 8.140625 -16.015625 9.140625 -16.015625 C 9.972656 -16.015625 10.671875 -15.9375 11.234375 -15.78125 C 11.804688 -15.625 12.289062 -15.46875 12.6875 -15.3125 C 13.09375 -15.164062 13.445312 -15.09375 13.75 -15.09375 C 14.144531 -15.09375 14.460938 -15.164062 14.703125 -15.3125 C 14.941406 -15.46875 15.164062 -15.625 15.375 -15.78125 C 15.582031 -15.9375 15.828125 -16.015625 16.109375 -16.015625 C 16.628906 -16.015625 16.890625 -15.707031 16.890625 -15.09375 Z M 9.46875 -2.09375 C 10.34375 -2.09375 11.050781 -2.347656 11.59375 -2.859375 C 12.144531 -3.367188 12.554688 -4.03125 12.828125 -4.84375 C 13.097656 -5.664062 13.234375 -6.515625 13.234375 -7.390625 C 13.234375 -8.078125 13.179688 -8.820312 13.078125 -9.625 C 12.984375 -10.4375 12.785156 -11.140625 12.484375 -11.734375 C 11.609375 -13.359375 10.34375 -14.171875 8.6875 -14.171875 C 7.425781 -14.171875 6.441406 -13.675781 5.734375 -12.6875 C 5.023438 -11.695312 4.671875 -10.421875 4.671875 -8.859375 C 4.671875 -7.441406 4.90625 -6.222656 5.375 -5.203125 C 5.84375 -4.191406 6.445312 -3.421875 7.1875 -2.890625 C 7.925781 -2.359375 8.6875 -2.09375 9.46875 -2.09375 Z M 9.46875 -2.09375 "/></g></g></g><g fill="#156669" fill-opacity="1"><g transform="translate(129.491582, 74.780638)"><g><path d="M 17.515625 -15.15625 L 17.484375 -10.65625 L 17.484375 -4.578125 C 17.484375 -3.960938 17.578125 -3.515625 17.765625 -3.234375 C 17.960938 -2.953125 18.1875 -2.753906 18.4375 -2.640625 C 18.6875 -2.535156 18.910156 -2.429688 19.109375 -2.328125 C 19.304688 -2.234375 19.40625 -2.066406 19.40625 -1.828125 C 19.40625 -1.484375 19.085938 -1.125 18.453125 -0.75 C 18.003906 -0.507812 17.445312 -0.269531 16.78125 -0.03125 C 16.113281 0.207031 15.5625 0.328125 15.125 0.328125 C 14.707031 0.328125 14.40625 0.175781 14.21875 -0.125 C 14.039062 -0.4375 13.929688 -0.894531 13.890625 -1.5 L 13.859375 -2.578125 C 13.179688 -1.640625 12.335938 -0.921875 11.328125 -0.421875 C 10.328125 0.078125 9.382812 0.328125 8.5 0.328125 C 6.820312 0.328125 5.484375 -0.210938 4.484375 -1.296875 C 3.492188 -2.390625 3 -4.023438 3 -6.203125 L 2.96875 -10.65625 C 2.96875 -11.300781 2.890625 -11.78125 2.734375 -12.09375 C 2.585938 -12.414062 2.410156 -12.65625 2.203125 -12.8125 C 1.992188 -12.976562 1.804688 -13.117188 1.640625 -13.234375 C 1.484375 -13.359375 1.40625 -13.550781 1.40625 -13.8125 C 1.40625 -14.007812 1.46875 -14.171875 1.59375 -14.296875 C 1.726562 -14.429688 1.992188 -14.585938 2.390625 -14.765625 C 3.085938 -15.085938 3.804688 -15.367188 4.546875 -15.609375 C 5.285156 -15.859375 5.773438 -15.992188 6.015625 -16.015625 C 6.492188 -16.035156 6.734375 -15.75 6.734375 -15.15625 L 6.703125 -10.65625 L 6.703125 -6.5 C 6.703125 -5.144531 6.925781 -4.0625 7.375 -3.25 C 7.832031 -2.4375 8.617188 -2.039062 9.734375 -2.0625 C 10.390625 -2.082031 11.023438 -2.289062 11.640625 -2.6875 C 12.265625 -3.09375 12.773438 -3.660156 13.171875 -4.390625 C 13.578125 -5.117188 13.78125 -5.972656 13.78125 -6.953125 L 13.78125 -10.65625 C 13.78125 -11.300781 13.695312 -11.78125 13.53125 -12.09375 C 13.375 -12.414062 13.191406 -12.65625 12.984375 -12.8125 C 12.773438 -12.976562 12.585938 -13.117188 12.421875 -13.234375 C 12.265625 -13.359375 12.1875 -13.550781 12.1875 -13.8125 C 12.1875 -14.007812 12.25 -14.171875 12.375 -14.296875 C 12.507812 -14.429688 12.773438 -14.585938 13.171875 -14.765625 C 13.867188 -15.085938 14.585938 -15.367188 15.328125 -15.609375 C 16.066406 -15.859375 16.554688 -15.992188 16.796875 -16.015625 C 17.273438 -16.035156 17.515625 -15.75 17.515625 -15.15625 Z M 17.515625 -15.15625 "/></g></g></g><g fill="#156669" fill-opacity="1"><g transform="translate(149.553839, 74.780638)"><g><path d="M 3.71875 -18.140625 C 3.175781 -18.160156 2.742188 -18.34375 2.421875 -18.6875 C 2.109375 -19.039062 1.96875 -19.457031 2 -19.9375 C 2.019531 -20.382812 2.179688 -20.828125 2.484375 -21.265625 C 2.785156 -21.703125 3.175781 -22.054688 3.65625 -22.328125 C 4.132812 -22.597656 4.625 -22.710938 5.125 -22.671875 C 5.625 -22.648438 6.046875 -22.457031 6.390625 -22.09375 C 6.742188 -21.738281 6.910156 -21.3125 6.890625 -20.8125 C 6.867188 -20.351562 6.691406 -19.914062 6.359375 -19.5 C 6.035156 -19.09375 5.640625 -18.753906 5.171875 -18.484375 C 4.703125 -18.222656 4.21875 -18.109375 3.71875 -18.140625 Z M 3.03125 -4.40625 L 3 -10.65625 C 3 -11.28125 2.921875 -11.753906 2.765625 -12.078125 C 2.617188 -12.410156 2.441406 -12.648438 2.234375 -12.796875 C 2.023438 -12.953125 1.835938 -13.09375 1.671875 -13.21875 C 1.515625 -13.351562 1.4375 -13.550781 1.4375 -13.8125 C 1.4375 -13.988281 1.5 -14.140625 1.625 -14.265625 C 1.757812 -14.398438 2.023438 -14.554688 2.421875 -14.734375 C 3.117188 -15.078125 3.835938 -15.367188 4.578125 -15.609375 C 5.316406 -15.859375 5.804688 -15.992188 6.046875 -16.015625 C 6.523438 -16.015625 6.765625 -15.726562 6.765625 -15.15625 L 6.734375 -10.65625 L 6.734375 -4.40625 C 6.734375 -3.644531 6.804688 -3.078125 6.953125 -2.703125 C 7.109375 -2.335938 7.289062 -2.066406 7.5 -1.890625 C 7.707031 -1.722656 7.882812 -1.566406 8.03125 -1.421875 C 8.1875 -1.273438 8.265625 -1.039062 8.265625 -0.71875 C 8.265625 -0.4375 8.148438 -0.242188 7.921875 -0.140625 C 7.691406 -0.046875 7.359375 0 6.921875 0 L 2.84375 0 C 2.425781 0 2.085938 -0.0507812 1.828125 -0.15625 C 1.566406 -0.269531 1.4375 -0.46875 1.4375 -0.75 C 1.4375 -1.050781 1.515625 -1.273438 1.671875 -1.421875 C 1.835938 -1.566406 2.023438 -1.722656 2.234375 -1.890625 C 2.441406 -2.066406 2.625 -2.335938 2.78125 -2.703125 C 2.945312 -3.078125 3.03125 -3.644531 3.03125 -4.40625 Z M 3.03125 -4.40625 "/></g></g></g><g fill="#156669" fill-opacity="1"><g transform="translate(158.47402, 74.780638)"><g><path d="M 2.96875 -4.40625 L 2.9375 -17.84375 C 2.9375 -18.488281 2.859375 -18.96875 2.703125 -19.28125 C 2.554688 -19.601562 2.378906 -19.84375 2.171875 -20 C 1.960938 -20.164062 1.773438 -20.304688 1.609375 -20.421875 C 1.453125 -20.546875 1.375 -20.742188 1.375 -21.015625 C 1.375 -21.203125 1.4375 -21.359375 1.5625 -21.484375 C 1.695312 -21.617188 1.960938 -21.773438 2.359375 -21.953125 C 3.046875 -22.285156 3.757812 -22.570312 4.5 -22.8125 C 5.25 -23.050781 5.742188 -23.179688 5.984375 -23.203125 C 6.460938 -23.222656 6.703125 -22.9375 6.703125 -22.34375 L 6.671875 -17.84375 L 6.671875 -4.40625 C 6.671875 -3.644531 6.742188 -3.078125 6.890625 -2.703125 C 7.046875 -2.335938 7.226562 -2.066406 7.4375 -1.890625 C 7.644531 -1.722656 7.820312 -1.566406 7.96875 -1.421875 C 8.125 -1.273438 8.203125 -1.039062 8.203125 -0.71875 C 8.203125 -0.4375 8.085938 -0.242188 7.859375 -0.140625 C 7.628906 -0.046875 7.296875 0 6.859375 0 L 2.75 0 C 2.332031 0 2 -0.0507812 1.75 -0.15625 C 1.5 -0.269531 1.375 -0.46875 1.375 -0.75 C 1.375 -1.050781 1.453125 -1.273438 1.609375 -1.421875 C 1.773438 -1.566406 1.960938 -1.722656 2.171875 -1.890625 C 2.378906 -2.066406 2.5625 -2.335938 2.71875 -2.703125 C 2.882812 -3.078125 2.96875 -3.644531 2.96875 -4.40625 Z M 2.96875 -4.40625 "/></g></g></g><g fill="#156669" fill-opacity="1"><g transform="translate(167.328863, 74.780638)"><g><path d="M 3.71875 -18.140625 C 3.175781 -18.160156 2.742188 -18.34375 2.421875 -18.6875 C 2.109375 -19.039062 1.96875 -19.457031 2 -19.9375 C 2.019531 -20.382812 2.179688 -20.828125 2.484375 -21.265625 C 2.785156 -21.703125 3.175781 -22.054688 3.65625 -22.328125 C 4.132812 -22.597656 4.625 -22.710938 5.125 -22.671875 C 5.625 -22.648438 6.046875 -22.457031 6.390625 -22.09375 C 6.742188 -21.738281 6.910156 -21.3125 6.890625 -20.8125 C 6.867188 -20.351562 6.691406 -19.914062 6.359375 -19.5 C 6.035156 -19.09375 5.640625 -18.753906 5.171875 -18.484375 C 4.703125 -18.222656 4.21875 -18.109375 3.71875 -18.140625 Z M 3.03125 -4.40625 L 3 -10.65625 C 3 -11.28125 2.921875 -11.753906 2.765625 -12.078125 C 2.617188 -12.410156 2.441406 -12.648438 2.234375 -12.796875 C 2.023438 -12.953125 1.835938 -13.09375 1.671875 -13.21875 C 1.515625 -13.351562 1.4375 -13.550781 1.4375 -13.8125 C 1.4375 -13.988281 1.5 -14.140625 1.625 -14.265625 C 1.757812 -14.398438 2.023438 -14.554688 2.421875 -14.734375 C 3.117188 -15.078125 3.835938 -15.367188 4.578125 -15.609375 C 5.316406 -15.859375 5.804688 -15.992188 6.046875 -16.015625 C 6.523438 -16.015625 6.765625 -15.726562 6.765625 -15.15625 L 6.734375 -10.65625 L 6.734375 -4.40625 C 6.734375 -3.644531 6.804688 -3.078125 6.953125 -2.703125 C 7.109375 -2.335938 7.289062 -2.066406 7.5 -1.890625 C 7.707031 -1.722656 7.882812 -1.566406 8.03125 -1.421875 C 8.1875 -1.273438 8.265625 -1.039062 8.265625 -0.71875 C 8.265625 -0.4375 8.148438 -0.242188 7.921875 -0.140625 C 7.691406 -0.046875 7.359375 0 6.921875 0 L 2.84375 0 C 2.425781 0 2.085938 -0.0507812 1.828125 -0.15625 C 1.566406 -0.269531 1.4375 -0.46875 1.4375 -0.75 C 1.4375 -1.050781 1.515625 -1.273438 1.671875 -1.421875 C 1.835938 -1.566406 2.023438 -1.722656 2.234375 -1.890625 C 2.441406 -2.066406 2.625 -2.335938 2.78125 -2.703125 C 2.945312 -3.078125 3.03125 -3.644531 3.03125 -4.40625 Z M 3.03125 -4.40625 "/></g></g></g><g fill="#156669" fill-opacity="1"><g transform="translate(176.249044, 74.780638)"><g><path d="M 8.65625 -8.59375 L 2.0625 -8.59375 C 1.539062 -8.59375 1.332031 -8.832031 1.4375 -9.3125 L 1.5625 -9.765625 C 1.65625 -10.203125 1.929688 -10.421875 2.390625 -10.421875 L 8.984375 -10.421875 C 9.523438 -10.421875 9.734375 -10.179688 9.609375 -9.703125 L 9.46875 -9.25 C 9.382812 -8.8125 9.113281 -8.59375 8.65625 -8.59375 Z M 8.65625 -8.59375 "/></g></g></g><g fill="#156669" fill-opacity="1"><g transform="translate(186.704941, 74.780638)"><g><path d="M 12.421875 -19.53125 L 12.421875 -5.09375 C 12.421875 -4.132812 12.515625 -3.429688 12.703125 -2.984375 C 12.898438 -2.535156 13.128906 -2.21875 13.390625 -2.03125 C 13.648438 -1.851562 13.878906 -1.6875 14.078125 -1.53125 C 14.273438 -1.382812 14.375 -1.132812 14.375 -0.78125 C 14.375 -0.5 14.25 -0.296875 14 -0.171875 C 13.75 -0.0546875 13.304688 0 12.671875 0 L 8.265625 0 C 7.128906 0 6.5625 -0.257812 6.5625 -0.78125 C 6.5625 -1.132812 6.664062 -1.382812 6.875 -1.53125 C 7.082031 -1.6875 7.316406 -1.851562 7.578125 -2.03125 C 7.835938 -2.21875 8.070312 -2.535156 8.28125 -2.984375 C 8.488281 -3.429688 8.59375 -4.132812 8.59375 -5.09375 L 8.59375 -19.5 C 8.59375 -20.03125 8.472656 -20.421875 8.234375 -20.671875 C 7.992188 -20.921875 7.578125 -21.046875 6.984375 -21.046875 C 6.203125 -21.046875 5.585938 -20.929688 5.140625 -20.703125 C 4.691406 -20.472656 4.3125 -20.125 4 -19.65625 C 3.6875 -19.1875 3.34375 -18.59375 2.96875 -17.875 C 2.53125 -17.019531 2.117188 -16.59375 1.734375 -16.59375 C 1.398438 -16.59375 1.191406 -16.71875 1.109375 -16.96875 C 1.023438 -17.21875 0.992188 -17.519531 1.015625 -17.875 C 1.035156 -18.71875 1.082031 -19.429688 1.15625 -20.015625 C 1.238281 -20.609375 1.34375 -21.144531 1.46875 -21.625 C 1.582031 -22.0625 1.804688 -22.378906 2.140625 -22.578125 C 2.472656 -22.773438 3.144531 -22.875 4.15625 -22.875 L 16.828125 -22.90625 C 17.847656 -22.90625 18.523438 -22.800781 18.859375 -22.59375 C 19.203125 -22.382812 19.425781 -22.0625 19.53125 -21.625 C 19.769531 -20.78125 19.925781 -19.539062 20 -17.90625 C 20.019531 -17.550781 19.976562 -17.25 19.875 -17 C 19.78125 -16.75 19.570312 -16.625 19.25 -16.625 C 18.875 -16.625 18.46875 -17.039062 18.03125 -17.875 C 17.664062 -18.59375 17.320312 -19.1875 17 -19.65625 C 16.6875 -20.125 16.304688 -20.476562 15.859375 -20.71875 C 15.410156 -20.957031 14.796875 -21.078125 14.015625 -21.078125 C 13.453125 -21.078125 13.046875 -20.953125 12.796875 -20.703125 C 12.546875 -20.453125 12.421875 -20.0625 12.421875 -19.53125 Z M 12.421875 -19.53125 "/></g></g></g><g fill="#156669" fill-opacity="1"><g transform="translate(207.061271, 74.780638)"><g><path d="M 15.328125 -4.609375 C 15.628906 -4.910156 15.910156 -4.972656 16.171875 -4.796875 C 16.429688 -4.628906 16.472656 -4.328125 16.296875 -3.890625 C 16.085938 -3.316406 15.660156 -2.703125 15.015625 -2.046875 C 14.367188 -1.398438 13.523438 -0.84375 12.484375 -0.375 C 11.453125 0.09375 10.234375 0.328125 8.828125 0.328125 C 7.296875 0.328125 5.945312 -0.00390625 4.78125 -0.671875 C 3.613281 -1.335938 2.707031 -2.242188 2.0625 -3.390625 C 1.425781 -4.546875 1.109375 -5.851562 1.109375 -7.3125 C 1.109375 -8.96875 1.476562 -10.445312 2.21875 -11.75 C 2.957031 -13.0625 3.960938 -14.097656 5.234375 -14.859375 C 6.515625 -15.628906 7.925781 -16.015625 9.46875 -16.015625 C 11.34375 -16.015625 12.847656 -15.523438 13.984375 -14.546875 C 15.117188 -13.578125 15.816406 -12.398438 16.078125 -11.015625 C 16.117188 -10.722656 16.085938 -10.460938 15.984375 -10.234375 C 15.890625 -10.015625 15.671875 -9.835938 15.328125 -9.703125 C 13.597656 -8.984375 11.929688 -8.328125 10.328125 -7.734375 C 8.734375 -7.148438 7.035156 -6.539062 5.234375 -5.90625 C 5.441406 -5.34375 5.769531 -4.789062 6.21875 -4.25 C 6.664062 -3.707031 7.234375 -3.253906 7.921875 -2.890625 C 8.609375 -2.535156 9.421875 -2.359375 10.359375 -2.359375 C 11.398438 -2.359375 12.335938 -2.578125 13.171875 -3.015625 C 14.015625 -3.460938 14.734375 -3.992188 15.328125 -4.609375 Z M 8.265625 -14.171875 C 7.460938 -14.128906 6.785156 -13.878906 6.234375 -13.421875 C 5.691406 -12.960938 5.285156 -12.390625 5.015625 -11.703125 C 4.742188 -11.023438 4.609375 -10.316406 4.609375 -9.578125 C 4.609375 -9.179688 4.625 -8.804688 4.65625 -8.453125 C 4.6875 -8.109375 4.742188 -7.804688 4.828125 -7.546875 C 5.984375 -7.921875 7.109375 -8.300781 8.203125 -8.6875 C 9.304688 -9.082031 10.375 -9.488281 11.40625 -9.90625 C 11.664062 -10.007812 11.863281 -10.144531 12 -10.3125 C 12.144531 -10.488281 12.175781 -10.753906 12.09375 -11.109375 C 11.894531 -12.085938 11.421875 -12.863281 10.671875 -13.4375 C 9.921875 -14.019531 9.117188 -14.265625 8.265625 -14.171875 Z M 8.265625 -14.171875 "/></g></g></g><g fill="#156669" fill-opacity="1"><g transform="translate(223.725354, 74.780638)"><g><path d="M 17.515625 -2.25 C 17.929688 -2.289062 18.140625 -2.140625 18.140625 -1.796875 C 18.140625 -1.492188 17.988281 -1.179688 17.6875 -0.859375 C 17.394531 -0.546875 17.015625 -0.285156 16.546875 -0.078125 C 16.078125 0.128906 15.59375 0.234375 15.09375 0.234375 C 14.332031 0.234375 13.765625 0.0195312 13.390625 -0.40625 C 13.023438 -0.832031 12.753906 -1.445312 12.578125 -2.25 C 11.835938 -1.382812 10.953125 -0.742188 9.921875 -0.328125 C 8.898438 0.0859375 7.910156 0.296875 6.953125 0.296875 C 5.035156 0.296875 3.53125 -0.171875 2.4375 -1.109375 C 1.351562 -2.046875 0.8125 -3.210938 0.8125 -4.609375 C 0.8125 -5.648438 1.101562 -6.566406 1.6875 -7.359375 C 2.28125 -8.160156 3.101562 -8.789062 4.15625 -9.25 C 5.21875 -9.707031 6.46875 -9.9375 7.90625 -9.9375 C 8.46875 -9.9375 8.972656 -9.90625 9.421875 -9.84375 C 9.867188 -9.789062 10.390625 -9.710938 10.984375 -9.609375 C 10.785156 -10.390625 10.554688 -11.082031 10.296875 -11.6875 C 10.035156 -12.300781 9.671875 -12.78125 9.203125 -13.125 C 8.734375 -13.476562 8.0625 -13.65625 7.1875 -13.65625 C 6.363281 -13.65625 5.613281 -13.53125 4.9375 -13.28125 C 4.257812 -13.03125 3.601562 -12.71875 2.96875 -12.34375 C 2.664062 -12.15625 2.40625 -12.15625 2.1875 -12.34375 C 1.96875 -12.539062 1.96875 -12.828125 2.1875 -13.203125 C 2.46875 -13.609375 2.90625 -14.023438 3.5 -14.453125 C 4.101562 -14.878906 4.828125 -15.238281 5.671875 -15.53125 C 6.523438 -15.832031 7.457031 -15.984375 8.46875 -15.984375 C 9.769531 -15.984375 10.804688 -15.726562 11.578125 -15.21875 C 12.347656 -14.71875 12.945312 -14.066406 13.375 -13.265625 C 13.800781 -12.460938 14.125 -11.59375 14.34375 -10.65625 L 15.90625 -4.015625 C 16.082031 -3.273438 16.304688 -2.796875 16.578125 -2.578125 C 16.847656 -2.359375 17.160156 -2.25 17.515625 -2.25 Z M 8.203125 -1.640625 C 8.898438 -1.640625 9.554688 -1.785156 10.171875 -2.078125 C 10.796875 -2.367188 11.285156 -2.738281 11.640625 -3.1875 C 12.003906 -3.632812 12.144531 -4.085938 12.0625 -4.546875 C 12.007812 -4.867188 11.921875 -5.253906 11.796875 -5.703125 C 11.679688 -6.148438 11.539062 -6.6875 11.375 -7.3125 C 11.320312 -7.570312 11.128906 -7.785156 10.796875 -7.953125 C 10.460938 -8.117188 10.078125 -8.234375 9.640625 -8.296875 C 9.203125 -8.359375 8.8125 -8.390625 8.46875 -8.390625 C 7.15625 -8.390625 6.148438 -8.09375 5.453125 -7.5 C 4.753906 -6.914062 4.414062 -6.125 4.4375 -5.125 C 4.488281 -4.125 4.84375 -3.289062 5.5 -2.625 C 6.164062 -1.96875 7.066406 -1.640625 8.203125 -1.640625 Z M 8.203125 -1.640625 "/></g></g></g></svg>